<svg width="230" height="22" viewBox="0 0 230 22" fill="none" xmlns="http://www.w3.org/2000/svg">
<g filter="url(#filter0_d_1206_10)">
<path d="M9.488 11V8.34L9.516 8.06V2.306H9.894L5.638 8.13L5.26 7.668H11.98V8.676H4.476V7.808L9.544 0.92H10.692V11H9.488ZM13.431 13.016V12.442C13.7016 12.3393 13.8976 12.176 14.019 11.952C14.1403 11.7373 14.201 11.406 14.201 10.958L14.635 11H13.431V9.572H14.845V10.706C14.845 11.3033 14.733 11.798 14.509 12.19C14.285 12.582 13.9256 12.8573 13.431 13.016ZM19.9674 11.14C19.2581 11.14 18.6421 11.014 18.1194 10.762C17.6061 10.51 17.2094 10.1647 16.9294 9.726C16.6494 9.28733 16.5094 8.79733 16.5094 8.256C16.5094 7.752 16.6214 7.29467 16.8454 6.884C17.0694 6.47333 17.3681 6.14667 17.7414 5.904C18.1241 5.66133 18.5441 5.54 19.0014 5.54L19.0294 5.834C18.6001 5.834 18.2128 5.73133 17.8674 5.526C17.5221 5.31133 17.2514 5.022 17.0554 4.658C16.8594 4.294 16.7614 3.89267 16.7614 3.454C16.7614 2.93133 16.8968 2.46933 17.1674 2.068C17.4381 1.66667 17.8161 1.354 18.3014 1.13C18.7868 0.896666 19.3468 0.78 19.9814 0.78C20.6161 0.78 21.1714 0.896666 21.6474 1.13C22.1234 1.354 22.4968 1.66667 22.7674 2.068C23.0381 2.46933 23.1734 2.92667 23.1734 3.44C23.1734 3.888 23.0754 4.294 22.8794 4.658C22.6834 5.01267 22.4128 5.29733 22.0674 5.512C21.7221 5.72667 21.3301 5.834 20.8914 5.834L20.9334 5.54C21.4001 5.54 21.8201 5.66133 22.1934 5.904C22.5668 6.14667 22.8654 6.47333 23.0894 6.884C23.3134 7.29467 23.4254 7.752 23.4254 8.256C23.4254 8.79733 23.2854 9.28733 23.0054 9.726C22.7254 10.1647 22.3241 10.51 21.8014 10.762C21.2881 11.014 20.6768 11.14 19.9674 11.14ZM19.9674 10.132C20.6488 10.132 21.1854 9.95 21.5774 9.586C21.9788 9.222 22.1794 8.74133 22.1794 8.144C22.1794 7.54667 21.9834 7.07533 21.5914 6.73C21.1994 6.38467 20.6581 6.212 19.9674 6.212C19.2768 6.212 18.7354 6.38467 18.3434 6.73C17.9514 7.07533 17.7554 7.54667 17.7554 8.144C17.7554 8.74133 17.9514 9.222 18.3434 9.586C18.7448 9.95 19.2861 10.132 19.9674 10.132ZM19.9674 5.232C20.5834 5.232 21.0641 5.078 21.4094 4.77C21.7641 4.462 21.9414 4.05133 21.9414 3.538C21.9414 3.006 21.7594 2.58133 21.3954 2.264C21.0314 1.94667 20.5554 1.788 19.9674 1.788C19.3701 1.788 18.8894 1.94667 18.5254 2.264C18.1708 2.58133 17.9934 3.006 17.9934 3.538C17.9934 4.05133 18.1708 4.462 18.5254 4.77C18.8801 5.078 19.3608 5.232 19.9674 5.232ZM24.854 11.84L28.396 0.499999H29.376L25.834 11.84H24.854ZM34.2538 11.14C33.2551 11.14 32.4571 10.874 31.8598 10.342C31.2624 9.80067 30.8984 9.10067 30.7678 8.242H31.9998C32.1211 8.84867 32.3778 9.31533 32.7698 9.642C33.1711 9.96867 33.6564 10.132 34.2258 10.132C34.8231 10.132 35.3271 9.94533 35.7378 9.572C36.1578 9.19867 36.3678 8.606 36.3678 7.794C36.3678 6.982 36.1578 6.37533 35.7378 5.974C35.3271 5.56333 34.8044 5.358 34.1698 5.358C33.7124 5.358 33.3158 5.45133 32.9798 5.638C32.6438 5.82467 32.4198 6.044 32.3078 6.296H31.2718L31.7338 0.92H37.0538V1.928H32.4198L32.8118 1.508L32.4898 5.568L32.2238 5.47C32.3918 5.19 32.6624 4.94733 33.0358 4.742C33.4091 4.53667 33.8664 4.434 34.4078 4.434C35.0331 4.434 35.5838 4.56933 36.0598 4.84C36.5451 5.11067 36.9231 5.498 37.1938 6.002C37.4738 6.49667 37.6138 7.094 37.6138 7.794C37.6138 8.494 37.4738 9.096 37.1938 9.6C36.9231 10.0947 36.5358 10.4773 36.0318 10.748C35.5371 11.0093 34.9444 11.14 34.2538 11.14ZM104.782 11V8.34L104.81 8.06V2.306H105.188L100.932 8.13L100.554 7.668H107.274V8.676H99.7701V7.808L104.838 0.92H105.986V11H104.782ZM108.711 11V9.558H110.153V11H108.711ZM115.249 11.14C114.577 11.14 113.985 11.0187 113.471 10.776C112.967 10.524 112.557 10.16 112.239 9.684C111.931 9.208 111.74 8.634 111.665 7.962H112.869C112.972 8.662 113.229 9.19867 113.639 9.572C114.05 9.94533 114.591 10.132 115.263 10.132C115.898 10.132 116.397 9.964 116.761 9.628C117.125 9.292 117.307 8.83467 117.307 8.256C117.307 7.64933 117.13 7.15933 116.775 6.786C116.421 6.40333 115.945 6.212 115.347 6.212H114.087V5.232H115.305C115.847 5.232 116.276 5.078 116.593 4.77C116.92 4.45267 117.083 4.03267 117.083 3.51C117.083 2.95933 116.911 2.53467 116.565 2.236C116.229 1.93733 115.772 1.788 115.193 1.788C114.624 1.788 114.139 1.956 113.737 2.292C113.336 2.61867 113.098 3.09 113.023 3.706H111.805C111.861 3.10867 112.039 2.59533 112.337 2.166C112.636 1.72733 113.033 1.38667 113.527 1.144C114.031 0.901333 114.596 0.78 115.221 0.78C115.828 0.78 116.365 0.887333 116.831 1.102C117.298 1.31667 117.662 1.62467 117.923 2.026C118.185 2.418 118.315 2.88 118.315 3.412C118.315 3.888 118.208 4.308 117.993 4.672C117.779 5.036 117.485 5.32067 117.111 5.526C116.747 5.73133 116.327 5.834 115.851 5.834L115.767 5.54C116.337 5.54 116.827 5.66133 117.237 5.904C117.657 6.13733 117.979 6.45933 118.203 6.87C118.437 7.28067 118.553 7.75667 118.553 8.298C118.553 8.858 118.413 9.35267 118.133 9.782C117.853 10.2113 117.466 10.5473 116.971 10.79C116.477 11.0233 115.903 11.14 115.249 11.14ZM124.037 11.14C123.449 11.14 122.922 11.028 122.455 10.804C121.989 10.5707 121.611 10.23 121.321 9.782C121.032 9.32467 120.845 8.75533 120.761 8.074H121.993C122.087 8.802 122.315 9.32933 122.679 9.656C123.043 9.97333 123.505 10.132 124.065 10.132C124.476 10.132 124.831 10.048 125.129 9.88C125.428 9.712 125.675 9.45533 125.871 9.11C126.067 8.76467 126.212 8.326 126.305 7.794C126.399 7.25267 126.445 6.61333 126.445 5.876V4.966L126.767 5.008C126.683 5.43733 126.497 5.82 126.207 6.156C125.918 6.48267 125.559 6.73933 125.129 6.926C124.7 7.10333 124.238 7.192 123.743 7.192C123.127 7.192 122.586 7.05667 122.119 6.786C121.653 6.506 121.284 6.12333 121.013 5.638C120.752 5.15267 120.621 4.602 120.621 3.986C120.621 3.33267 120.766 2.768 121.055 2.292C121.345 1.816 121.746 1.44733 122.259 1.186C122.782 0.915333 123.379 0.78 124.051 0.78C125.246 0.78 126.151 1.214 126.767 2.082C127.393 2.95 127.705 4.224 127.705 5.904C127.705 7.024 127.561 7.976 127.271 8.76C126.991 9.53467 126.576 10.1273 126.025 10.538C125.484 10.9393 124.821 11.14 124.037 11.14ZM124.037 6.212C124.681 6.212 125.213 6.03 125.633 5.666C126.063 5.302 126.277 4.77933 126.277 4.098C126.277 3.64067 126.175 3.23933 125.969 2.894C125.773 2.54867 125.503 2.278 125.157 2.082C124.812 1.886 124.42 1.788 123.981 1.788C123.356 1.788 122.847 1.98867 122.455 2.39C122.073 2.782 121.881 3.32333 121.881 4.014C121.881 4.67667 122.068 5.20867 122.441 5.61C122.824 6.01133 123.356 6.212 124.037 6.212ZM129.588 11V10.02C130.596 9.18933 131.436 8.46133 132.108 7.836C132.79 7.21067 133.331 6.65533 133.732 6.17C134.143 5.68467 134.432 5.24133 134.6 4.84C134.778 4.42933 134.866 4.028 134.866 3.636C134.866 3.05733 134.694 2.60467 134.348 2.278C134.003 1.95133 133.527 1.788 132.92 1.788C132.295 1.788 131.791 1.96533 131.408 2.32C131.026 2.67467 130.792 3.18333 130.708 3.846H129.504C129.598 2.93133 129.948 2.194 130.554 1.634C131.17 1.06467 131.987 0.78 133.004 0.78C133.947 0.78 134.698 1.032 135.258 1.536C135.818 2.04 136.098 2.73067 136.098 3.608C136.098 4.084 136.005 4.56 135.818 5.036C135.641 5.512 135.342 6.01133 134.922 6.534C134.512 7.05667 133.966 7.63533 133.284 8.27C132.612 8.89533 131.777 9.60467 130.778 10.398L130.512 9.992H136.266V11H129.588ZM146.082 11C146.045 10.8413 146.017 10.6593 145.998 10.454C145.989 10.2487 145.984 9.98733 145.984 9.67H145.914V6.254C145.914 5.71267 145.788 5.316 145.536 5.064C145.293 4.80267 144.897 4.672 144.346 4.672C143.805 4.672 143.371 4.784 143.044 5.008C142.727 5.22267 142.549 5.53067 142.512 5.932H141.434C141.481 5.24133 141.77 4.7 142.302 4.308C142.834 3.916 143.529 3.72 144.388 3.72C145.275 3.72 145.933 3.93 146.362 4.35C146.791 4.77 147.006 5.4 147.006 6.24V9.67C147.006 9.87533 147.02 10.09 147.048 10.314C147.076 10.5287 147.113 10.7573 147.16 11H146.082ZM143.632 11.14C142.895 11.14 142.307 10.9627 141.868 10.608C141.439 10.244 141.224 9.74933 141.224 9.124C141.224 8.49867 141.439 8.01333 141.868 7.668C142.297 7.32267 142.923 7.08 143.744 6.94L146.236 6.52V7.444L143.912 7.808C143.389 7.892 142.993 8.032 142.722 8.228C142.451 8.424 142.316 8.70867 142.316 9.082C142.316 9.446 142.437 9.72133 142.68 9.908C142.932 10.0947 143.301 10.188 143.786 10.188C144.411 10.188 144.92 10.048 145.312 9.768C145.713 9.47867 145.914 9.10533 145.914 8.648L146.096 9.642C145.947 10.118 145.653 10.4867 145.214 10.748C144.785 11.0093 144.257 11.14 143.632 11.14ZM149.725 11V3.86H150.775V5.54H150.845V11H149.725ZM154.835 11V6.324C154.835 5.78267 154.699 5.37667 154.429 5.106C154.158 4.83533 153.757 4.7 153.225 4.7C152.758 4.7 152.343 4.80267 151.979 5.008C151.624 5.21333 151.344 5.498 151.139 5.862C150.943 6.226 150.845 6.65067 150.845 7.136L150.663 5.442C150.905 4.91 151.274 4.49 151.769 4.182C152.273 3.874 152.842 3.72 153.477 3.72C154.223 3.72 154.821 3.93467 155.269 4.364C155.726 4.784 155.955 5.33933 155.955 6.03V11H154.835ZM158.666 11V3.86H159.716V5.54H159.786V11H158.666ZM163.482 11V6.268C163.482 5.72667 163.36 5.33 163.118 5.078C162.875 4.826 162.525 4.7 162.068 4.7C161.638 4.7 161.251 4.80267 160.906 5.008C160.56 5.21333 160.285 5.498 160.08 5.862C159.884 6.226 159.786 6.65067 159.786 7.136L159.604 5.442C159.846 4.91 160.21 4.49 160.696 4.182C161.181 3.874 161.708 3.72 162.278 3.72C162.968 3.72 163.528 3.92533 163.958 4.336C164.387 4.73733 164.602 5.28333 164.602 5.974V11H163.482ZM168.298 11V6.268C168.298 5.72667 168.176 5.33 167.934 5.078C167.691 4.826 167.341 4.7 166.884 4.7C166.454 4.7 166.067 4.80267 165.722 5.008C165.376 5.21333 165.101 5.498 164.896 5.862C164.7 6.226 164.602 6.65067 164.602 7.136L164.322 5.442C164.564 4.91 164.938 4.49 165.442 4.182C165.946 3.874 166.487 3.72 167.066 3.72C167.756 3.72 168.321 3.92533 168.76 4.336C169.198 4.73733 169.418 5.28333 169.418 5.974V11H168.298ZM175.058 11.14C174.376 11.14 173.774 10.9813 173.252 10.664C172.729 10.3373 172.318 9.894 172.02 9.334C171.721 8.774 171.572 8.13 171.572 7.402C171.572 6.674 171.716 6.03467 172.006 5.484C172.304 4.924 172.72 4.49 173.252 4.182C173.784 3.874 174.395 3.72 175.086 3.72C175.748 3.72 176.322 3.86467 176.808 4.154C177.302 4.44333 177.68 4.84933 177.942 5.372C178.212 5.89467 178.348 6.51067 178.348 7.22C178.348 7.31333 178.343 7.402 178.334 7.486C178.334 7.57 178.324 7.66333 178.306 7.766H172.412V6.828H177.62L177.256 7.346C177.256 6.48733 177.064 5.82933 176.682 5.372C176.308 4.90533 175.776 4.672 175.086 4.672C174.376 4.672 173.802 4.91933 173.364 5.414C172.934 5.89933 172.72 6.55733 172.72 7.388C172.72 8.23733 172.934 8.91867 173.364 9.432C173.802 9.936 174.386 10.188 175.114 10.188C175.571 10.188 175.972 10.09 176.318 9.894C176.663 9.68867 176.915 9.39933 177.074 9.026H178.138C177.904 9.67933 177.512 10.1973 176.962 10.58C176.42 10.9533 175.786 11.14 175.058 11.14ZM180.594 11V0.92H181.714V11H180.594ZM189.711 11V9.334L189.851 9.376C189.674 9.91733 189.347 10.3467 188.871 10.664C188.405 10.9813 187.845 11.14 187.191 11.14C186.547 11.14 185.983 10.986 185.497 10.678C185.021 10.37 184.648 9.94067 184.377 9.39C184.116 8.83933 183.985 8.19533 183.985 7.458C183.985 6.71133 184.121 6.058 184.391 5.498C184.662 4.938 185.04 4.504 185.525 4.196C186.011 3.888 186.58 3.734 187.233 3.734C187.905 3.734 188.47 3.89733 188.927 4.224C189.385 4.55067 189.697 5.01267 189.865 5.61L189.641 5.638V0.92H190.761V11H189.711ZM187.401 10.16C188.12 10.16 188.68 9.91733 189.081 9.432C189.492 8.93733 189.697 8.26533 189.697 7.416C189.697 6.58533 189.492 5.92733 189.081 5.442C188.671 4.95667 188.111 4.714 187.401 4.714C186.692 4.714 186.137 4.95667 185.735 5.442C185.334 5.92733 185.133 6.59933 185.133 7.458C185.133 8.298 185.334 8.96067 185.735 9.446C186.137 9.922 186.692 10.16 187.401 10.16ZM196.494 11.14C195.812 11.14 195.21 10.9813 194.688 10.664C194.165 10.3373 193.754 9.894 193.456 9.334C193.157 8.774 193.008 8.13 193.008 7.402C193.008 6.674 193.152 6.03467 193.442 5.484C193.74 4.924 194.156 4.49 194.688 4.182C195.22 3.874 195.831 3.72 196.522 3.72C197.184 3.72 197.758 3.86467 198.244 4.154C198.738 4.44333 199.116 4.84933 199.378 5.372C199.648 5.89467 199.784 6.51067 199.784 7.22C199.784 7.31333 199.779 7.402 199.77 7.486C199.77 7.57 199.76 7.66333 199.742 7.766H193.848V6.828H199.056L198.692 7.346C198.692 6.48733 198.5 5.82933 198.118 5.372C197.744 4.90533 197.212 4.672 196.522 4.672C195.812 4.672 195.238 4.91933 194.8 5.414C194.37 5.89933 194.156 6.55733 194.156 7.388C194.156 8.23733 194.37 8.91867 194.8 9.432C195.238 9.936 195.822 10.188 196.55 10.188C197.007 10.188 197.408 10.09 197.754 9.894C198.099 9.68867 198.351 9.39933 198.51 9.026H199.574C199.34 9.67933 198.948 10.1973 198.398 10.58C197.856 10.9533 197.222 11.14 196.494 11.14ZM202.03 11V0.92H203.15V11H202.03ZM208.375 11.14C207.498 11.14 206.798 10.9393 206.275 10.538C205.753 10.1273 205.454 9.54867 205.379 8.802H206.457C206.523 9.25933 206.723 9.60933 207.059 9.852C207.395 10.0947 207.843 10.216 208.403 10.216C208.898 10.216 209.285 10.1227 209.565 9.936C209.845 9.74933 209.985 9.48333 209.985 9.138C209.985 8.89533 209.906 8.68533 209.747 8.508C209.589 8.32133 209.271 8.16733 208.795 8.046L207.647 7.752C206.994 7.584 206.504 7.32733 206.177 6.982C205.851 6.62733 205.687 6.20733 205.687 5.722C205.687 5.106 205.916 4.62067 206.373 4.266C206.831 3.902 207.451 3.72 208.235 3.72C209.01 3.72 209.64 3.90667 210.125 4.28C210.611 4.65333 210.886 5.17133 210.951 5.834H209.873C209.808 5.45133 209.631 5.15733 209.341 4.952C209.052 4.74667 208.669 4.644 208.193 4.644C207.736 4.644 207.381 4.73267 207.129 4.91C206.877 5.078 206.751 5.32067 206.751 5.638C206.751 5.88067 206.84 6.09067 207.017 6.268C207.204 6.44533 207.512 6.59467 207.941 6.716L209.061 7.024C209.724 7.20133 210.223 7.472 210.559 7.836C210.895 8.2 211.063 8.63867 211.063 9.152C211.063 9.77733 210.825 10.2673 210.349 10.622C209.873 10.9673 209.215 11.14 208.375 11.14ZM216.303 11.14C215.621 11.14 215.019 10.9813 214.497 10.664C213.974 10.3373 213.563 9.894 213.265 9.334C212.966 8.774 212.817 8.13 212.817 7.402C212.817 6.674 212.961 6.03467 213.251 5.484C213.549 4.924 213.965 4.49 214.497 4.182C215.029 3.874 215.64 3.72 216.331 3.72C216.993 3.72 217.567 3.86467 218.053 4.154C218.547 4.44333 218.925 4.84933 219.187 5.372C219.457 5.89467 219.593 6.51067 219.593 7.22C219.593 7.31333 219.588 7.402 219.579 7.486C219.579 7.57 219.569 7.66333 219.551 7.766H213.657V6.828H218.865L218.501 7.346C218.501 6.48733 218.309 5.82933 217.927 5.372C217.553 4.90533 217.021 4.672 216.331 4.672C215.621 4.672 215.047 4.91933 214.609 5.414C214.179 5.89933 213.965 6.55733 213.965 7.388C213.965 8.23733 214.179 8.91867 214.609 9.432C215.047 9.936 215.631 10.188 216.359 10.188C216.816 10.188 217.217 10.09 217.563 9.894C217.908 9.68867 218.16 9.39933 218.319 9.026H219.383C219.149 9.67933 218.757 10.1973 218.207 10.58C217.665 10.9533 217.031 11.14 216.303 11.14ZM221.839 11V3.86H222.889V5.68H222.959V11H221.839ZM222.959 7.276L222.777 5.582C222.945 4.97533 223.244 4.51333 223.673 4.196C224.102 3.87867 224.597 3.72 225.157 3.72C225.39 3.72 225.549 3.73867 225.633 3.776V4.854C225.586 4.83533 225.521 4.826 225.437 4.826C225.353 4.81667 225.25 4.812 225.129 4.812C224.42 4.812 223.878 5.02667 223.505 5.456C223.141 5.876 222.959 6.48267 222.959 7.276Z" fill="white"/>
</g>
<defs>
<filter id="filter0_d_1206_10" x="0.476002" y="0.5" width="229.157" height="20.516" filterUnits="userSpaceOnUse" color-interpolation-filters="sRGB">
<feFlood flood-opacity="0" result="BackgroundImageFix"/>
<feColorMatrix in="SourceAlpha" type="matrix" values="0 0 0 0 0 0 0 0 0 0 0 0 0 0 0 0 0 0 127 0" result="hardAlpha"/>
<feOffset dy="4"/>
<feGaussianBlur stdDeviation="2"/>
<feComposite in2="hardAlpha" operator="out"/>
<feColorMatrix type="matrix" values="0 0 0 0 0 0 0 0 0 0 0 0 0 0 0 0 0 0 0.25 0"/>
<feBlend mode="normal" in2="BackgroundImageFix" result="effect1_dropShadow_1206_10"/>
<feBlend mode="normal" in="SourceGraphic" in2="effect1_dropShadow_1206_10" result="shape"/>
</filter>
</defs>
</svg>
