<svg width="66" height="27" viewBox="0 0 66 27" fill="none" xmlns="http://www.w3.org/2000/svg">
<path d="M0 6.75C0 4.95979 0.869194 3.2429 2.41637 1.97703C3.96354 0.711158 6.06196 0 8.25 0H49.5C51.688 0 53.7865 0.711158 55.3336 1.97703C56.8808 3.2429 57.75 4.95979 57.75 6.75V20.25C57.75 22.0402 56.8808 23.7571 55.3336 25.023C53.7865 26.2888 51.688 27 49.5 27H8.25C6.06196 27 3.96354 26.2888 2.41637 25.023C0.869194 23.7571 0 22.0402 0 20.25V6.75ZM8.25 3.375C7.15598 3.375 6.10677 3.73058 5.33318 4.36352C4.5596 4.99645 4.125 5.85489 4.125 6.75V20.25C4.125 21.1451 4.5596 22.0035 5.33318 22.6365C6.10677 23.2694 7.15598 23.625 8.25 23.625H49.5C50.594 23.625 51.6432 23.2694 52.4168 22.6365C53.1904 22.0035 53.625 21.1451 53.625 20.25V6.75C53.625 5.85489 53.1904 4.99645 52.4168 4.36352C51.6432 3.73058 50.594 3.375 49.5 3.375H8.25ZM66 13.5C66 14.8427 65.3481 16.1303 64.1877 17.0797C63.0273 18.0291 61.4535 18.5625 59.8125 18.5625V8.4375C61.4535 8.4375 63.0273 8.97087 64.1877 9.92027C65.3481 10.8697 66 12.1573 66 13.5Z" fill="black"/>
</svg>
