<svg width="53" height="56" viewBox="0 0 53 56" fill="none" xmlns="http://www.w3.org/2000/svg">
<path fill-rule="evenodd" clip-rule="evenodd" d="M19.2476 2.69049C19.2476 1.97692 19.5373 1.29259 20.0529 0.788025C20.5686 0.283461 21.268 0 21.9972 0H30.2462C30.9754 0 31.6748 0.283461 32.1905 0.788025C32.7061 1.29259 32.9958 1.97692 32.9958 2.69049C32.9958 3.40405 32.7061 4.08838 32.1905 4.59295C31.6748 5.09751 30.9754 5.38097 30.2462 5.38097H21.9972C21.268 5.38097 20.5686 5.09751 20.0529 4.59295C19.5373 4.08838 19.2476 3.40405 19.2476 2.69049ZM19.2476 13.4524C19.2476 12.7389 19.5373 12.0545 20.0529 11.55C20.5686 11.0454 21.268 10.7619 21.9972 10.7619H30.2462C30.9754 10.7619 31.6748 11.0454 32.1905 11.55C32.7061 12.0545 32.9958 12.7389 32.9958 13.4524C32.9958 14.166 32.7061 14.8503 32.1905 15.3549C31.6748 15.8595 30.9754 16.1429 30.2462 16.1429H21.9972C21.268 16.1429 20.5686 15.8595 20.0529 15.3549C19.5373 14.8503 19.2476 14.166 19.2476 13.4524ZM38.4952 13.4524C38.4952 12.7389 38.7848 12.0545 39.3005 11.55C39.8162 11.0454 40.5155 10.7619 41.2448 10.7619H49.4938C50.223 10.7619 50.9224 11.0454 51.4381 11.55C51.9537 12.0545 52.2434 12.7389 52.2434 13.4524C52.2434 14.166 51.9537 14.8503 51.4381 15.3549C50.9224 15.8595 50.223 16.1429 49.4938 16.1429H41.2448C40.5155 16.1429 39.8162 15.8595 39.3005 15.3549C38.7848 14.8503 38.4952 14.166 38.4952 13.4524ZM0 24.2144C0 23.5008 0.289695 22.8165 0.805355 22.3119C1.32101 21.8073 2.0204 21.5239 2.74965 21.5239H10.9986C11.7279 21.5239 12.4273 21.8073 12.9429 22.3119C13.4586 22.8165 13.7483 23.5008 13.7483 24.2144C13.7483 24.9279 13.4586 25.6123 12.9429 26.1168C12.4273 26.6214 11.7279 26.9049 10.9986 26.9049H2.74965C2.0204 26.9049 1.32101 26.6214 0.805355 26.1168C0.289695 25.6123 0 24.9279 0 24.2144ZM19.2476 24.2144C19.2476 23.5008 19.5373 22.8165 20.0529 22.3119C20.5686 21.8073 21.268 21.5239 21.9972 21.5239H30.2462C30.9754 21.5239 31.6748 21.8073 32.1905 22.3119C32.7061 22.8165 32.9958 23.5008 32.9958 24.2144C32.9958 24.9279 32.7061 25.6123 32.1905 26.1168C31.6748 26.6214 30.9754 26.9049 30.2462 26.9049H21.9972C21.268 26.9049 20.5686 26.6214 20.0529 26.1168C19.5373 25.6123 19.2476 24.9279 19.2476 24.2144ZM38.4952 24.2144C38.4952 23.5008 38.7848 22.8165 39.3005 22.3119C39.8162 21.8073 40.5155 21.5239 41.2448 21.5239H49.4938C50.223 21.5239 50.9224 21.8073 51.4381 22.3119C51.9537 22.8165 52.2434 23.5008 52.2434 24.2144C52.2434 24.9279 51.9537 25.6123 51.4381 26.1168C50.9224 26.6214 50.223 26.9049 49.4938 26.9049H41.2448C40.5155 26.9049 39.8162 26.6214 39.3005 26.1168C38.7848 25.6123 38.4952 24.9279 38.4952 24.2144ZM0 34.9763C0 34.2627 0.289695 33.5784 0.805355 33.0739C1.32101 32.5693 2.0204 32.2858 2.74965 32.2858H10.9986C11.7279 32.2858 12.4273 32.5693 12.9429 33.0739C13.4586 33.5784 13.7483 34.2627 13.7483 34.9763C13.7483 35.6899 13.4586 36.3742 12.9429 36.8788C12.4273 37.3833 11.7279 37.6668 10.9986 37.6668H2.74965C2.0204 37.6668 1.32101 37.3833 0.805355 36.8788C0.289695 36.3742 0 35.6899 0 34.9763ZM19.2476 34.9763C19.2476 34.2627 19.5373 33.5784 20.0529 33.0739C20.5686 32.5693 21.268 32.2858 21.9972 32.2858H30.2462C30.9754 32.2858 31.6748 32.5693 32.1905 33.0739C32.7061 33.5784 32.9958 34.2627 32.9958 34.9763C32.9958 35.6899 32.7061 36.3742 32.1905 36.8788C31.6748 37.3833 30.9754 37.6668 30.2462 37.6668H21.9972C21.268 37.6668 20.5686 37.3833 20.0529 36.8788C19.5373 36.3742 19.2476 35.6899 19.2476 34.9763ZM38.4952 34.9763C38.4952 34.2627 38.7848 33.5784 39.3005 33.0739C39.8162 32.5693 40.5155 32.2858 41.2448 32.2858H49.4938C50.223 32.2858 50.9224 32.5693 51.4381 33.0739C51.9537 33.5784 52.2434 34.2627 52.2434 34.9763C52.2434 35.6899 51.9537 36.3742 51.4381 36.8788C50.9224 37.3833 50.223 37.6668 49.4938 37.6668H41.2448C40.5155 37.6668 39.8162 37.3833 39.3005 36.8788C38.7848 36.3742 38.4952 35.6899 38.4952 34.9763ZM0 45.7383C0 45.0247 0.289695 44.3404 0.805355 43.8358C1.32101 43.3312 2.0204 43.0478 2.74965 43.0478H10.9986C11.7279 43.0478 12.4273 43.3312 12.9429 43.8358C13.4586 44.3404 13.7483 45.0247 13.7483 45.7383C13.7483 46.4518 13.4586 47.1362 12.9429 47.6407C12.4273 48.1453 11.7279 48.4287 10.9986 48.4287H2.74965C2.0204 48.4287 1.32101 48.1453 0.805355 47.6407C0.289695 47.1362 0 46.4518 0 45.7383ZM19.2476 45.7383C19.2476 45.0247 19.5373 44.3404 20.0529 43.8358C20.5686 43.3312 21.268 43.0478 21.9972 43.0478H30.2462C30.9754 43.0478 31.6748 43.3312 32.1905 43.8358C32.7061 44.3404 32.9958 45.0247 32.9958 45.7383C32.9958 46.4518 32.7061 47.1362 32.1905 47.6407C31.6748 48.1453 30.9754 48.4287 30.2462 48.4287H21.9972C21.268 48.4287 20.5686 48.1453 20.0529 47.6407C19.5373 47.1362 19.2476 46.4518 19.2476 45.7383ZM38.4952 45.7383C38.4952 45.0247 38.7848 44.3404 39.3005 43.8358C39.8162 43.3312 40.5155 43.0478 41.2448 43.0478H49.4938C50.223 43.0478 50.9224 43.3312 51.4381 43.8358C51.9537 44.3404 52.2434 45.0247 52.2434 45.7383C52.2434 46.4518 51.9537 47.1362 51.4381 47.6407C50.9224 48.1453 50.223 48.4287 49.4938 48.4287H41.2448C40.5155 48.4287 39.8162 48.1453 39.3005 47.6407C38.7848 47.1362 38.4952 46.4518 38.4952 45.7383Z" fill="black"/>
</svg>
