<svg width="53" height="46" viewBox="0 0 53 46" fill="none" xmlns="http://www.w3.org/2000/svg">
<path d="M34.0697 2.771C36.9018 1.67944 40.3781 1.45942 44.267 3.40381C49.1876 5.8642 51.0115 10.0889 50.7006 14.7534C50.3832 19.5134 47.8164 24.7177 43.8763 28.6577C39.8016 32.7324 32.7519 39.7781 27.6361 43.6685C26.993 44.1575 26.1081 44.1465 25.4554 43.6196C20.7348 39.8094 13.099 32.6332 9.12341 28.6577C5.18334 24.7177 2.61652 19.5134 2.29919 14.7534C1.98828 10.089 3.81226 5.86421 8.73279 3.40381C12.6216 1.45942 16.0979 1.67944 18.9301 2.771C21.813 3.88216 24.0564 5.91344 25.3002 7.57178L26.5004 9.17139L27.6996 7.57178C28.9433 5.91346 31.1868 3.88217 34.0697 2.771Z" fill="#FFE2F9" stroke="black" stroke-width="3"/>
</svg>
