<svg width="47" height="45" viewBox="0 0 47 45" fill="none" xmlns="http://www.w3.org/2000/svg">
<path d="M16.9112 1.14606C17.0767 1.24517 17.2211 1.37593 17.336 1.53085C17.451 1.68577 17.5343 1.86182 17.5813 2.04895C17.6282 2.23609 17.6378 2.43063 17.6095 2.62147C17.5812 2.81231 17.5156 2.9957 17.4164 3.16118L9.93756 15.625H37.0624L29.5806 3.16118C29.3804 2.82696 29.3212 2.42689 29.4159 2.04898C29.5107 1.67107 29.7517 1.34628 30.0859 1.14606C30.4201 0.945837 30.8202 0.886585 31.1981 0.981338C31.576 1.07609 31.9008 1.31709 32.101 1.65131L40.4876 15.625H44.0625C44.8416 15.625 45.5887 15.9345 46.1396 16.4854C46.6905 17.0363 47 17.7834 47 18.5625V21.5C47 22.2791 46.6905 23.0262 46.1396 23.5771C45.5887 24.128 44.8416 24.4375 44.0625 24.4375V37.6562C44.0625 39.6039 43.2888 41.4718 41.9116 42.8491C40.5343 44.2263 38.6664 45 36.7188 45H10.2812C8.33357 45 6.46565 44.2263 5.08843 42.8491C3.71121 41.4718 2.9375 39.6039 2.9375 37.6562V24.4375C2.15843 24.4375 1.41126 24.128 0.860374 23.5771C0.309486 23.0262 0 22.2791 0 21.5V18.5625C0 17.7834 0.309486 17.0363 0.860374 16.4854C1.41126 15.9345 2.15843 15.625 2.9375 15.625H6.51244L14.8931 1.65131C14.9922 1.48579 15.123 1.34142 15.2779 1.22645C15.4328 1.11148 15.6089 1.02815 15.796 0.981232C15.9832 0.934312 16.1777 0.92472 16.3685 0.953001C16.5594 0.981283 16.7457 1.04688 16.9112 1.14606ZM5.875 24.4375V37.6562C5.875 38.8249 6.33923 39.9456 7.16556 40.7719C7.99189 41.5983 9.11264 42.0625 10.2812 42.0625H36.7188C37.8874 42.0625 39.0081 41.5983 39.8344 40.7719C40.6608 39.9456 41.125 38.8249 41.125 37.6562V24.4375H5.875ZM2.9375 18.5625V21.5H44.0625V18.5625H2.9375ZM11.75 27.375C12.1395 27.375 12.5131 27.5297 12.7886 27.8052C13.064 28.0806 13.2188 28.4542 13.2188 28.8437V37.6562C13.2188 38.0458 13.064 38.4194 12.7886 38.6948C12.5131 38.9703 12.1395 39.125 11.75 39.125C11.3605 39.125 10.9869 38.9703 10.7114 38.6948C10.436 38.4194 10.2812 38.0458 10.2812 37.6562V28.8437C10.2812 28.4542 10.436 28.0806 10.7114 27.8052C10.9869 27.5297 11.3605 27.375 11.75 27.375ZM17.625 27.375C18.0145 27.375 18.3881 27.5297 18.6636 27.8052C18.939 28.0806 19.0938 28.4542 19.0938 28.8437V37.6562C19.0938 38.0458 18.939 38.4194 18.6636 38.6948C18.3881 38.9703 18.0145 39.125 17.625 39.125C17.2355 39.125 16.8619 38.9703 16.5864 38.6948C16.311 38.4194 16.1562 38.0458 16.1562 37.6562V28.8437C16.1562 28.4542 16.311 28.0806 16.5864 27.8052C16.8619 27.5297 17.2355 27.375 17.625 27.375ZM23.5 27.375C23.8895 27.375 24.2631 27.5297 24.5386 27.8052C24.814 28.0806 24.9688 28.4542 24.9688 28.8437V37.6562C24.9688 38.0458 24.814 38.4194 24.5386 38.6948C24.2631 38.9703 23.8895 39.125 23.5 39.125C23.1105 39.125 22.7369 38.9703 22.4614 38.6948C22.186 38.4194 22.0312 38.0458 22.0312 37.6562V28.8437C22.0312 28.4542 22.186 28.0806 22.4614 27.8052C22.7369 27.5297 23.1105 27.375 23.5 27.375ZM29.375 27.375C29.7645 27.375 30.1381 27.5297 30.4136 27.8052C30.689 28.0806 30.8438 28.4542 30.8438 28.8437V37.6562C30.8438 38.0458 30.689 38.4194 30.4136 38.6948C30.1381 38.9703 29.7645 39.125 29.375 39.125C28.9855 39.125 28.6119 38.9703 28.3364 38.6948C28.061 38.4194 27.9062 38.0458 27.9062 37.6562V28.8437C27.9062 28.4542 28.061 28.0806 28.3364 27.8052C28.6119 27.5297 28.9855 27.375 29.375 27.375ZM35.25 27.375C35.6395 27.375 36.0131 27.5297 36.2886 27.8052C36.564 28.0806 36.7188 28.4542 36.7188 28.8437V37.6562C36.7188 38.0458 36.564 38.4194 36.2886 38.6948C36.0131 38.9703 35.6395 39.125 35.25 39.125C34.8605 39.125 34.4869 38.9703 34.2114 38.6948C33.936 38.4194 33.7812 38.0458 33.7812 37.6562V28.8437C33.7812 28.4542 33.936 28.0806 34.2114 27.8052C34.4869 27.5297 34.8605 27.375 35.25 27.375Z" fill="#3A2A1F"/>
</svg>
