<svg width="155" height="92" viewBox="0 0 155 92" fill="none" xmlns="http://www.w3.org/2000/svg">
<path d="M1.3391 33.7326C-0.977961 41.2994 5.80428 39.6008 8.63398 41.6247C12.1865 44.1386 15.0259 47.6903 17.7424 51.2149C20.4464 54.627 23.3961 57.9968 26.5861 60.6028C32.1425 65.1608 38.9054 69.0587 46.2441 71.8092C46.6216 71.9518 47.093 71.4316 47.2593 71.4914C48.8486 72.0789 51.3341 73.6149 52.9927 74.027C54.1822 74.3333 55.7034 74.7342 57.1456 75.0534C57.8773 75.2169 58.5657 75.3555 59.0386 75.4367C59.2549 75.4724 59.4241 75.4973 59.3265 75.455C59.277 75.4331 59.1524 75.3934 58.8511 75.2987C58.598 75.2152 58.008 75.0438 56.999 74.6619C56.6961 74.527 56.7249 74.5098 56.7638 74.498C56.8148 74.4904 56.9214 74.5029 57.0345 74.5149C57.2756 74.5452 57.5536 74.5782 57.8284 74.5921C58.5763 74.6249 59.3804 74.8517 60.2913 73.5301C60.5859 73.5695 60.1785 74.9421 60.2204 75.0444C60.2218 75.0434 60.2232 75.0425 60.2246 75.0416C60.3516 75.3575 61.3345 74.6946 61.4399 74.8074C61.4558 74.8248 60.9285 75.7193 61.3698 75.5701C61.4085 75.5576 61.6568 74.9022 61.9263 75.0069C61.996 75.0343 62.4763 76.4083 62.7024 76.576C63.4754 77.1396 65.8727 77.2411 66.9117 77.6918C67.0741 77.76 67.0042 78.1748 67.1694 78.2519C67.2543 78.2921 67.5567 77.9367 67.5826 77.9501C67.6953 78.0145 67.4298 80.0919 68.7812 76.3378C69.215 76.7926 68.5539 77.9441 68.2362 78.7387C68.7778 79.0981 69.7691 77.4772 69.1634 79.3793C71.5546 80.1604 73.9553 80.9273 76.3699 81.6799C77.5883 82.1148 78.7093 82.4569 79.697 82.7296C79.5983 83.0384 79.4995 83.3473 79.4008 83.6562C81.2937 82.9038 81.1007 85.1171 82.3879 83.5284C82.7316 84.0548 83.0714 84.5757 83.4057 85.0915C94.303 86.4498 100.628 88.8007 107.935 90.3551C108.234 90.4165 108.447 89.7557 108.947 89.8541C109.487 89.961 110.096 90.9078 110.802 91.0487C111.432 91.1754 112.482 90.7346 113.198 90.7881C113.358 90.801 113.376 91.2526 113.394 91.2541C113.501 91.2602 113.656 90.5859 113.76 90.589C113.885 90.5943 113.919 91.1269 114.064 91.127C114.154 91.1278 114.243 91.1366 114.33 91.1507C114.842 91.5669 117.008 91.3287 117.564 91.6832C118.049 91.7081 118.471 91.8755 118.531 91.8718C118.879 91.8431 119.022 91.1779 119.054 91.1738C119.452 91.1333 119.24 91.7249 119.341 91.7C119.861 91.5676 120.356 90.0874 120.888 91.6166C120.93 91.0522 120.973 90.4877 121.015 89.9233C121.567 89.6629 121.063 91.1203 121.14 91.4024C121.168 91.5068 122.307 91.446 122.394 91.4287C122.702 91.3645 122.79 90.618 122.817 90.6107C122.874 90.5924 123.554 91.5253 123.999 90.9142C124.54 90.1915 124.17 88.6121 124.316 88.3392C124.335 88.2924 124.808 88.5024 124.923 88.0335C125.052 87.5295 124.633 87.4942 124.662 87.2802C124.685 87.1335 125.492 86.1546 125.438 85.4296C125.413 84.7057 124.37 85.5151 124.214 85.159C124.188 85.0999 124.346 84.2274 124.321 84.192C124.216 84.0603 122.054 83.7977 121.95 83.9333C122.018 84.3459 122.086 84.7585 122.153 85.171C122.001 85.1955 121.849 85.22 121.696 85.2443C121.873 85.5883 122.046 85.9318 122.221 86.2756C121.557 89.5401 120.967 86.0939 121.1 84.443C121.165 83.6799 121.967 81.7851 121.54 80.5851C121.645 80.3987 121.75 80.2124 121.854 80.026C121.992 80.3655 122.127 80.705 122.261 81.0442C122.127 81.2344 121.992 81.4246 121.857 81.6146C121.874 81.848 121.891 82.0814 121.908 82.3148C122.189 82.7166 122.448 83.116 122.736 83.5188C122.919 83.3676 122.959 82.6882 123.085 82.5698C124.651 81.0757 123.521 83.071 124.469 82.8695C124.639 82.5211 124.808 82.1725 124.977 81.8239C124.762 83.3188 125.279 82.4223 125.695 83.1236C125.691 82.6316 125.687 82.1396 125.682 81.6476C126.351 81.9831 128.073 79.6977 127.383 82.3328C127.574 82.1226 127.764 81.9122 127.952 81.7016C128.04 82.155 128.126 82.6083 128.211 83.0615C128.407 83.0327 128.608 83.0044 128.802 82.9756C128.83 82.7385 128.858 82.5015 128.885 82.2645C128.734 82.246 128.582 82.2274 128.428 82.2086C128.625 81.499 128.821 80.7895 129.017 80.0798C129.116 80.2124 129.214 80.345 129.311 80.4775C128.769 81.1083 129.254 82.2936 129.295 83.2645C129.658 83.6626 130.047 82.4527 130.184 82.4117C130.244 82.3917 130.74 84.661 130.724 82.2274C131.065 82.5616 131.415 82.8971 131.758 83.2317C131.924 83.0642 132.093 82.8971 132.265 82.7304C132.069 81.5751 133.165 80.3362 132.525 79.7929C132.051 79.3862 131.809 80.4176 131.562 80.3819C131.337 80.351 131.312 79.6349 131.076 79.5761C129.493 79.1948 128.172 79.1767 126.616 79.3191C126.308 79.3483 126.08 78.9734 125.87 78.9991C125.635 79.0294 125.825 79.9447 125.555 79.6973C125.267 79.4354 125.291 78.7083 125.211 78.6848C125.162 78.6712 124.934 79.3025 124.787 79.2864C124.175 79.2189 123.381 78.4976 123.287 78.4911C123.186 78.4872 121.418 78.8883 121.335 78.9873C121.286 79.0407 121.118 81.4463 121.019 78.8518C120.907 78.7918 120.795 78.7317 120.682 78.6716C120.65 79.1524 120.617 79.6332 120.585 80.114C120.073 78.2234 120.22 79.2661 119.566 79.0522C119.366 78.9865 119.15 78.9315 118.92 78.8847C118.615 78.6904 117.428 78.821 117.148 78.5929C115.718 78.1153 113.77 77.99 112.345 77.5408C111.979 77.4244 111.96 76.8314 111.523 76.6986C111.113 76.5761 109.703 78.0443 110.409 75.7565C109.073 77.5905 109.641 74.076 108.735 76.1576C108.742 75.8298 108.749 75.502 108.756 75.1741C107.98 76.4321 108.074 75.2094 107.549 74.9347C107.325 74.8163 107.314 76.3159 107.152 74.612C107.037 74.7139 106.922 74.8159 106.808 74.918C106.76 75.272 106.713 75.6261 106.666 75.9801C106.194 75.5907 106.117 75.7652 106.436 74.4677C106.13 74.6555 105.826 74.8438 105.523 75.0325C105.574 74.5964 105.626 74.1602 105.677 73.7241C105.974 72.9234 111.553 75.3159 112.258 75.8834C113.407 75.1088 115.026 76.7227 115.831 76.6592C116.157 76.6336 116.497 75.6942 116.964 75.6755C117.234 75.6646 117.469 75.9977 117.663 76.2959C117.901 76.4896 118.909 76.3788 119.169 76.5437C119.341 76.7427 119.487 76.9255 119.59 76.95C120.384 77.1456 124.302 77.3703 121.787 75.8593C121.914 75.3872 122.04 74.9151 122.166 74.443C123.054 76.1963 122.766 75.1448 123.66 75.0708C124.043 75.0393 124.78 76.2048 124.978 74.0201C124.348 73.5402 123.533 74.1566 122.957 74.0625C122.903 74.0532 122.292 72.9799 121.913 73.2129C121.562 73.425 121.567 75.5284 121.101 73.1174C120.331 75.3414 120.254 73.241 120.136 73.006C119.935 72.599 119.789 73.7216 119.531 73.8268C119.504 73.838 119.479 73.841 119.455 73.8375C119.249 73.7064 118.448 73.7945 118.259 73.6405C118.047 73.5831 118.036 72.9505 118.006 72.9392C117.666 72.8444 115.89 72.3509 115.714 72.7808C115.743 72.9925 115.772 73.2042 115.802 73.416C115.27 73.6314 115.611 72.5213 115.519 72.3596C115.425 72.3438 115.332 72.3281 115.239 72.3125C115.226 72.5551 115.212 72.7976 115.198 73.0401C114.655 72.8717 115.251 72.1458 114.464 72.0008C113.968 71.9106 113.256 72.6979 113.224 72.622C113.214 72.5999 113.497 72.028 113.311 71.9044C113.004 71.7011 112.417 71.5958 112.181 72.4054C112.039 72.2547 112.219 71.4521 112.201 71.4292C112.124 71.3305 110.52 70.7186 110.236 70.613C109.434 70.3156 108.48 70.3054 107.615 69.9952C107.526 69.9637 107.483 70.4931 107.393 70.4582C107.248 70.4021 106.642 69.4407 106.541 69.3616C106.285 69.166 105.466 69.3428 105.396 69.0851C105.386 69.0485 105.767 68.3952 105.521 68.1227C105.248 67.8212 105.239 68.7965 105.22 68.8025C104.495 68.9977 104.219 68.2664 103.788 68.053C103.649 67.9846 103.245 68.6428 103.081 68.3944C103.062 68.3661 103.233 67.7195 103.216 67.6828C102.976 67.2809 102.448 68.4411 102.299 68.4944C101.932 68.6244 102.282 67.7607 102.266 67.751C102.051 67.6804 101.702 67.9497 101.369 67.8421C99.9118 67.3672 98.7 67.0806 97.0714 66.8239C96.8652 66.791 96.4995 67.3759 96.4682 67.3706C96.3733 67.3469 96.5469 66.6091 96.2683 66.5712C95.6663 66.4913 95.1336 66.3466 94.5391 66.2392C94.4207 66.218 94.2285 66.895 94.1357 66.8912C93.8156 66.8706 93.1658 64.8535 92.6609 67.0833C92.4791 64.9729 91.6944 66.5857 91.1984 66.4529C90.0239 66.1434 88.2071 65.2683 86.846 65.1364C86.5636 65.112 86.2558 65.6308 86.092 65.6138C85.8179 65.6008 84.2446 64.7275 84.1229 64.7705C83.9038 64.8695 83.144 67.1371 82.9535 65.139C82.9564 65.0583 82.9608 64.9702 82.967 64.8742C82.6287 64.567 82.284 65.5695 82.1807 65.5898C81.3896 65.732 81.6444 63.2866 80.9544 65.3434C80.4316 64.4993 80.4072 63.1979 79.3399 64.9501C79.7149 64.0358 79.5892 63.3452 79.0315 63.5244C78.831 65.235 78.3826 66.1988 79.5375 66.3387C79.5557 66.3408 79.7922 65.6656 79.8104 65.6677C79.9757 65.6825 80.1578 66.1451 80.4224 66.2097C80.6896 66.2753 80.7316 65.7657 80.8293 65.8151C80.9185 65.8614 80.6604 66.4947 80.7919 66.558C81.2243 66.7604 81.5343 67.0872 81.7816 67.1989C81.8796 67.2428 82.0752 67.0642 82.237 66.9391C82.3578 66.8768 82.4644 66.8313 82.5305 66.857C83.2466 67.1486 84.479 68.0657 85.2827 68.2376C85.4516 68.2729 85.5792 67.6079 85.9502 67.6602C85.992 67.6657 85.9384 68.3836 86.2043 68.6116C86.4718 68.8398 86.7989 68.5681 86.9673 68.6896C87.11 68.7913 86.8791 69.3763 87.199 69.5024C87.4923 69.6283 90.5358 69.9004 90.6843 69.8212C90.9366 69.7309 91.2326 68.8982 91.3437 69.0324C91.3623 69.0601 91.2189 69.896 91.2888 69.9736C92.433 71.2577 95.5427 70.7063 96.9664 70.9869C99.9738 71.5822 102.583 72.5737 105.46 73.3303C105.484 73.4851 105.509 73.64 105.533 73.7948C105.235 73.7429 104.938 73.6914 104.643 73.6405C104.566 74.0316 104.489 74.4228 104.412 74.8139C104.004 74.7999 104.235 73.8841 104.353 73.3274C104.159 73.536 103.964 73.7445 103.77 73.9533C103.903 72.5641 102.741 73.2831 102.229 73.1836C101.901 73.1212 101.595 72.524 101.412 72.5311C101.023 72.5438 100.874 73.3881 100.842 73.3959C100.792 73.4062 100.404 72.5631 100.022 72.5202C99.4622 72.4561 99.1436 73.7355 98.588 72.4913C97.4637 72.9717 96.4331 72.4232 95.353 72.0954C95.3286 73.3311 94.5603 72.0048 94.1151 71.9336C91.3452 71.4858 87.7951 71.2925 84.0671 70.6291C83.5792 70.5385 82.9978 71.0993 82.7238 70.9803C82.5747 70.9161 82.787 70.0955 82.5422 70.1274C82.4973 70.1339 82.2123 70.8731 81.7672 70.8368C81.5015 70.8132 81.18 70.6729 80.8279 70.4794C80.1401 70.0302 79.3233 69.1573 78.5816 70.1128C76.4812 69.0135 74.3947 67.9023 72.3215 66.781C72.1423 67.056 71.9631 67.331 71.784 67.606C72.0131 65.9139 70.0133 66.1241 69.2567 65.7179C67.9241 65.0023 66.3646 63.7748 65.2067 63.216C64.9503 63.0926 64.5611 63.4348 64.3212 63.3214C64.2203 63.2729 64.3339 62.6612 64.225 62.6111C63.7871 62.4045 63.2491 62.2573 62.7291 62.1483C62.4617 62.0908 62.2134 62.049 61.9914 62.0173C61.7866 61.992 61.5641 61.9631 61.6491 62.0403C62.4719 62.3631 62.5325 62.3743 62.5717 62.4069C62.588 62.4272 62.4814 62.4095 62.3675 62.381C59.2939 61.6851 54.8425 60.4969 51.0938 58.7781C41.8678 54.627 34.7215 48.0682 28.9596 41.3196C26.8381 38.8227 24.7142 36.315 22.5311 33.7511C22.4335 33.6364 21.8935 34.0785 21.8156 33.9883C21.3455 33.4549 20.8322 31.8623 20.3236 31.2426C19.9115 30.7434 18.4356 30.5471 19.1702 29.7315C21.8528 30.63 23.1869 32.529 24.9814 34.0124C25.1096 34.1189 25.6365 33.7153 25.6586 33.7232C26.0703 33.8624 25.2137 34.2587 25.5191 34.6955C25.6267 34.851 28.2916 34.7422 26.5534 35.948C27.447 35.7091 29.5485 37.5254 29.6761 38.0915C29.7169 38.2683 29.1709 38.592 29.1679 38.6367C29.1549 38.8321 29.846 38.3147 29.9444 38.3938C30.1997 38.6063 30.2185 39.6872 30.3309 39.807C30.3706 39.8503 30.4359 39.896 30.5186 39.9443C30.9981 40.25 31.981 40.629 32.1846 41.0506C32.4112 41.5149 31.6966 42.0676 31.939 42.4441C32.1323 42.7375 32.422 41.9481 33.1146 42.3376C33.4449 42.5229 34.0148 43.8611 34.2481 44.0843C34.4806 44.311 35.1093 44.17 35.4114 44.5125C35.839 45.0018 36.6815 46.1728 37.0762 46.741C37.0995 46.7742 36.7134 47.3659 36.7977 47.4195C36.971 47.5306 37.489 46.8361 37.6607 46.868C37.8298 46.915 39.8248 48.6911 40.2028 48.9519C40.4507 49.1375 40.3127 49.6791 40.4588 49.784C40.5733 49.8643 41.0179 49.298 41.1347 49.3755C41.1687 49.401 41.0924 50.1247 41.3991 50.3301C41.6799 50.5219 43.1293 50.8138 43.2503 50.8853C43.3339 50.9394 42.9529 51.2992 43.2064 51.4566C43.4434 51.6019 43.9614 51.1487 44.0948 51.2255C44.4057 51.4056 44.423 52.0922 44.7505 52.3034C45.6907 52.9044 46.0651 52.1591 46.1354 52.1728C46.3268 52.2022 45.9981 52.8838 46.0422 52.9285C46.2321 53.1175 46.7044 53.5563 46.8862 53.6936C47.1137 53.8662 47.5674 53.3002 47.8347 53.4471C48.0306 53.5572 48.0936 54.3902 48.5286 54.6597C49.5379 55.2884 50.7116 56.0092 51.803 56.4665C52.1213 56.6006 52.4259 56.0195 52.5328 56.0478C53.0807 56.1886 53.0788 56.978 53.2288 57.0301C54.3182 57.4196 56.5992 57.0332 57.6011 57.2463C57.9936 57.3402 59.6161 58.3837 60.6228 58.5376C60.74 58.5577 60.7616 58.0339 60.8674 58.144C61.1161 58.4062 60.8318 59.4104 60.987 59.4168C61.0576 59.4154 61.3734 58.8877 61.5906 58.8802C62.7142 58.838 63.2376 59.4222 63.3323 59.4166C63.3597 59.4018 63.3778 59.4178 62.7085 59.1647C65.0959 59.8283 69.5093 61.4969 72.6847 62.7273C73.0771 62.8818 73.3181 63.6565 74.1434 63.3478C74.2862 63.0561 74.4291 62.7643 74.5719 62.4725C74.4695 62.7751 74.3672 63.0777 74.265 63.3803C74.8662 63.818 74.9588 64.3006 75.8 64.2096C75.8713 64.2023 76.6146 62.9077 76.0242 64.6531C77.2131 63.7026 76.3268 64.7897 76.7816 65.1108C77.2418 65.4339 77.8801 65.2515 78.4078 65.3667C78.925 64.8663 78.3725 63.0001 78.3033 62.9766C78.1848 62.9345 77.7132 63.7291 77.5815 63.7275C77.1891 63.7236 77.1477 62.922 76.7585 63.644C76.652 62.667 77.0295 63.2889 77.2714 62.5481C76.8569 62.725 76.4493 62.9045 76.0378 63.082C76.899 60.579 73.9886 63.1004 74.8752 61.2894C74.5919 61.6077 74.3093 61.9261 74.0272 62.2448C74.4537 59.6864 73.4414 61.1895 72.4066 61.5681C72.5853 61.2931 72.764 61.0181 72.9429 60.7431C72.9778 60.6117 72.5361 59.8646 72.2303 61.2285C72.2638 59.275 71.1229 62.0653 71.3745 59.8046C71.1354 59.3991 70.8448 60.6512 70.2228 60.3624C69.8512 60.1907 69.6467 59.3837 69.2476 59.1625C69.1556 59.1138 68.8279 59.7706 68.7397 59.7329C68.653 59.6954 68.894 59.0169 68.7976 58.9558C68.6021 58.8297 68.1231 59.173 68.0097 59.0714C67.9084 58.9827 67.9869 58.3267 67.7391 58.1118C66.8781 57.3583 66.8276 58.3217 66.5466 58.5344C66.2474 58.7603 66.6026 57.615 66.2106 57.5974C66.1719 57.5966 65.9644 58.3162 65.8687 58.2435C65.7941 58.1867 66.0619 57.4225 65.8354 57.1619C65.7371 57.0516 64.0471 56.1495 63.963 56.1101C63.9225 56.09 63.8573 56.0859 63.8326 56.1135C64.3822 56.3843 64.1242 56.4437 63.9031 56.5344C63.6696 56.6151 63.3531 56.6586 63.1538 56.6102C62.9581 56.5646 62.9139 55.8884 62.687 55.8389C61.9805 55.6881 60.7514 55.432 59.7875 55.1797C58.9335 54.9679 56.9415 55.8116 56.8885 54.4133C55.7613 53.826 55.0676 54.7249 54.9692 54.7049C54.7086 54.6455 54.8578 53.9169 54.5748 53.7632C50.7915 51.7892 45.8138 49.3848 42.7459 46.9515C39.1473 44.152 36.0049 40.9654 33.157 37.6168C30.6007 34.5965 28.0668 31.5508 25.4647 28.4244C25.7077 28.2086 25.9508 27.9929 26.1941 27.7773C26.9428 28.4069 28.0856 28.9452 28.7675 29.5868C29.6752 30.4477 29.8159 32.7344 32.098 32.0007C32.0189 31.6055 30.9726 31.6783 31.8578 30.9599C32.3442 31.4162 32.8169 31.8508 33.3073 32.3016C32.894 32.6282 32.4806 32.9547 32.0672 33.2811C32.386 33.8924 32.938 34.3589 33.326 34.9211C33.3951 35.0196 32.9785 35.2688 33.0453 35.3493C33.1208 35.4389 33.4358 35.0599 33.4531 35.0739C33.6511 35.2943 33.3394 35.6852 33.3673 35.7065C33.4416 35.7621 33.7479 35.4009 34.019 35.5116C34.5232 35.7157 33.8252 36.8053 35.3043 35.3483C35.3659 35.4183 35.4277 35.4885 35.4898 35.5589C35.5364 35.6117 35.5829 35.6643 35.6295 35.7168C35.2366 36.1242 34.8444 36.5323 34.4528 36.9412C36.8464 36.2007 34.226 39.2462 36.9491 37.5126C36.7283 37.984 36.5102 38.4571 36.295 38.9319C36.7772 38.6191 37.2574 38.304 37.7358 37.9867C37.4027 38.3388 37.0699 38.6913 36.7375 39.044C37.7159 39.5383 38.0874 40.7167 38.8744 41.3753C39.4145 41.8245 39.6571 41.7862 40.1026 42.2341C41.0805 43.2061 40.6997 41.5954 42.2179 41.5391C41.7878 41.9524 41.3564 42.3645 40.9237 42.7754C40.922 43.0615 40.9274 43.3525 40.9353 43.6444C41.3516 43.3624 41.7654 43.0776 42.1766 42.7902C41.0214 45.0984 42.609 43.7728 42.6682 43.8207C42.7131 43.8618 41.9532 45.1957 43.2956 44.6194C41.795 46.0716 43.7103 44.9569 43.7647 44.9812C43.8196 45.014 44.1916 45.8719 44.467 46.0469C44.6789 46.1841 45.3932 46.1493 45.6931 46.3845C45.9585 46.593 45.5321 47.1506 45.5484 47.1708C45.8602 47.4557 45.9507 46.8566 46.2151 47.0042C46.484 47.1542 46.3504 47.7828 46.4357 47.7751C46.4789 47.7696 46.7478 47.1636 46.908 47.1938C47.3343 47.2698 47.6422 48.1468 48.0522 48.3786C48.1959 48.4612 48.6604 48.0949 48.822 48.1724C49.074 48.296 48.8148 48.9984 48.9688 49.0637C49.0251 49.0856 49.9113 48.2869 50.2039 48.6531C50.2555 48.7226 49.3228 50.9615 51.2584 48.1318C51.0497 48.5648 50.8415 48.9982 50.634 49.4319C51.437 51.2166 53.5444 47.8932 52.6397 51.303C53.8075 51.4286 53.6882 49.8802 53.8886 49.7468C54.0112 49.6605 54.1826 50.148 54.2267 50.1446C54.307 50.1358 54.4755 49.737 54.5426 49.7701C55.7532 50.397 54.8861 50.9023 55.0886 51.5541C55.6086 53.1059 57.3928 50.8738 55.3938 50.9424C55.4877 50.72 55.5816 50.4975 55.6754 50.2751C55.9823 50.6596 57.0895 50.9769 57.183 49.6976C57.2533 48.7071 54.6714 48.2742 56.5349 47.6065C56.9527 47.4515 56.7529 48.3523 57.9129 46.988C58.2822 47.0356 57.5209 49.1025 58.3205 48.4609C57.9719 49.1502 57.6189 49.8375 57.2612 50.5228C57.5995 51.7255 58.8926 50.7562 59.277 51.3343C59.4025 51.5317 58.9614 55.2313 59.9043 51.6907C60.1578 52.0156 61.7526 51.773 61.9391 52.1561C61.9754 52.2464 61.5797 54.1643 62.6777 53.7355C62.8016 53.5144 62.9236 53.2927 63.0438 53.0705C62.3804 52.1786 63.9998 51.8289 64.0365 49.9351C63.7296 50.7173 62.9546 51.0489 62.7499 51.4271C62.3875 52.0769 62.7161 53.1188 62.0651 52.6902C62.4213 49.5904 63.2869 51.2811 63.8032 48.383C64.3261 49.9221 64.7213 48.6676 64.9111 48.6569C65.6088 48.6297 66.107 48.9299 66.4846 48.9153C66.578 48.9218 66.7019 48.9286 66.8272 48.9191C66.8077 49.1699 66.5368 49.3653 66.2632 49.5163C66.053 49.8136 65.4347 49.9248 65.3935 49.755C65.4541 51.9654 64.4908 51.8366 64.2809 50.4861C64.0952 51.1058 63.9083 51.7252 63.7199 52.3443C64.3872 52.1418 65.1404 52.1273 65.1932 52.6956C65.2662 52.4654 65.3403 52.2356 65.4114 52.0048C65.517 51.6566 65.5358 51.2834 65.5245 50.9054C65.7354 50.7131 65.7158 50.8756 65.6884 51.0454C65.6577 51.2142 65.6293 51.3969 65.6451 51.1938C65.7135 51.116 65.8547 50.9682 66.0696 50.7028C65.8209 51.3864 65.5708 52.0694 65.3195 52.7519C65.8826 52.7148 66.5702 52.7436 67.2266 52.7603C66.9532 54.228 68.2746 54.204 68.8177 52.3828C69.3152 52.4514 68.3663 53.1373 68.607 53.7406C68.7187 54.0055 69.046 54.2072 69.3419 53.7814C70.0079 52.1109 69.5645 51.6775 69.884 50.4712C70.14 50.1478 72.141 52.4043 72.7495 50.3772C73.0523 50.232 72.528 51.1857 72.7818 51.596C73.5003 52.7447 75.8982 51.4378 75.6756 54.2583C74.1326 55.2295 74.4588 53.6478 73.7509 53.278C73.2942 53.0404 70.5324 51.5785 70.4214 53.5989C70.4111 53.3317 70.4046 53.0661 70.3946 52.7991C70.0628 53.2723 69.7325 53.7461 69.4038 54.2205C69.6737 54.4251 69.9341 54.6256 70.2087 54.8321C70.5027 54.3442 70.7947 53.8554 71.0884 53.3673C70.9624 53.7517 70.8365 54.136 70.7108 54.5205C70.8044 54.6477 70.9062 54.7784 70.9972 54.9044C71.1526 54.4441 71.3099 53.9846 71.4639 53.5237C71.6889 53.53 71.9142 53.5364 72.1451 53.5451C71.8373 54.1173 71.5297 54.6896 71.2222 55.2619C72.0745 55.8034 71.9336 55.3022 72.9103 54.4031C73.3397 54.4514 72.2072 55.3212 72.8925 55.9562C73.6898 56.6934 73.8417 54.6104 74.8939 55.5145C74.7857 55.8193 74.6776 56.1241 74.5695 56.429C74.9625 56.2444 75.3584 56.0608 75.7486 55.8746C75.5577 56.2299 75.3667 56.5851 75.1758 56.9404C75.7914 57.0307 76.2608 58.0574 77.0486 56.6794C76.1962 57.1453 77.2606 54.6093 77.6023 54.2043C78.3003 53.3772 82.3618 56.098 83.2032 56.5054C84.2054 56.999 85.2749 56.6079 85.8336 57.9029C85.8781 57.9978 85.9211 58.1014 85.9627 58.2148C85.8683 58.2759 85.7658 58.319 85.657 58.3466C84.5132 58.6872 82.7184 57.1992 82.0324 57.6802C81.9593 57.7318 81.0208 60.0717 81.8012 57.327C80.6824 57.3909 79.8716 56.1896 78.6767 55.7832C78.4342 56.4683 78.1919 57.1535 77.9497 57.8388C79.257 56.71 78.6334 60.119 79.6116 57.4727C79.7532 57.531 79.8957 57.5896 80.0391 57.6484C79.8547 58.0978 79.6702 58.5471 79.4857 58.9964C79.7033 59.0857 79.9197 59.1744 80.1343 59.2621C80.3181 58.8126 80.502 58.363 80.6859 57.9134C80.8638 57.9862 81.043 58.0594 81.2235 58.133C81.0595 58.5891 80.8956 59.0453 80.7316 59.5014C81.6394 58.7863 82.4703 62.022 82.7446 59.0137C82.9989 59.1163 83.2486 59.2169 83.5001 59.318C83.3668 59.6472 83.2336 59.9764 83.1003 60.3056C83.191 60.3935 83.282 60.4814 83.3735 60.5695C83.4572 60.2568 83.541 59.944 83.6249 59.6313C83.9131 60.3676 85.0032 58.9805 84.9231 60.1456C84.6158 60.2847 84.3097 60.4241 84.0047 60.5637C84.2623 60.4472 84.4863 60.6149 84.6639 60.8416C84.9444 61.1507 85.16 61.5475 85.2076 61.5665C85.4585 61.6634 85.8295 61.0334 86.1096 61.0914C86.3623 61.1449 86.1486 61.6544 86.2005 61.6515C87.683 61.5435 88.0169 58.509 87.6005 62.0791C87.8 61.6346 87.9969 61.1891 88.1926 60.7432C88.1597 61.1534 88.1292 61.5639 88.101 61.975C88.4874 62.0463 88.8516 62.107 89.2308 62.1684C88.9533 62.7193 88.673 63.2691 88.3897 63.8175C88.8904 64.2323 89.444 63.1232 89.5042 63.1104C89.6711 63.0806 89.5532 63.8343 89.6002 63.8477C91.846 64.3323 90.6513 63.3508 92.3798 60.8262C92.5033 62.0031 91.8794 63.0122 91.5632 64.1083C92.1937 63.7044 92.2901 64.0493 92.8409 64.1057C92.9839 64.1195 93.2647 63.5515 93.3546 63.5624C93.4309 63.5715 93.5402 64.2631 93.7176 64.3035C94.0153 64.3718 94.5141 64.0787 94.9165 64.1714C95.2575 64.2522 96.2216 64.9181 96.9456 65.0653C97.2562 65.1265 97.2898 64.5762 97.3704 64.5909C97.4024 64.5972 97.5258 65.2883 97.7193 65.3286C99.3368 65.6588 101.06 65.5635 102.663 65.8803C103.796 66.1027 104.839 66.8367 105.975 67.0007C106.216 67.0347 106.18 66.5386 106.288 66.542C106.325 66.5448 106.209 67.376 106.645 67.1169C106.803 67.0236 106.759 66.418 106.897 66.415C106.965 66.4141 106.851 67.1403 107.19 67.3769C107.809 67.8087 108.365 66.9196 108.417 66.9596C108.52 67.0371 108.37 67.6275 108.516 67.6784C109.237 67.9288 109.825 68.1506 110.477 68.3332C110.777 68.4168 112.86 68.9664 112.999 68.8847C113.308 68.7005 113.323 67.4068 113.649 67.5184C113.676 67.8523 113.703 68.1862 113.73 68.5202C113.533 68.7286 113.339 68.9379 113.139 69.146C113.629 68.8303 113.967 69.491 114.274 69.5331C114.331 69.54 114.961 69.0842 115.206 69.2008C115.146 68.9439 115.085 68.6871 115.024 68.4303C115.105 68.2394 115.187 68.0485 115.268 67.8577C115.721 68.2691 116.286 68.3819 116.822 68.4533C117.017 68.4804 117.057 67.983 117.256 68.0089C118.427 68.158 117.675 70.0979 119.617 66.5762C119.166 66.833 117.924 66.0568 117.696 66.1392C117.537 66.1967 116.32 69.27 117.221 66.0406C116.122 65.8188 116.685 67.8277 115.746 67.2144C115.851 66.8192 115.957 66.424 116.062 66.0288C115.757 65.7005 115.54 65.4438 115.17 66.1024C115.501 64.1466 114.048 65.0268 113.399 64.7579C112.474 64.3742 111.466 63.6778 110.519 63.4034C110.196 63.31 109.853 64.034 109.813 64.0235C109.753 64.0059 109.712 63.3047 109.591 63.276C109.144 63.1677 107.541 64.0275 107.554 62.107C110.263 62.6297 112.966 63.1678 115.665 63.7364C115.141 64.5727 117.834 65.2398 117.981 65.2273C118.117 65.2146 118.149 64.5544 118.195 64.524C118.538 64.3127 118.581 65.2897 118.668 65.3088C118.736 65.3235 118.968 64.9206 119.208 64.9838C119.252 64.9949 119.163 65.4555 119.211 65.4674C119.49 65.5295 119.77 65.5864 120.052 65.6502C120.094 65.6845 120.272 65.6649 120.318 65.6941C120.356 65.6982 120.394 65.7023 120.432 65.7066C120.453 65.7043 120.608 65.032 120.692 65.0396C120.775 65.0485 120.785 65.7377 120.805 65.742C121.068 65.7651 121.556 65.3695 121.801 65.3907C121.888 65.4002 121.774 65.8925 121.872 65.8981C122.173 65.9181 122.18 64.9314 122.519 65.222C122.632 65.3198 122.544 66.0655 122.787 65.992C122.958 65.9396 123.084 64.6073 123.115 64.5618C123.15 64.5065 123.625 65.6205 123.904 64.7698C123.743 62.4269 124.364 64.6983 124.215 65.6635C124.461 65.443 124.725 65.2246 124.979 65.0051C125.03 65.2592 125.081 65.5133 125.131 65.7673C126.161 64.76 126.643 65.4854 127.593 65.2458C127.638 65.2336 128.453 64.7715 128.46 64.4226C128.062 63.7768 127.627 63.7012 127.207 64.7666C126.951 62.6182 126.776 64.2885 126.022 63.9245C125.767 63.8012 125.819 63.2318 125.789 63.2211C124.814 62.8283 123.221 62.4087 122.368 63.9987C122.225 63.5287 122.931 63.424 122.699 63.0643C122.622 62.9499 121.455 62.6007 120.634 62.7179L120.707 62.73C120.108 62.7472 119.686 63.0376 119.971 63.9325C119.869 63.855 119.767 63.7777 119.665 63.7004C119.945 61.9001 119.29 62.1814 118.966 63.9643C118.992 63.5907 119.019 63.2171 119.044 62.8432C119.005 62.5135 118.914 62.3217 118.759 62.1857C118.172 61.6633 114.014 61.4343 113.854 61.1411C113.935 60.7193 114.017 60.2975 114.098 59.8757C115.981 59.7651 117.485 61.1729 119.689 60.3978C119.547 60.7792 119.403 61.1599 119.26 61.5411C119.889 61.2722 120.515 61.0043 121.154 60.7404L120.848 60.6901C121.103 60.5491 121.355 60.4079 121.606 60.2665C121.418 60.064 121.197 59.8653 120.955 59.6886L121.374 59.7577C120.709 59.1441 119.865 58.7194 119.115 59.018C118.939 59.0893 118.932 59.6628 118.883 59.7216C118.753 59.8745 118.861 58.9002 118.551 58.7365C118.238 58.5719 117.258 59.0697 117.188 59.0352C117.052 58.9652 116.883 57.7897 116.628 57.7505C116.293 57.7003 116.373 58.4224 116.304 58.4228C116.016 58.4319 115.842 58.0462 115.619 58.0521C115.282 58.0596 114.377 59.1128 114.514 57.3215C114.757 57.288 115 57.2549 115.245 57.2222C114.142 56.3425 112.722 58.3807 111.852 56.4164C111.996 54.2445 112.943 54.7298 112.274 53.6578C112.422 53.7186 112.57 53.7795 112.719 53.8406C112.667 54.2912 112.615 54.7417 112.563 55.1922C112.892 54.9285 113.228 54.6665 113.556 54.4031C113.401 54.7829 113.246 55.1628 113.09 55.5423C113.969 56.0283 114.843 56.6288 115.608 54.5753C115.522 55.0922 115.436 55.6091 115.35 56.126C116.364 55.6839 117.219 58.1324 117.577 55.2304C117.587 55.3903 117.597 55.5504 117.606 55.7101C118.258 55.2392 117.783 56.3702 117.953 56.5455C118 56.5942 119.168 56.2084 118.889 55.264C120.041 54.8355 119.15 57.4296 119.402 57.6064C120.337 56.4284 121.055 58.6604 121.03 56.4715C121.143 56.4146 121.256 56.3578 121.37 56.301C121.333 57.618 121.754 56.8582 122.174 56.1941L121.339 56.0567C121.44 55.8469 121.54 55.6453 121.635 55.5095C121.757 55.4843 121.878 55.4591 121.999 55.4338C122.018 56.0033 122.036 56.5727 122.054 57.1421C123.417 54.5865 122.307 61.8551 123.462 55.7722C123.424 55.3968 123.385 55.0213 123.345 54.6458C123.179 54.4515 123.002 54.2561 122.843 54.0626C123.616 53.9814 124.364 53.8981 125.138 53.8181C126.264 52.2002 126.596 54.1242 127.81 52.8811C127.891 53.0552 127.97 53.2292 128.049 53.4032C128.103 52.0031 127.702 52.1655 128.476 51.6199C128.641 50.644 128.184 50.465 127.88 51.1941C127.807 51.3722 128.174 52.174 127.665 52.145C127.318 52.1261 128.071 51.0139 126.993 51.3383C127.056 51.1024 127.12 50.8665 127.184 50.6306C127.073 50.6256 126.962 50.6204 126.85 50.6153C126.69 51.1599 126.53 51.7044 126.37 52.249C126.201 51.4189 126.172 50.2781 125.571 50.455C125.69 50.8199 125.357 51.9123 125.069 51.8621C125.112 51.4601 125.156 51.0582 125.199 50.6562C124.517 50.321 124.641 51.5274 124.16 50.5443C124.068 50.8577 123.975 51.1711 123.882 51.4844C123.7 50.1324 122.638 49.1129 122.638 51.1101C122.569 50.0024 122.286 49.7773 121.974 50.0645L123.493 50.3145C123.227 50.5041 122.914 50.9899 122.657 51.6174C122.725 51.2211 122.792 50.8248 122.859 50.4285C122.739 50.3183 122.619 50.2083 122.5 50.0984C122.37 50.3186 122.242 50.5388 122.113 50.7591C122.069 50.5006 122.024 50.2422 121.98 49.9837C121.835 50.3645 121.688 50.7447 121.543 51.1254C121.489 50.6192 121.435 50.113 121.381 49.607C121.216 49.9001 121.052 50.1934 120.888 50.4868C121.057 49.6633 120.149 49.2756 119.766 49.7582C119.737 49.5025 119.709 49.2467 119.681 48.991C119.559 49.3741 119.437 49.7572 119.316 50.1403C119.324 49.8148 119.332 49.4893 119.34 49.1638C119.138 49.4482 118.938 49.7331 118.737 50.0178C118.585 47.9813 118.214 49.6621 118.091 49.6238C117.863 49.5528 117.32 48.1859 117.171 48.2198C117.025 48.2546 116.819 48.9309 116.698 48.9738C114.719 49.6976 115.814 47.9943 115.52 47.6291C115.361 47.4308 115.097 48.0474 114.944 47.9424C114.679 47.7646 113.397 46.6236 113.293 46.6904C113.147 46.7867 112.835 49.8816 112.593 49.0205C112.9 47.3859 111.736 48.8679 112.575 46.6692C112.191 46.8014 111.801 46.9326 111.415 47.0649C111.83 45.1374 111.163 46.2993 110.718 46.102C110.083 45.8229 108.851 44.2677 108.527 46.2648C108.459 45.7787 108.392 45.2928 108.319 44.8061C107.129 45.2272 106.211 44.3747 105.172 44.1523C102.098 43.49 98.735 43.295 96.0531 43.076C95.9251 43.0662 95.7914 43.7133 95.6994 43.7066C95.1987 43.6656 94.1634 42.922 93.608 42.9107C93.4245 42.9063 93.1658 43.5015 93.1042 43.5142C92.8929 43.5602 93.1828 42.7606 93.0979 42.7602C92.9613 42.7616 92.1266 43.318 91.9496 43.3381C91.8533 43.3467 92.0042 42.6826 91.8617 42.8504C91.8494 42.8638 91.6068 43.5154 91.597 43.5247C91.5796 43.5272 91.5676 43.5241 91.5597 43.5164C91.351 43.3933 91.6899 43.01 91.5721 42.9935C90.6432 42.8668 89.7291 42.5145 88.7619 42.2771C88.5177 42.2175 87.9844 42.5298 87.7732 42.4936C87.6924 42.4783 88.0268 42.045 87.7508 41.9797C87.6562 41.9573 87.3666 42.58 87.2496 42.5803C86.7476 42.5773 87.4436 40.4803 86.3988 41.9679C85.7314 41.5681 84.7104 40.5327 84.0636 40.2494C83.9109 40.1835 83.6834 40.5275 83.5382 40.459C83.4348 40.4106 83.4931 39.7546 83.3351 39.6802C83.1788 39.6068 82.6883 40.0493 82.3856 39.8982C82.0723 39.7427 81.7928 39.2394 81.7214 39.2116C81.6325 39.174 81.2989 39.8526 81.2126 39.8058C80.9473 39.6674 80.5122 38.677 80.2004 38.457C79.8524 38.2166 79.4921 38.4607 79.3642 38.3983C79.2475 38.3374 79.359 37.6924 79.3073 37.6642C79.2272 37.6194 78.9147 38.2954 78.8115 38.2446C78.6408 38.1584 78.6393 37.6485 78.3861 37.5265C76.2882 36.5371 74.9329 35.9006 71.7097 34.7327C70.6519 34.3611 70.2276 34.2797 69.8268 34.1802C69.4865 34.1021 69.2088 34.0465 68.9951 34.0065C68.5468 33.9223 68.2393 33.8749 67.9257 33.8248C67.3263 33.7317 66.823 33.6588 66.3151 33.5776C65.2992 33.4147 64.3373 33.2378 63.34 33.002C62.9631 32.9127 62.9631 32.3477 62.3558 32.3337C62.1048 32.3253 61.8666 33.0614 61.7632 32.8526C61.7179 32.7587 61.9948 32.2214 61.9166 32.1517C61.5665 31.8458 60.8469 32.1066 60.6674 32.0002C60.5956 31.959 60.8415 31.3128 60.708 31.2293C59.7055 30.6014 58.3792 30.0052 57.3552 29.1266C56.8148 28.6677 56.1654 27.7324 55.562 27.1708C53.8953 25.6369 51.9997 23.9751 50.5713 22.2546C50.5531 22.2329 50.535 22.2113 50.5169 22.1898C47.9213 19.0919 45.8829 15.659 43.0392 13.1267C45.4115 13.5269 46.7979 15.494 48.2475 16.9533C49.5061 18.223 50.724 19.6114 51.9332 21.0533C54.1531 23.7406 56.4074 26.3942 59.0011 28.1166C60.2967 28.9885 61.9379 29.9649 63.5305 30.2489C63.6013 30.262 63.5199 30.8033 63.6895 30.8154C63.7316 30.8201 64.4643 30.0841 64.592 30.1242C63.8336 31.6639 64.8926 30.4453 65.0235 30.5371C65.1903 30.6579 65.3093 31.6134 65.9267 31.3065C66.4768 31.0246 66.5532 30.3562 66.5899 30.325C66.8134 30.1153 66.5528 31.1446 66.6363 31.2816C66.7767 31.5025 67.2684 31.651 67.9362 31.7551C68.2886 31.8121 68.6478 31.8492 69.1751 31.9215C69.4448 31.9596 69.7296 31.999 70.1715 32.0845C70.6149 32.1788 71.1394 32.2576 72.4559 32.7075C73.3449 32.9966 73.6683 33.1062 73.9545 33.2136C74.2912 33.3423 74.5527 32.7213 74.6294 32.7506C74.8167 32.8241 74.8209 33.5484 75.0981 33.6612C75.6015 33.8642 76.4039 33.5158 76.6616 33.6237C77.2915 33.8859 78.1401 35.0684 78.914 35.416C79.1321 35.5143 79.3973 34.8646 79.4952 34.9092C79.9233 35.1062 80.7306 36.3502 81.2658 36.5853C82.1354 36.9681 83.2086 36.9291 84.0064 37.514C84.1829 37.2486 84.3595 36.9832 84.5362 36.7178C84.4971 37.0576 84.4586 37.3976 84.4208 37.7378C86.0188 38.1351 87.2682 39.4139 88.7814 39.9804C88.9515 40.0446 90.0332 39.8371 90.1725 39.8905C90.2901 39.9381 90.1159 40.704 90.3351 40.6692C90.6414 40.6218 90.9626 39.1592 91.2024 39.711C91.267 39.8601 90.9268 40.4047 91.0697 40.6743C91.1105 40.7498 92.005 41.3084 92.366 41.4907C92.3838 41.5058 92.3992 41.513 92.4057 41.5076C92.4732 41.4549 92.9902 40.2024 93.0088 40.1783C93.1144 40.0546 92.7551 41.0297 92.767 41.1349C92.804 41.4505 93.2585 40.865 93.2804 40.8879C93.5367 41.1781 94.1878 42.2297 94.88 41.8989C94.973 41.8522 95.157 41.1004 95.1764 41.0794C95.3011 40.946 95.1377 41.8136 95.2183 41.855C95.6416 42.0656 96.5428 41.6695 97.0799 41.6355C97.1412 41.6326 97.172 42.074 97.2879 42.0577C97.9418 41.9584 97.8903 41.2499 97.9311 41.2292C98.0272 41.1763 98.0105 41.9404 98.2249 42.0338C98.758 42.276 99.9231 42.4061 100.576 42.4766C101.074 42.529 101.235 41.6846 101.269 41.6742C101.343 41.6574 101.397 42.3674 101.708 42.5078C102.311 42.7817 102.362 42.1038 102.617 42.183C102.639 42.1873 102.474 42.8281 102.752 42.9513C103.284 43.1881 104.673 42.7927 105.287 42.9438C105.518 43.0001 105.454 43.6362 105.693 43.6941C106.077 43.7892 107.071 43.2767 107.143 43.2921C107.162 43.2957 107.069 44.0239 107.184 44.0457C107.31 44.0695 107.505 43.7227 107.596 43.7425C108.12 43.8523 108.811 45.2859 109.043 42.6675C109.092 43.3342 109.142 44.0012 109.193 44.6683C110.345 44.7574 111.387 45.2217 112.493 45.5718C112.738 45.6494 113.045 45.2048 113.255 45.2706C113.468 45.3371 114.249 46.3273 114.405 46.3743C114.687 46.4569 116.269 46.8642 116.485 46.8496C116.894 46.8189 117.493 45.8385 117.61 46.0787C117.705 46.2719 117.463 46.8438 117.673 47.0635C118.035 47.4429 118.907 46.8262 119.037 46.866C119.091 46.8825 118.891 47.3253 119.401 47.4678C119.673 47.5451 119.931 47.0653 120.031 47.0892C120.062 47.0987 119.837 47.9176 120.413 47.9244C120.814 47.9282 121.111 47.3232 121.152 47.3294C121.213 47.3381 121.209 48.0516 121.454 48.08C122.032 48.1428 123.23 47.587 123.784 47.6489C123.87 47.6582 123.743 48.1943 123.921 48.4074L122.18 48.1209C122.227 48.1657 122.287 48.1909 122.367 48.1845C122.667 48.1602 122.686 47.4873 122.799 47.4723C122.977 47.4496 123.147 48.2942 123.524 48.3077C124.018 48.325 127.665 47.8629 127.871 47.6641C128.013 47.5305 128.159 47.5371 128.26 47.1814C128.246 46.8282 128.231 46.4749 128.216 46.1216C127.529 47.2803 127.903 45.9111 127.77 45.8059C127.581 45.6555 126.767 45.7466 126.604 45.416C126.548 45.297 126.784 44.5721 126.463 44.1512C126.118 43.7009 125.797 45.0024 125.834 43.1808C125.05 45.1229 124.759 42.9408 125.458 42.4414C125.862 42.1636 129.478 41.834 130.221 41.8051C130.806 41.7796 131.861 42.4405 132.595 42.3838C133.029 42.3493 134.077 42.3736 134.148 41.4107C134.543 41.3331 134.031 42.2419 134.096 42.3838C134.232 42.6801 135.483 42.1548 135.696 42.2058C136.778 42.4567 138.026 43.6865 139.216 42.598C139.196 42.3357 139.176 42.0733 139.156 41.811C138.984 41.3141 137.805 41.8603 137.817 40.6139C139.433 40.7998 141.033 40.9861 142.545 41.1557C142.417 42.2041 144.228 42.3873 144.324 41.9159C144.347 41.4046 144.368 40.8931 144.393 40.382C143.232 42.2097 143.571 39.6668 142.732 40.9435C142.441 40.9303 142.618 40.1006 142.497 39.9256C141.241 38.1793 142.289 41.646 141.257 40.7682C141.732 39.5899 140.865 39.0404 140.468 38.8379C140.369 38.7924 139.089 38.9572 138.935 38.9198C138.105 38.7139 136.715 37.8787 135.79 38.4483C135.099 38.4502 134.843 37.5433 134.252 37.2732C133.81 37.0692 133.872 37.6931 133.652 37.6759C133.181 37.6399 133.256 35.7702 132.669 38.3238C132.391 37.9663 132.118 37.6095 131.847 37.2529C131.802 37.6547 131.757 38.0565 131.712 38.4583C131.518 38.4366 131.322 38.4147 131.123 38.3926C131.108 37.9856 131.098 37.5792 131.086 37.1725C130.414 37.653 130.561 38.6488 130.32 39.7739C130.178 39.8372 130.035 39.9005 129.891 39.9636C129.882 39.0785 129.874 38.1936 129.87 37.309C129.275 37.3155 128.658 37.3199 128.06 37.3268C127.978 37.7231 127.896 38.1193 127.813 38.5156C127.855 38.115 127.898 37.7143 127.94 37.3137C126.935 37.1209 125.945 36.9308 124.934 36.7393C124.738 36.0682 126.403 35.7542 126.533 35.7293C127.245 35.5908 128.979 36.4318 129.137 35.0043C129.453 36.117 130.756 35.993 131.291 34.7589C130.686 34.7693 130.068 34.7788 129.457 34.7895C129.53 34.313 129.602 33.8366 129.674 33.3601C128.693 35.2061 128.624 35.0911 128.033 33.1808C127.963 33.8227 127.892 34.4646 127.822 35.1065C127.537 32.8168 126.158 36.499 126.434 33.7406C126.128 33.9336 125.818 34.1262 125.505 34.3186C124.933 33.9298 126.036 32.0406 123.844 32.4199L127.378 33.0016C127.291 33.005 127.198 33.0108 127.101 33.0194C126.911 33.0369 126.794 33.7342 126.54 33.628C126.466 33.5966 126.259 32.4976 125.398 32.4188C125.264 32.4069 125.124 33.0033 124.972 33.0499C124.621 33.1623 124.263 31.8455 124.125 33.8357C122.778 34.1348 123.624 32.6597 123.378 31.9482C123.213 31.476 123.021 32.6296 122.857 32.3241C122.656 31.9457 123.098 30.8346 121.895 31.136C122.001 31.2398 122.106 31.3437 122.213 31.4477C122.085 31.748 121.958 32.0484 121.831 32.3488C121.369 31.4675 121.2 32.5788 121.276 30.7575C120.66 31.449 120.256 31.4309 119.678 31.164C118.54 30.6428 119.534 28.8658 117.667 31.1535C117.52 30.7503 117.373 30.3475 117.227 29.945C116.72 30.6298 116.825 31.6333 116.251 31.718C117.039 29.9337 115.774 30.3914 115.915 28.6905C115.817 29.0833 115.72 29.4762 115.622 29.8691C115.505 29.8461 115.387 29.8231 115.267 29.7997C115.329 29.4813 115.391 29.163 115.452 28.8447C115.246 29.0519 115.042 29.2594 114.838 29.4672C114.781 29.1286 114.724 28.7901 114.667 28.4517C114.345 29.0798 114.025 29.7086 113.7 30.3364C113.569 30.3583 113.439 30.3804 113.309 30.4025C113.439 29.9357 113.569 29.4689 113.698 29.0022C113.511 29.1306 113.325 29.2592 113.14 29.388C113.47 28.6446 113.532 27.7101 113.047 27.6419C112.643 27.5844 112.778 29.2939 112.056 28.4556C112.005 28.3959 112.126 27.2182 111.355 26.8859C110.446 26.4905 110.75 27.418 110.575 27.4149C110.541 27.4134 110.358 26.7745 110.105 26.6398C109.961 26.5631 109.726 27.0063 109.706 27.0013C109.617 26.9621 109.716 26.2908 109.592 26.2424C109.27 26.1219 108.768 26.3646 108.461 26.2718C108.321 26.2303 108.257 25.8093 108.194 25.7923C108.095 25.7687 107.854 26.3474 107.755 26.326C107.391 26.2435 107.219 24.138 106.52 26.8827C106.668 24.2638 105.353 27.2108 105.74 25.5095C104.673 25.9758 102.894 23.4319 102.389 26.3163C102.449 23.7697 102.125 25.5551 101.95 25.4795C101.76 25.3967 101.963 24.9432 101.8 24.9306C101.424 24.9018 101.045 25.0319 100.721 24.968C100.682 25.371 100.645 25.7742 100.609 26.1777C100.235 26.225 100.556 25.3401 100.266 25.0879C99.766 24.6322 99.8395 25.4151 99.5055 26.4174C99.7526 25.4329 99.1204 25.4378 99.0525 25.5567C99.0025 25.6277 98.8003 26.9293 98.6031 26.4396C98.7238 26.0549 98.844 25.67 98.9638 25.285C98.6741 25.7786 98.6012 25.0306 98.5516 25.1566C98.529 25.2159 97.4827 28.2938 98.2213 25.8307C98.0958 26.2136 97.9697 26.5962 97.8426 26.9785C97.9575 26.5068 98.1294 26.0524 98.379 25.6277C98.1451 26.3148 97.9082 27.001 97.6687 27.6862C97.6931 27.6952 97.7234 27.7066 97.7601 27.7208C97.9683 27.1105 98.1732 26.4991 98.3751 25.8866C98.4006 25.959 98.4564 25.9865 98.5299 26.0042C98.0263 25.7583 97.644 25.2844 96.8922 26.852C96.9085 26.4245 96.9258 25.9973 96.944 25.5704C96.5883 26.2066 96.2325 26.8426 95.8765 27.4786C95.3242 27.0594 95.4991 26.6086 95.3676 25.724C95.172 26.2537 94.9766 26.7834 94.7812 27.3131C94.7636 26.451 94.4808 25.5395 94.0689 25.2634C93.8761 25.1349 93.2137 25.7037 93.1899 25.6177C93.1647 25.5271 93.8356 22.4995 92.7714 24.9219C92.4822 23.5355 91.7016 24.5067 91.4159 24.3565C91.2332 24.2593 91.3839 23.6344 91.1908 23.4828C90.9159 23.2656 90.481 23.4165 90.3167 23.3003C90.2237 23.2323 90.4438 22.6532 90.3806 22.6057C90.0843 22.3789 90.0324 23.0433 89.6923 22.8557C89.66 22.8344 89.7014 22.0325 89.3648 21.9959C89.1777 21.9753 88.4292 22.5814 88.3885 22.5619C88.2267 22.4775 89.0207 20.9695 87.6895 22.5356C87.8324 22.2455 87.9755 21.9555 88.1181 21.6653C87.728 20.6099 87.0571 21.8885 86.8729 21.9184C86.8512 21.9181 86.8973 21.3328 86.7658 21.3601C86.54 21.4062 86.1678 22.0756 86.1161 22.0901C85.9345 22.1394 85.6027 21.6331 85.0129 22.1816C85.9337 20.2175 85.1656 19.049 83.9607 21.2031C83.9551 20.6736 83.9604 20.1488 83.9557 19.6196C83.7067 19.9526 83.4586 20.286 83.2113 20.6198C83.3171 20.2268 83.4232 19.8338 83.5295 19.441C82.8863 20.1303 82.2503 20.8227 81.6036 21.5107C81.935 20.686 82.2664 19.8613 82.5977 19.0365C82.4782 19.0953 82.3469 19.149 82.2227 19.2058C81.8782 19.8264 81.5344 20.4474 81.1914 21.0687C81.1413 20.9007 81.0765 20.7266 81.0206 20.5563C81.1935 20.0746 81.3664 19.5928 81.5391 19.111C81.1129 18.2917 79.6968 22.9777 79.8816 18.416C79.4848 18.6888 79.0534 18.948 78.5349 19.1767C78.6797 18.2651 78.4575 17.9236 77.9736 17.7308C77.0355 17.3775 76.2729 17.2132 75.6929 17.1001C75.2023 17.0141 74.8172 16.9548 74.5283 16.8172C74.1634 16.6416 74.1371 16.3954 74.0291 16.1454C73.9424 15.901 73.7891 15.6586 73.5591 15.5951C73.1113 15.4718 72.997 16.2109 72.9584 16.2067C72.6783 16.1887 72.6791 15.5149 72.5271 15.6138C72.506 15.6288 72.255 16.4787 72.1091 16.502C71.9634 16.5249 72.1279 15.5969 71.9488 15.7356C71.8631 15.807 71.666 16.5259 71.5959 16.5762C71.2356 16.8148 72.1578 13.1527 70.7602 17.4072C70.8799 16.8514 71.2989 14.9021 71.207 14.9909C71.047 15.1291 70.7972 15.9715 70.6979 16.1072C70.6827 16.1275 70.7457 15.8357 70.633 15.8509C70.6123 15.8535 70.7897 15.3905 70.7896 15.3834C70.6817 15.3543 70.3262 15.6332 70.1633 15.6384C70.1427 15.6371 70.6646 14.3577 69.7858 15.9997C70.2351 14.697 68.5747 17.1659 69.3086 15.2071C69.299 15.1519 69.0198 15.5623 69.0129 15.5391C68.9511 15.3278 69.7821 14.0774 68.3621 15.7894C68.7793 15.1471 69.0712 14.5167 68.9495 14.51C68.7618 14.4961 68.1067 15.77 68.0426 15.5915C68.2591 15.2517 68.4755 14.9119 68.6919 14.572C67.8308 15.3064 68.7149 13.8255 68.4578 13.6336C68.3611 13.5627 67.6847 14.1741 67.6553 14.1552C67.6457 14.145 68.1111 13.2805 68.106 13.2673C68.063 13.1984 67.7559 13.5274 67.7012 13.4884C67.515 13.3577 68.0919 12.1984 66.6878 14.0136C66.9402 13.5948 67.1956 13.1781 67.4542 12.7635C65.6896 14.4838 67.7182 11.774 66.1278 13.5444C66.4128 13.1413 66.7 12.7398 66.9892 12.34C66.078 11.8423 65.087 11.1777 64.06 10.3554C63.901 10.2084 63.7439 10.063 63.5886 9.91912C64.1025 9.34502 63.2187 8.74353 63.0959 8.78254C62.5302 8.95319 61.4335 10.2382 61.3996 9.61422C61.9175 9.0949 62.4361 8.57625 62.9554 8.05825C62.7342 7.43426 62.3752 8.13365 61.8407 8.27132C61.8441 8.13633 62.297 7.79272 62.2412 7.66346C61.9254 6.94615 60.991 5.78531 60.5417 5.15863C60.4492 5.02986 60.0531 5.3836 60.0211 5.34641C59.9386 5.23731 60.2975 4.61866 60.1307 4.41085C59.0979 3.14245 57.4719 1.63516 56.3021 0.942726C56.2213 0.895828 55.6982 1.25189 55.6399 1.22398C55.5624 1.18524 55.8829 0.750435 55.7972 0.720184C55.7166 0.688896 55.2971 0.927155 55.2077 0.895775C54.7946 0.757164 55.2745 0.00577545 54.0125 0.657677C53.8994 0.702431 51.6891 1.97018 51.5518 2.06611C50.699 2.57262 49.341 3.33518 48.1092 4.10545C47.5178 4.34621 46.8164 4.88416 46.0608 5.2849C45.326 5.7258 44.4999 5.94382 44.1579 6.47034C43.749 6.29786 43.6508 6.72032 43.5653 7.11196C43.3399 7.25193 43.1145 7.39191 42.8891 7.53191C42.2518 7.75144 41.804 7.85688 41.4971 7.90354C41.1965 7.96423 41.0069 7.89747 41.0448 8.10722C40.8179 8.2025 40.5926 8.30122 40.3689 8.40308C39.1893 8.80712 39.3464 9.54774 38.1356 10.7563C36.7785 10.9349 35.3741 10.9689 34.2317 11.4397C34.0544 11.518 33.8812 11.6049 33.7098 11.6954C33.2712 11.9601 33.3486 12.7082 33.0883 13.1778C32.1125 15.0213 31.4616 13.0627 30.6917 13.8914C31.2838 14.8575 32.0296 15.9139 32.7895 16.938C32.1082 17.442 27.66 14.6434 25.4947 15.4423C25.5716 15.9967 25.6543 16.4803 25.7443 16.9644C25.1084 17.0954 24.4605 17.2004 23.81 17.2925C23.6679 17.44 23.5272 17.5897 23.3881 17.7415C23.4093 18.7684 23.4221 19.6949 23.4601 20.6383C22.9971 19.4751 22.5624 18.6765 21.596 18.2016C21.1156 17.9653 20.4988 17.8138 19.632 17.5742C19.2028 17.4617 18.6879 17.2725 18.1011 16.9767C17.5071 16.52 16.6985 16.2224 16.0257 14C15.9683 14.9896 16.0126 15.6489 16.0499 16.1891C16.0671 16.6039 16.0817 16.9132 16.0981 17.2051C18.1835 18.86 19.1153 19.2637 19.7062 20.2488C20.2869 21.1499 20.4926 22.2059 20.6287 22.966C19.7234 23.2141 19.6136 21.7574 19.0072 21.7787C18.834 21.7886 18.4528 22.3506 18.0847 22.353C17.5945 22.336 16.8463 22.0042 16.0551 21.5798C15.277 21.1917 14.4025 20.5421 14.0815 21.039C13.8426 22.1833 15.0731 25.9331 15.4659 26.3514C14.5522 26.0163 13.7942 25.5237 12.9518 24.8979C12.0713 24.1519 11.3044 23.9023 9.5442 21.5929C9.08394 25.4716 7.51431 27.3487 8.62132 29.3802C8.35335 29.9182 7.34518 29.502 6.2022 28.6575C5.61914 28.2137 5.01785 27.6857 4.42703 27.0475C3.8565 26.4542 3.29993 25.7195 3.13142 25.687C3.5586 28.0251 3.5123 29.0882 3.53149 30.3363C3.22313 29.4867 2.90862 28.6307 2.35293 27.149C2.16948 27.234 1.986 27.319 1.80248 27.4039C2.67895 31.1913 1.96858 33.1226 3.20016 34.8237C2.27761 35.3699 1.70824 34.3081 1.3391 33.7326ZM136.574 36.071C136.694 35.1922 136.228 35.2853 135.961 35.2719C136.019 35.116 136.076 34.9601 136.134 34.8042C135.551 34.9064 134.475 35.1269 134.635 33.4132C134.263 33.1559 134.27 34.6627 134.122 34.8174C134.064 34.8793 133.638 33.9548 133.107 34.9616C133.009 34.9463 132.91 34.931 132.81 34.9156C132.853 34.3526 132.897 33.7896 132.94 33.2266C132.721 33.8914 132.512 34.5573 132.299 35.2228C133.728 35.504 135.151 35.7866 136.571 36.0707C136.572 36.0708 136.573 36.0709 136.574 36.071ZM125.59 34.1467C124.972 34.3363 124.026 34.6457 124.523 33.1722C124.852 33.3267 125.182 33.4821 125.515 33.6386C125.541 33.808 125.565 33.9773 125.59 34.1467ZM81.0919 22.863C80.0726 24.0818 80.2195 22.7122 79.3841 22.6571C79.5101 22.3614 79.6361 22.0657 79.7622 21.77C79.765 22.6086 80.7048 22.451 81.0919 22.863ZM151.398 43.7708C151.677 43.7147 151.944 43.6586 152.196 43.6003C151.672 41.6875 151.13 42.8008 149.841 42.3825C149.761 42.357 149.861 41.9731 149.832 41.9655C149.502 41.878 149.11 42.2953 148.816 42.2424C148.585 42.2006 148.387 42.0892 148.161 41.9632C147.804 42.0843 146.637 41.6352 146.291 41.7835C146.26 41.6414 146.22 41.4708 146.133 41.4751C146.015 41.4817 145.952 42.2374 145.907 42.2146C145.869 42.1934 145.61 40.0793 145.16 40.9409C144.555 42.039 145.821 42.7147 146.226 42.9211C146.556 42.7798 147.668 43.2078 148.009 43.0924C149.728 43.4145 151.17 43.7717 151.398 43.7708ZM154.538 43.141C154.536 43.1332 154.533 43.1252 154.527 43.1165C154.256 44.2501 154.291 44.0781 154.129 44.0076C153.981 44.5468 154.03 44.7265 154.061 44.7986C154.096 44.8718 154.131 44.8428 154.116 45.0102C154.249 44.3854 154.391 43.7625 154.538 43.141ZM139.77 43.268C140.117 43.4226 140.213 42.029 140.247 41.6145C140.135 41.6016 140.02 41.5885 139.905 41.5752C139.86 42.1394 139.815 42.7037 139.77 43.268ZM142.33 44.047C142.325 43.0928 141.64 42.5984 141.288 42.4799C141.272 42.478 141.313 43.0062 141.062 42.9288C140.996 42.9061 140.447 40.9377 140.372 43.0913C141.039 43.4124 141.693 43.7316 142.329 44.0469C142.33 44.047 142.33 44.047 142.33 44.047ZM143.12 43.5708C143.02 43.2606 142.917 42.9498 142.811 42.6387C142.694 43.0734 142.575 43.5079 142.455 43.9423C142.597 44.0711 142.741 44.2 142.883 44.3286C142.963 44.0761 143.042 43.8235 143.12 43.5708ZM54.284 16.1624C54.6642 15.8745 55.0442 15.5865 55.4241 15.2983C55.7193 15.1943 54.5374 16.9934 54.1136 17.1171C54.1682 16.7968 54.225 16.4786 54.284 16.1624ZM51.9438 14.9539C51.6816 15.0148 51.4197 15.076 51.1581 15.1374C51.6885 14.5133 52.2212 13.8917 52.7561 13.2725C53.5497 13.376 54.4346 13.4517 52.5494 14.9083C52.6371 15.0123 52.7255 15.117 52.8149 15.2224C53.4909 14.4978 53.7481 14.3002 54.4575 14.1706C53.4655 15.1181 54.2304 14.9407 54.2813 15.4622C54.0167 15.2767 53.7597 15.099 53.4989 14.9155C53.3148 15.0718 53.1308 15.2281 52.9468 15.3844C53.4607 15.8535 51.7335 16.1885 52.1772 15.2247C51.9088 15.405 51.6403 15.5853 51.3717 15.7654C51.5618 15.4942 51.7525 15.2238 51.9438 14.9539ZM91.7362 36.003C91.5605 36.1939 91.3849 36.3848 91.2094 36.5757C92.0713 33.5121 91.6071 36.5617 93.0256 34.4344C92.1581 36.135 92.9106 36.3522 92.9063 36.488C92.5839 37.0483 92.2614 37.6086 91.9388 38.1688C91.8729 37.4479 91.8016 36.7244 91.7362 36.003ZM88.5016 37.0406C89.3942 35.7021 87.9864 35.0188 87.3668 35.1373C87.2154 35.1671 86.6734 35.8799 86.6309 35.7438C86.7022 35.4269 86.7751 35.1106 86.845 34.793C86.3559 35.7878 85.8848 34.2439 85.7444 33.5393C85.5538 33.8962 85.3633 34.2532 85.1727 34.6101C85.0967 34.4047 85.021 34.1994 84.947 33.9946C84.8085 34.3719 84.6701 34.7493 84.5317 35.1266C84.6154 34.638 84.7 34.1497 84.7854 33.6617C84.5888 32.996 83.9874 35.1177 83.9478 34.3598C83.9053 33.5187 84.965 32.5512 85.2849 31.7655C85.4737 32.0826 85.9106 32.7973 86.1733 32.9336C86.3272 33.0122 86.7336 31.5351 86.7471 33.4337C87.0533 33.1204 87.3604 32.8073 87.6683 32.4945C87.6992 33.2084 87.7199 33.9177 87.7529 34.6318C88.0202 34.1332 88.2885 33.6351 88.5546 33.136C88.6155 33.0659 88.7657 34.5108 88.5718 34.8882C89.2423 34.0007 89.8471 34.0422 90.4238 34.2191C90.3617 34.5243 90.2998 34.8296 90.2381 35.135C89.9472 34.3021 89.9434 35.3643 89.5604 35.8406C89.3413 36.116 88.8007 36.6116 88.5016 37.0406ZM55.6417 19.5536C56.1732 18.1074 55.6407 19.2044 55.124 18.6323C55.7021 18.188 56.2785 17.7415 56.853 17.2929C56.1094 18.4543 57.1623 18.2863 55.6422 19.5542C55.642 19.554 55.6418 19.5538 55.6417 19.5536ZM51.4865 10.9586C51.4578 11.6255 50.4205 12.1411 50.5423 12.8671C50.5425 12.8673 50.5427 12.8676 50.5429 12.8678C50.2709 12.6619 49.9948 12.4492 49.7242 12.2411C50.3119 11.814 50.8993 11.3865 51.4865 10.9586ZM67.4041 25.8989C67.7499 25.6827 67.5395 26.2087 68.1067 25.2042C68.0399 26.6196 67.8094 26.3448 67.4302 27.5299C67.4558 27.1554 67.4846 26.7813 67.5169 26.4077C66.9485 27.4454 66.9565 28.0653 66.9248 28.1725C66.9246 28.1724 66.9244 28.1723 66.9242 28.1723C66.8072 28.527 66.7909 28.6045 66.6335 28.7902C66.8781 27.8226 67.139 26.8602 67.4041 25.8989ZM68.1088 27.7271C68.2313 26.9029 68.4886 25.8738 68.8685 25.4293C68.8686 25.4293 68.8688 25.4294 68.869 25.4294C68.4038 27.2172 69.0367 25.8439 69.1272 25.9947C69.1091 26.1973 69.0918 26.4001 69.0753 26.603C68.7434 26.9779 68.432 27.3555 68.1088 27.7271ZM77.903 32.8277C78.7109 30.9541 78.3994 30.609 79.6882 29.1166C79.7799 29.1957 79.8793 29.2782 79.9665 29.3554C79.8584 29.7963 79.7508 30.2375 79.6439 30.6789C82.4438 27.8632 80.3656 33.8129 79.0181 30.6758C79.0183 30.6744 79.0186 30.673 79.0188 30.6715C78.6465 31.3901 78.2745 32.1088 77.903 32.8277ZM75.4638 31.5982C75.8595 30.6027 76.2549 29.607 76.6498 28.6112C75.271 30.8371 75.8857 28.4097 74.0462 29.6491C74.0388 29.2975 74.0217 28.9428 73.9872 28.583C73.9826 28.5854 73.9778 28.5878 73.9728 28.5901C69.8734 27.9767 69.2177 28.2629 69.7672 26.6542C70.0741 25.9876 70.315 27.0462 70.3723 27.0371C70.5636 26.999 70.9469 26.1419 71.3988 26.307C71.5414 26.3589 71.6356 26.6676 71.9614 27.0375C72.2728 27.4074 72.6734 27.7846 73.6828 28.1295C73.8078 28.1728 73.9432 28.2184 74.0914 28.2681C75.7335 28.7163 77.6672 26.667 77.4667 29.4791C77.6554 29.2086 77.835 28.9342 78.0196 28.662C78.54 29.0989 77.9294 29.9504 78.9497 29.0606C77.3401 33.9046 76.835 27.8836 75.7545 31.9085C75.7542 31.9084 75.7538 31.9082 75.7535 31.9081C75.6583 31.8052 75.5682 31.7046 75.4638 31.5982ZM62.787 25.4338C62.3002 26.2082 62.6817 24.7918 61.6258 26.7113C61.9042 25.9884 62.1913 25.2695 62.487 24.5549C62.5963 24.3832 62.7056 24.2115 62.8149 24.0398C62.8369 24.2428 62.8598 24.4452 62.8835 24.647C63.0518 24.3714 63.2201 24.0959 63.3884 23.8204C62.9372 24.9173 63.875 24.8692 64.4038 23.8517C64.2027 24.2925 64.0037 24.7343 63.8068 25.1771C64.7433 24.1913 64.3691 25.573 65.2768 24.5894C65.1262 24.9612 64.9771 25.3335 64.8293 25.7065C64.9878 25.4246 65.1456 25.1423 65.3026 24.8595C65.441 24.8811 65.5751 24.8992 65.7146 24.9184C65.5901 26.2907 64.0677 27.4455 64.0279 27.2086C64.0257 27.1778 64.3948 26.428 64.3689 26.2688C64.3335 25.9997 63.1053 26.2936 63.1111 25.6562C62.8341 26.1366 62.5571 26.6169 62.2798 27.0971C62.4426 26.5402 62.6117 25.9857 62.787 25.4338ZM81.744 32.1015C82.0005 31.5974 82.257 31.0934 82.5135 30.5893C82.8908 31.3632 83.4641 31.0715 82.5784 32.7228C82.5781 32.7227 82.5778 32.7226 82.5775 32.7224C82.2949 32.5137 82.0263 32.3106 81.744 32.1015ZM123.917 42.9624C123.78 44.0759 123.419 44.4591 123.084 43.6148C123.138 43.2931 123.193 42.9714 123.247 42.6497C123.367 43.623 123.807 41.9954 124.455 42.2872C124.395 42.8484 124.335 43.4095 124.275 43.9706C124.152 43.6341 124.034 43.2982 123.917 42.9624ZM81.1291 32.1042C80.6832 32.6372 80.9631 30.5609 81.3433 30.6155C81.6275 30.6553 81.3692 31.8184 81.1291 32.1042ZM49.4275 10.1074C49.5968 10.1335 49.7671 10.1605 49.9384 10.1885C49.6006 10.536 49.2637 10.8846 48.9276 11.2342C48.9274 11.2339 48.9272 11.2337 48.927 11.2334C49.0897 10.8537 49.2566 10.4783 49.4275 10.1074ZM66.5792 25.4945C66.7775 25.6489 66.9863 25.8024 67.1931 25.9501C67.0909 26.246 66.9888 26.5419 66.8868 26.8379C67.0311 25.6768 66.5212 26.7993 66.4319 26.8465C66.4322 26.8466 66.4324 26.8467 66.4327 26.8468C66.1576 27.0078 65.9235 27.1116 65.5976 27.3826C65.9319 26.7565 66.2591 26.1271 66.5792 25.4945ZM64.9903 26.9667C65.9416 24.9684 66.067 24.746 65.8261 26.3331C65.7062 26.5782 65.5857 26.8229 65.4647 27.0674C65.3288 26.8333 65.4187 26.3139 64.9899 27.3857C64.9895 27.246 64.9897 27.1063 64.9903 26.9667ZM69.3452 27.6708C69.1101 28.3395 68.8027 27.5351 68.9255 27.1993C68.9557 27.0629 69.7814 26.3564 69.3452 27.6708ZM129.612 44.0724C129.419 44.2134 129.221 44.354 129.034 44.4958C129.231 44.759 129.45 45.0246 129.654 45.2887C129.64 44.8833 129.626 44.4778 129.612 44.0724ZM131.173 47.4112C131.328 47.1449 131.142 45.123 131.951 44.6973C131.4 44.5931 130.886 44.4933 130.338 44.3901C130.556 44.7377 130.781 45.0862 130.996 45.4337C130.889 45.9966 130.781 46.5595 130.674 47.1224C130.842 47.2188 131.008 47.3151 131.173 47.4112ZM131.92 46.0287C131.46 47.4979 132.981 47.7834 133.138 47.6154C133.174 47.5753 133.451 46.4536 133.537 46.2154C133.303 46.1874 133.081 46.161 132.848 46.1332C132.966 45.7835 133.084 45.4337 133.201 45.0839C132.949 44.931 132.678 44.7762 132.428 44.6238C132.5 44.9963 132.577 45.3695 132.654 45.7426C132.4 45.8368 132.168 45.9336 131.92 46.0287ZM125.812 44.9871C126.011 44.9705 126.208 44.9538 126.404 44.9368C126.304 45.4937 126.205 46.0506 126.106 46.6075C125.991 46.595 125.876 46.5825 125.76 46.5699C125.777 46.0424 125.794 45.5148 125.812 44.9871ZM129.68 46.1433C129.699 43.4116 128.265 49.2294 129.415 47.1436C129.531 46.9314 129.678 46.4072 129.68 46.1433ZM133.75 47.3585C134.123 49.3946 134.486 45.034 133.773 46.2422C133.737 46.3067 133.722 47.2081 133.75 47.3585ZM138.23 47.9358C138.28 47.9268 138.521 46.5292 138.831 47.9204C138.925 47.7687 139.018 47.617 139.111 47.4652C139.018 46.7921 137.529 46.2263 137.585 47.6453C137.809 47.6932 137.989 47.9521 138.23 47.9358ZM136.154 52.9702C135.933 52.9052 135.708 52.8397 135.478 52.7737C135.605 52.3419 135.733 51.91 135.86 51.4781C135.761 51.3451 135.656 51.2116 135.562 51.0793C135.285 51.8176 135.005 52.5556 134.722 53.2932C135.209 53.4718 135.697 53.6509 136.172 53.8285C136.166 53.5424 136.16 53.2563 136.154 52.9702ZM129.93 53.3658C130.428 52.8613 130.916 53.5121 131.633 53.4975C131.634 53.4961 131.634 53.4948 131.635 53.4934C131.672 53.4911 131.805 52.8929 131.925 52.8819C132.031 52.8741 133.879 53.7573 133.853 52.7149C133.212 51.71 132.765 53.0762 132.845 50.7736C132.754 51.2508 132.664 51.7279 132.573 52.2051C131.763 52.9573 131.736 51.2673 131.404 50.6112C131.365 50.9741 131.326 51.3369 131.287 51.6998C131.014 51.7059 130.727 51.7104 130.46 51.7174C130.525 51.4831 130.589 51.2487 130.653 51.0144C130.559 51.0038 130.464 50.9932 130.369 50.9825C130.016 52.0314 129.69 52.2486 129.93 53.3658ZM137.259 52.4913C137.157 55.2661 139.428 53.6198 140.277 54.3004C139.979 52.5889 139.102 53.6447 138.558 53.599C137.526 53.5118 138.353 52.5802 138.23 52.1157C138.163 51.8853 137.382 53.582 137.259 52.4913ZM128.362 52.7047C128.92 52.5413 129.13 53.2059 129.697 52.2467C129.681 52.0415 129.665 51.8363 129.648 51.6311C129.481 51.7985 128.146 52.2384 128.362 52.7047ZM141.696 53.7306C140.621 54.6115 141.374 52.1731 140.66 53.9835C140.978 54.1395 141.302 54.2958 141.617 54.4506C141.643 54.2106 141.67 53.9706 141.696 53.7306ZM75.983 41.2294C75.5683 41.1203 74.9335 41.3973 75.1174 40.3396C75.439 40.3021 75.7781 40.2721 76.098 40.2338C76.0587 40.5653 76.0204 40.8971 75.983 41.2294ZM83.1295 55.2849C82.9446 55.48 82.869 54.6516 82.8325 54.6367C82.7636 54.6087 82.6451 54.9534 82.6082 55.041C82.1761 54.7936 83.0237 53.9202 82.7789 53.5552C82.7363 53.4942 81.7371 53.6883 81.4331 53.5135C80.9705 53.2471 80.4443 53.1086 80.2714 53.016C79.9673 52.8557 79.7199 51.8363 79.226 51.5828C79.0248 51.4808 78.6886 52.0751 78.4824 51.9704C77.1698 51.2994 74.8731 49.3132 73.5012 49.192C73.1648 49.1642 72.5274 49.8567 72.4035 49.7248C72.405 49.3726 72.4084 49.0211 72.4138 48.6705C70.8839 51.1903 71.7818 48.7503 71.4761 48.3226C71.2835 48.0526 70.8234 48.7962 70.787 48.7783C70.5569 48.6609 70.616 48.2382 70.4532 48.0942C70.2783 47.9371 69.8294 48.1693 69.7841 48.0733C69.7566 48.0104 70.3576 47.0161 69.5452 46.6943C68.9062 46.444 68.2771 46.254 67.5436 46.0408C67.2272 45.9454 66.9827 45.9018 66.7531 45.8556C67.5889 43.5208 67.7717 44.0694 68.0268 44.7293C68.051 44.9687 68.095 45.2246 68.1813 45.2975C68.2707 45.3691 68.407 44.8306 68.4903 44.8897C68.7171 45.0497 68.9558 45.7342 69.1955 45.6924C69.4563 45.6481 69.8737 44.4382 69.9572 44.9847C69.9609 45.0126 69.7149 45.4813 69.7406 45.5881C70.0054 46.6477 70.5549 45.8851 71.3221 46.1848C71.8307 46.3822 74.6356 48.1567 74.8748 47.8833C76.1463 46.419 72.9715 45.0442 72.546 45.0192C72.3939 45.0096 72.3027 45.6043 72.1375 45.655C72.0674 45.6735 72.0529 44.4586 71.6386 44.1808C71.1331 43.8427 69.7364 44.0706 69.1607 43.8108C68.9611 43.7198 68.7313 43.6193 68.4734 43.517C67.2259 43.0812 66.8692 43.0556 66.2749 42.9064C65.7333 42.7833 65.2268 42.6737 64.7099 42.5578C63.7053 42.3341 62.7084 42.0992 61.7194 41.8256C59.748 41.2819 57.7744 40.5695 55.9441 39.5728C55.8616 39.5274 56.0768 38.8872 55.8128 38.7381C51.321 36.2234 46.7881 32.9455 43.2833 28.6838C42.9892 28.3285 42.707 27.9787 42.431 27.6272C41.5925 26.5609 41.2023 25.1415 39.9553 24.422C40.22 23.9811 40.4866 23.5423 40.7553 23.1056C40.7261 23.6758 42.0788 23.5782 42.1323 23.6163C42.1524 23.6325 41.8365 24.1078 42.0285 24.2895C42.2986 24.5482 42.7633 24.361 42.7823 24.3833C42.8432 24.4524 42.4195 24.7341 42.4787 24.7998C42.9261 25.2904 43.1544 25.7748 43.553 26.2413C44.0101 26.7743 44.937 26.404 44.5016 27.4725C44.7018 27.3415 44.902 27.2104 45.1022 27.0793C45.2413 26.986 45.3803 26.8925 45.5191 26.7989C44.4395 28.2216 46.0181 29.651 46.6785 30.1679C46.8895 30.3382 47.3557 29.8031 47.4186 29.8659C47.4577 29.9049 46.7897 30.5523 47.412 30.9038C47.7226 31.0755 48.2606 30.6549 48.3702 30.7889C48.4299 30.863 47.9597 31.3397 48.0597 31.4335C48.6304 31.9677 49.2652 32.2449 49.913 32.6376C50.0998 32.7527 50.4633 32.3281 50.4949 32.3645C50.6115 32.496 50.2401 33.4207 50.5882 33.7011C51.1669 34.174 52.344 35.0624 53.0945 35.0262C53.2063 35.0224 53.6528 34.5173 53.6986 34.5616C53.7668 34.6307 53.3964 35.2248 53.4083 35.2378C53.6672 35.4331 53.8781 34.7877 53.9637 35.0389C54.0099 35.1738 53.6561 35.8988 53.8396 36.1305C54.0785 36.433 54.5391 35.6016 54.611 35.7624C54.616 35.7833 54.2595 36.337 54.3714 36.4356C54.8001 36.8083 55.4135 37.3636 55.8822 37.632C56.0147 37.709 56.3331 37.3812 56.5163 37.4764C56.8879 37.6948 58.9069 39.036 59.1989 38.8685C59.2277 38.8522 59.4463 37.884 59.7365 38.0495C59.656 38.4573 59.578 38.8657 59.5026 39.2749C59.9161 38.7509 60.3218 38.2222 60.7244 37.691C59.824 39.7412 60.6172 40.4437 61.4504 38.311C61.579 38.2626 61.7061 38.213 61.8317 38.1624C61.4527 39.7093 61.8083 39.2223 61.8796 40.2357C62.1054 39.8024 62.3302 39.3685 62.5543 38.9341C62.4615 39.2438 62.3692 39.5537 62.2773 39.8636C63.0717 38.2893 62.8226 40.0593 62.8744 40.0865C63.03 40.1792 63.2896 39.7956 63.3602 39.8333C63.6203 39.9668 64.0813 40.7461 64.5036 40.5678C64.5232 40.5581 64.7104 39.8339 64.828 39.7707C65.0433 39.6571 64.7837 40.7215 65.3445 39.5399C65.3077 39.8641 65.2717 40.1885 65.2365 40.513C65.3305 40.3649 65.4256 40.217 65.5185 40.0684C65.7956 40.228 66.0845 40.387 66.3815 40.5453C66.3821 39.2436 66.8812 38.6362 66.9697 39.6798C67.0081 40.0356 66.7309 40.7626 66.7435 40.8853C66.8079 41.0663 67.9233 40.9187 69.4093 40.9767C69.4651 40.9544 69.5081 40.9264 69.5359 40.892C69.5606 41.1605 69.5868 41.4309 69.5839 41.6905C69.807 41.2561 70.0326 40.823 70.2607 40.3909C70.2543 40.5711 70.2356 40.7465 70.22 40.9232C71.046 40.331 71.3303 42.5829 71.5766 42.5196C71.7064 42.4852 72.4329 40.5441 72.8271 40.9424C72.62 41.4722 72.413 42.002 72.2059 42.5317C72.2818 42.6528 72.3652 42.777 72.4364 42.8961C72.6566 42.9353 73.3445 42.1584 73.6171 41.5422C73.5201 41.9405 73.4237 42.3391 73.3279 42.7379C74.0194 41.6013 74.7329 42.4162 74.762 43.3358C75.0235 43.0158 75.2864 42.6963 75.5504 42.3773C75.4996 42.881 75.4481 43.3843 75.4005 43.8893C75.6746 44.165 75.6405 43.277 75.7376 43.2458C75.9404 43.182 76.1604 44.7513 76.7717 43.1754C76.8742 43.2146 76.9776 43.2542 77.082 43.2942C76.9452 43.7609 76.8087 44.2277 76.6726 44.6946C77.4999 43.2374 77.5781 43.91 78.432 43.6129C78.3344 43.9878 78.2371 44.3628 78.14 44.738C78.5508 44.3206 78.9474 43.8972 79.3537 43.4777C79.1459 44.0787 78.9383 44.6799 78.7309 45.2811C78.7795 45.4007 78.8307 45.5214 78.8766 45.6399C79.5971 44.4014 79.3058 45.9454 79.692 45.4719C80.2492 44.7782 80.4708 43.7655 80.1253 43.4061C80.5597 42.4662 81.6273 43.4311 81.8822 43.6191C81.7851 43.7976 81.688 43.9761 81.5908 44.1546C81.3606 43.8847 81.1239 43.6118 80.8928 43.341C79.6345 45.6359 80.7134 45.3322 80.9477 45.7937C80.9671 45.8366 80.7855 46.8299 81.1878 46.8982C81.344 46.9239 82.4656 45.8293 82.5994 45.7979C83.7158 45.5483 82.296 47.1898 83.8284 45.8692C83.1228 47.0741 84.0532 46.2151 84.4536 46.6686C84.5232 46.7467 84.8293 48.0837 84.8682 48.1309C85.1101 48.4239 85.2338 47.1542 85.5636 47.6323C85.4954 47.9517 85.4272 48.271 85.3594 48.5905C85.4627 48.6326 85.5665 48.6748 85.6706 48.7171C87.3847 46.3211 86.73 48.3317 86.8559 48.6747C86.906 48.8129 87.0684 48.0724 87.2456 48.3143C87.3131 48.4049 87.1789 49.0213 87.3995 49.1572C88.086 49.5768 89.2871 47.2959 89.015 49.9099C89.0061 49.9567 88.9968 50.0052 88.987 50.0554C89.2088 49.7114 89.4274 49.3655 89.6432 49.0179C89.5225 49.487 89.4075 49.958 89.2979 50.4307C90.1886 49.2671 89.5577 50.5596 89.7261 50.6005C90.1537 50.7061 91.1904 50.7304 91.585 49.6426C91.2673 52.3056 92.5659 49.5625 92.6929 49.7021C92.7066 50.038 92.7233 50.3744 92.7429 50.7113C92.9398 50.4285 93.1377 50.1456 93.3334 49.8617C92.6446 52.3688 93.8742 50.0399 93.9411 50.0151C94.0141 49.994 94.7993 50.9679 95.1713 51.0349C95.5484 51.1049 96.3282 50.5529 96.3903 50.5646C96.4568 50.5791 96.9372 51.4037 97.4419 51.5001C97.8791 51.5868 100.703 51.1224 100.318 52.2256C100.087 52.5074 99.7814 52.7309 99.5391 52.8368C98.7754 53.1651 94.8254 52.9561 93.841 52.8996C91.8542 52.8121 89.9221 52.2304 88.2924 51.8593C88.2731 51.8549 88.2469 51.8774 88.2166 51.9158C88.0843 52.0593 87.899 52.4468 87.8171 52.4271C87.6617 52.3862 87.5398 51.6116 87.3916 51.568C86.8281 51.4054 86.1366 51.2455 85.8381 51.1431C85.1847 50.916 84.5845 51.1098 84.0749 50.9729C83.9117 50.9275 83.4592 49.8406 82.7976 49.9491C82.63 50.0851 82.465 50.2221 82.2949 50.357C82.4795 50.6724 82.9838 51.4982 83.2867 51.6928C83.7471 51.9832 84.2107 51.5819 84.3889 51.6646C84.5398 51.734 85.0856 52.6267 85.4396 52.7852C85.549 52.8346 85.8374 52.1892 85.9296 52.229C86.433 52.4502 87.1041 52.7393 87.2947 53.5608C87.2572 53.4541 87.4193 53.3951 87.6399 53.3647C87.9568 53.2973 88.4286 53.2907 88.4585 53.3023C88.5491 53.3348 88.4319 53.9947 88.6327 54.0631C89.0105 54.189 89.3847 52.858 89.4443 54.3257C89.6828 53.9777 89.9191 53.6284 90.1537 53.278C89.637 55.0522 91.8434 53.0694 91.7316 55.3428C91.682 55.6001 89.4222 55.7296 89.24 55.6989C88.5523 55.6382 87.7528 55.2362 87.0242 54.9115C86.5793 54.7154 86.1579 54.5632 85.7522 54.5269C85.4197 54.4986 84.071 55.162 84.0082 55.1139C83.9071 55.0389 84.2493 54.4864 84.2091 54.4456C83.3892 53.5996 83.4023 54.9936 83.1295 55.2849ZM130.945 54.6999C130.608 54.7383 130.266 54.7763 129.935 54.8156C129.914 55.2201 129.893 55.6245 129.872 56.0289C130.039 55.8895 130.199 55.7491 130.371 55.6102C130.462 55.8633 130.552 56.1164 130.641 56.3693C130.742 55.8129 130.844 55.2564 130.945 54.6999ZM131.563 56.4731C131.827 56.7077 131.935 55.862 132.005 55.828C132.214 55.7244 132.339 56.0855 132.536 56.0958C132.534 54.0574 131.98 54.9288 131.563 56.4731ZM125.609 56.5463C125.684 56.457 126.356 54.337 126.613 56.4059C127.048 55.8054 127.49 55.2057 127.919 54.6048C127.198 55.5156 126.448 54.4042 126.141 54.4099C126.024 54.412 125.929 55.0749 125.835 55.0755C125.293 55.0703 124.952 53.5083 124.655 55.7059C125.23 55.1201 125.507 56.655 125.609 56.5463ZM128.894 56.115C129.03 55.664 129.162 55.2126 129.299 54.7618C128.996 54.728 128.693 54.6945 128.383 54.6601C128.415 55.1354 128.447 55.6107 128.478 56.0859C128.618 56.0957 128.757 56.1054 128.894 56.115ZM105.999 53.6885C106.186 53.7182 106.374 53.7483 106.563 53.7786C106.489 54.1082 106.275 54.0661 106.154 54.2751C106.154 54.2752 106.154 54.2753 106.155 54.2753C106.019 54.5118 105.975 54.9459 105.78 55.1044C105.853 54.6324 105.926 54.1604 105.999 53.6885ZM39.4993 23.8605C39.273 23.6359 37.4828 21.4271 38.6056 20.8519C39.1568 20.5581 39.3452 21.6488 39.5302 21.8597C39.7879 22.1587 41.4617 22.0971 39.4993 23.8605ZM36.1688 20.0855C37.1113 19.3029 38.3346 20.5519 38.283 20.8252C38.1229 20.905 37.7823 21.1022 37.6823 21.1184C37.2 21.1926 36.6628 20.1793 36.1688 20.0855ZM95.0223 55.1377C95.2949 54.5619 95.5667 53.9858 95.838 53.4094C95.6319 54.1907 95.4252 54.9719 95.2179 55.753C95.1516 55.5478 95.0864 55.3427 95.0223 55.1377ZM82.328 49.9652C80.0579 49.0719 77.7923 48.1612 75.5297 47.238C75.6002 47.6329 75.6585 48.0225 75.7282 48.4168C77.7179 49.1349 79.9154 49.6895 81.5972 50.9438C81.8406 50.6176 82.0842 50.2914 82.328 49.9652ZM124.529 60.0848C123.896 60.0284 123.442 59.3832 122.655 60.2472C123.215 61.2264 123.671 59.8533 124.17 61.2616C124.17 61.2616 124.17 61.2617 124.171 61.2617C124.29 60.8694 124.41 60.4771 124.529 60.0848ZM110.976 57.84C111.057 58.4312 111.138 59.0225 111.214 59.6129C110.991 59.5686 110.76 59.523 110.533 59.4783C110.681 58.9322 110.828 58.3861 110.976 57.84ZM61.0616 45.324C60.8713 43.9721 58.542 45.4741 58.607 43.8873C58.617 43.7859 59.1235 43.3201 59.1542 42.0208C59.3833 42.3865 59.5292 42.7172 59.2006 43.6114C59.4247 43.3535 59.6455 43.0938 59.863 42.8323C59.9382 43.1243 60.0164 43.4161 60.1047 43.7103C60.4207 42.8162 60.4143 42.8687 60.4484 43.5731C60.6505 43.3917 60.8445 43.2068 61.0446 43.0233C60.9603 43.4195 60.8774 43.8161 60.7959 44.2131C61.0886 43.7209 61.3756 43.2261 61.6572 42.7291C61.8487 43.4375 61.2651 44.3882 61.0616 45.324ZM63.2886 45.7591C63.1135 45.9527 60.5096 44.413 62.3532 43.0174C62.6403 43.1728 62.9537 43.3319 63.2508 43.4814C62.1007 46.408 63.7815 43.9785 63.8642 43.9301C64.2898 43.7297 64.5551 44.566 64.8195 44.5912C65.0603 44.6156 65.3175 44.0996 65.4702 44.1509C65.9787 44.3216 66.9148 44.5567 66.7531 45.8556C66.2656 45.7615 65.8278 45.6792 65.3892 45.5424C64.9279 45.3981 64.2048 46.486 63.7732 44.6341C63.5129 44.7502 63.3285 45.7146 63.2886 45.7591ZM111.806 59.5974C112.038 58.3166 113.127 58.8525 113.031 59.358C112.974 59.6538 112.603 59.5718 112.528 59.6733C112.527 59.6732 112.527 59.6731 112.527 59.6731C112.495 59.7176 112.508 60.2283 112.307 60.3292C112.142 60.0856 111.972 59.841 111.806 59.5974ZM40.176 29.1543C39.517 29.5208 37.3986 26.6295 37.6028 26.3156C37.659 26.2315 37.9304 26.0568 38.0651 25.9297C37.8123 27.2355 39.5017 27.3421 40.0799 27.8903C40.2422 28.0456 39.8052 28.3307 39.8064 28.3472C39.8067 28.3476 39.8071 28.3479 39.8074 28.3483C39.8865 28.4424 41.2068 28.0372 40.176 29.1543ZM57.8261 42.9031C58.0431 42.7773 58.2512 42.6468 58.468 42.5192C58.3412 42.9034 58.2154 43.288 58.0906 43.6729C58.0902 43.6728 58.0899 43.6727 58.0896 43.6725C57.993 43.4136 57.911 43.1596 57.8261 42.9031ZM52.6495 41.6777C52.8274 41.4539 53.0046 41.2297 53.1812 41.005C53.5267 41.1671 53.8694 41.3218 54.2068 41.468C54.2537 41.3106 54.3009 41.1534 54.3485 40.9963C55.0391 40.897 54.765 41.8807 55.0946 41.8957C55.0943 41.8955 55.094 41.8954 55.0937 41.8952C55.1297 41.8956 55.4425 41.393 55.5538 41.4296C55.8238 41.5231 56.5981 41.6703 56.422 42.2447C56.0388 43.4765 54.8757 42.2062 54.6013 42.1121C54.471 42.0713 54.0765 42.4437 53.9967 42.413C53.9106 42.3778 54.1417 41.7071 53.9466 41.6203C53.8934 41.5997 52.8554 41.9461 52.6495 41.6777ZM47.7022 37.1403C48.1929 36.7159 47.9911 37.3466 48.1278 37.3221C48.1595 37.3158 48.3663 36.7958 48.6218 36.795C48.4377 37.1151 48.2545 37.4359 48.0723 37.7572C47.9474 37.5523 47.8183 37.342 47.7022 37.1403ZM113.613 60.589C113.552 60.7165 112.944 60.5418 112.932 60.4508C112.793 59.2321 114.05 59.6162 113.613 60.589ZM128.934 64.3483C128.445 65.9992 132.044 64.7267 132.352 64.8527C132.454 63.7916 131.535 64.7655 132.12 63.3597C131.623 64.1128 130.556 63.5623 130.267 63.7647C130.094 63.8871 129.951 64.7974 129.924 64.8237C129.821 64.9164 129.095 63.7649 128.934 64.3483ZM135.24 64.4547C134.883 64.617 134.557 64.7829 134.202 64.9457C134.576 65.1101 134.932 65.2726 135.304 65.4371C135.283 65.1096 135.262 64.7822 135.24 64.4547ZM135.589 64.9824C135.456 66.0068 136.645 65.352 136.906 65.6218C136.782 63.8386 136.055 65.4224 135.589 64.9824ZM117.127 64.0472C116.487 64.6086 116.931 61.4837 117.25 62.9538C117.259 63.0021 117.155 64.0163 117.127 64.0472ZM59.4954 49.4713C59.4111 49.4676 57.9419 50.0278 58.0531 49.5255C58.4217 47.9421 58.895 48.8079 59.349 48.3201C60.0579 47.5213 59.7673 46.5647 60.4844 47.4355C60.5479 47.1164 60.6122 46.7975 60.6772 46.4788C61.2409 46.553 60.3768 48.6217 60.387 48.9278C60.3924 49.0217 60.7863 48.9493 60.8132 49.1067C61.0867 51.0791 59.5738 49.4923 59.4954 49.4713ZM104.796 61.8232C103.63 62.5664 104.314 61.2806 103.28 61.1708C103.377 60.4668 104.784 61.1874 104.796 61.8232ZM69.0735 51.1866C68.235 50.524 67.0755 51.0341 66.7007 49.5394C67.4613 47.7612 69.5302 50.8403 69.0735 51.1866ZM27.8127 23.5063C33.0493 24.8412 35.125 29.1098 37.9811 32.4484C38.2829 32.7995 38.8599 32.3701 38.9423 32.5132C38.9449 32.5177 38.9471 32.5227 38.9487 32.5283C38.9854 32.6506 38.5128 33.0419 38.6139 33.1601C42.2029 37.3469 45.801 41.5676 50.6553 44.1406C50.9635 44.3111 53.0231 43.9905 52.3892 45.8988C51.9056 47.3545 51.3898 45.7219 51.2193 45.633C51.0823 45.5644 50.7181 46.1713 50.6269 46.1205C50.5303 46.0663 50.855 45.6964 50.7488 45.6251C50.2998 45.3192 49.7173 45.1813 49.3201 44.8785C45.5516 41.9973 42.0276 39.1139 38.8 35.8108C38.408 35.406 38.0724 35.8752 38.0512 35.8566C38.052 35.8553 38.0527 35.8541 38.0535 35.8529C37.6261 35.4111 37.2298 34.9075 36.8476 34.3611C35.4695 32.3647 34.3575 29.9535 32.5294 28.3279C30.8578 26.9009 29.2159 25.4494 27.5868 23.909C27.6617 23.7743 27.737 23.6401 27.8127 23.5063ZM62.3549 48.2622C61.511 50.2447 62.0407 48.1623 60.836 48.7036C60.8655 48.3304 60.9034 47.9596 60.9392 47.5879C61.4062 47.8209 61.8801 48.0461 62.3565 48.2626C62.3559 48.2625 62.3554 48.2624 62.3549 48.2622ZM55.9504 46.7601C54.5855 49.326 53.3681 46.4801 52.2361 46.4681C52.7661 45.1089 53.7573 46.378 54.1368 46.3898C54.3388 46.4081 55.7852 45.4578 56.0805 46.4954C56.0372 46.5836 55.9938 46.6719 55.9504 46.7601ZM124.924 68.1763C124.781 68.0761 124.638 67.9757 124.493 67.8752C124.916 67.5993 125.316 67.321 125.739 67.0454C125.113 67.1844 124.47 67.3219 123.851 67.4623C123.898 68.0704 123.945 68.6784 123.991 69.2864C124.302 68.9163 124.616 68.5466 124.924 68.1763ZM122.981 67.6564C124.035 67.9972 123.075 66.2795 122.743 66.9614C122.541 67.37 122.871 67.6201 122.981 67.6564ZM120.104 68.3864C120.503 69.4868 121.48 69.6641 121.352 67.5367C120.855 68.2607 120.587 67.8924 120.081 67.9322C119.991 67.875 119.642 67.9135 119.559 67.8463C119.423 67.8419 119.266 67.866 119.077 67.9485C119.1 68.3664 119.123 68.7843 119.145 69.2022C119.146 69.2023 119.146 69.2025 119.147 69.2026C119.223 69.0208 119.3 68.839 119.377 68.6573C119.475 68.7366 119.887 68.6912 119.993 68.7588C120.03 68.6347 120.067 68.5106 120.104 68.3864ZM123.336 68.9738C124.164 67.8488 122.096 68.0409 122.645 68.8993C122.663 68.9379 123.306 69.0171 123.336 68.9738ZM28.9501 28.5481C29.4326 28.0518 29.7695 28.4944 29.925 28.6137C30.5894 29.1149 31.0105 30.1022 31.6224 30.6902C31.4087 30.7866 31.1954 30.8835 30.9812 30.9792C30.2924 30.1698 29.6237 29.3706 28.9501 28.5481ZM33.308 32.6855C33.6788 33.12 34.0545 33.5565 34.428 33.987C34.4627 34.0272 34.1836 34.6045 33.9521 34.5566C33.734 33.933 33.5191 33.3092 33.308 32.6855ZM64.8371 53.1209C64.6332 53.2576 64.6718 53.814 64.7046 54.125C64.7277 54.2821 64.7301 54.3737 64.7062 54.3174C64.6821 54.2616 64.6221 54.0496 64.7309 53.6754C64.7662 53.5848 64.8049 53.4815 64.8467 53.3643C64.8465 53.3638 64.8462 53.3634 64.846 53.3629C65.16 53.3845 64.9679 53.2326 64.8371 53.1209ZM67.2988 55.0352C67.1389 54.7482 66.9742 54.4594 66.8082 54.1704C66.7127 54.3937 66.6171 54.617 66.5216 54.8402C66.7826 54.9057 67.0429 54.9713 67.2988 55.0352ZM27.1506 27.0384C27.989 26.7655 28.3292 27.4111 28.6098 27.739C27.8669 27.9506 27.686 27.1488 27.1506 27.0384ZM57.8243 52.0332C58.053 51.5232 56.1738 50.9606 56.4458 52.1312C56.9071 52.1052 57.3739 52.0751 57.8243 52.0332ZM53.7677 51.2914C54.1099 51.5834 54.486 51.5342 54.7641 50.6851C54.5484 50.6318 54.3303 50.5759 54.1101 50.5172C53.9959 50.7752 53.8818 51.0333 53.7677 51.2914ZM117.331 69.5469C116.756 69.3391 116.192 69.1354 115.613 68.9301C115.585 69.1722 115.556 69.4144 115.527 69.6566C116.084 69.856 116.625 70.0533 117.179 70.2549C117.23 70.0189 117.28 69.7829 117.331 69.5469ZM25.1938 28.0722C25.0497 27.6235 24.8911 27.1518 24.7525 26.7022C25.1486 26.9594 25.5624 27.2356 25.9599 27.4865C25.7036 27.6829 25.4474 27.8793 25.1911 28.0757C25.192 28.0745 25.1929 28.0734 25.1938 28.0722ZM126.02 73.8932C124.056 74.8164 126.281 76.2656 126.947 74.6653C126.947 74.6667 126.948 74.6682 126.948 74.6697C127.006 74.5281 126.996 73.8112 127.098 73.5337C126.877 73.8327 126.655 74.1315 126.431 74.4301C126.303 74.0134 126.171 73.5963 126.041 73.1795C125.968 73.3296 125.895 73.4798 125.822 73.6299C125.889 73.7177 125.952 73.8052 126.02 73.8932ZM133.428 75.3653C135.129 75.4289 133.607 73.4628 132.614 74.7631C132.581 75.0865 133.273 75.3596 133.428 75.3653ZM129.067 74.4828C128.824 74.2931 128.578 74.1029 128.326 73.9123C128.269 74.1107 128.211 74.3091 128.155 74.5076C128.339 74.7316 128.522 74.9556 128.702 75.1791C128.824 74.9471 128.946 74.715 129.067 74.4828ZM120.036 76.6544C119.586 76.8314 119.288 74.5235 120.583 75.2601C120.556 75.5015 120.53 75.7429 120.503 75.9843C120.454 75.94 120.32 75.6966 120.31 75.7137C120.278 75.7715 120.222 76.581 120.036 76.6544ZM135.826 82.0808C135.862 82.178 135.6 84.7264 136.409 82.1519C136.541 82.3295 136.681 82.5079 136.818 82.686C136.922 82.1299 137.026 81.5737 137.129 81.0176C136.473 81.3832 136.553 80.2429 136.51 80.2136C136.324 80.0848 136.404 80.685 136.275 80.6783C135.944 80.66 135.244 80.1824 135.392 81.8867C135.447 82.4974 135.79 81.9836 135.826 82.0808ZM134.508 83.3958C134.605 83.1917 134.457 82.4204 134.536 82.2163C134.61 82.0388 135.401 81.3604 135.355 80.0809C135.234 80.1207 135.112 80.1603 134.989 80.1998C134.91 80.5397 134.83 80.8795 134.751 81.2194C134.671 80.888 134.599 80.5575 134.525 80.2268C134.24 81.0552 133.708 82.1095 134.107 82.8578C133.942 82.7653 133.766 82.6715 133.604 82.5793C133.561 82.1618 133.519 81.7443 133.475 81.3266C133.451 81.9527 133.427 82.5787 133.402 83.2047C133.764 83.2676 134.139 83.3321 134.508 83.3958ZM140.226 83.7913C140.234 83.4676 140.243 83.144 140.251 82.8203C140.903 83.4923 142.132 83.8308 141.614 81.7513C140.591 81.4879 139.662 81.2189 138.759 80.9504C138.671 81.185 138.582 81.4195 138.494 81.654C139.288 80.8001 138.642 84.7348 139.377 83.6648C139.501 83.4831 139.345 82.0669 139.913 83.0225C139.856 83.3426 139.799 83.6627 139.742 83.9828C139.897 83.9185 140.064 83.8553 140.226 83.7913ZM142.708 83.5882C141.432 83.706 142.287 85.181 142.955 84.3491C142.955 84.3489 142.954 84.3488 142.954 84.3487C144.462 81.986 142.425 82.7613 142.479 82.7553C142.43 82.7162 142.616 80.774 141.877 83.4734C141.857 83.4258 142.17 83.4742 142.708 83.5882ZM142.599 84.0032C142.719 84.0759 142.687 83.5846 142.74 83.5959C142.74 83.596 142.741 83.596 142.741 83.596C143.008 83.6527 143.43 83.7593 143.892 83.8042L142.516 83.672C142.364 83.6696 142.165 83.5996 142.081 83.4109C141.993 83.2215 142.033 82.9218 142.155 82.423C142.159 82.3595 142.464 82.3157 142.692 82.3677L143.967 82.4902C143.13 82.4668 142.417 82.583 142.297 83.1257C142.394 83.4181 142.493 83.7106 142.599 84.0032ZM137.951 82.3647C137.456 83.3339 138.292 83.5639 138.579 83.1209C138.632 83.0239 138.46 81.3605 137.951 82.3647ZM108.259 80.7698C107.623 80.0174 108.738 79.6177 108.583 78.6098C108.711 78.7184 108.839 78.8272 108.967 78.9361C108.73 79.5472 108.495 80.1584 108.259 80.7698ZM68.5458 71.7729C68.3211 71.801 68.6339 71.2984 68.6216 71.2838C68.4969 71.249 68.2013 71.6411 68.1759 71.5758C67.7211 70.3399 68.4648 70.1211 68.5177 70.0195C68.7602 69.4941 68.8086 68.7798 69.3638 68.2968C69.4652 68.5621 69.5689 68.8284 69.6751 69.0955C69.8936 68.8387 70.1057 68.5792 70.3212 68.3211C70.4163 69.1093 69.8682 69.0841 69.4604 69.9053C69.2992 70.2277 69.4753 70.7691 68.5458 71.7729ZM106.527 82.3996C106.603 81.3789 106.544 80.0609 107.042 79.1187C107.043 79.1188 107.043 79.1189 107.043 79.1189C107.136 78.947 107.376 78.8898 107.496 78.6463C107.721 80.071 107.258 81.4049 106.527 82.3996ZM71.1668 74.8395C71.5576 74.7445 71.9445 74.6477 72.3388 74.5536C72.5658 73.9881 72.7927 73.4227 73.0197 72.8573C72.7955 72.9426 72.5722 73.0281 72.35 73.114C72.4002 72.834 72.4506 72.5541 72.5013 72.2743C72.9636 71.7135 73.4269 71.1531 73.8912 70.5929C74.0406 70.9171 74.1803 71.2372 74.3289 71.5607C74.0966 71.8128 73.8647 72.0651 73.6331 72.3174C74.0801 72.8848 74.5247 71.4658 75.2159 71.1368C75.1668 71.7265 75.1193 72.3167 75.0734 72.9074C75.5321 72.482 75.9792 72.0517 76.4341 71.6244C76.7389 72.0341 76.6141 72.4494 76.0968 72.9373C76.023 73.7047 76.6761 72.7155 76.805 73.0924C76.8159 73.123 76.5175 73.7529 76.532 73.7679C77.614 74.7106 78.2249 72.9852 78.4557 72.9943C78.6204 73.0029 78.7199 74.3707 78.5751 74.7656C78.386 75.2757 76.5214 76.7718 77.996 77.5944C78.1194 77.6534 78.2525 77.7119 78.3955 77.7698C78.2216 77.822 78.0505 77.8573 77.8836 77.8769C76.5988 78.4723 76.2722 76.7173 77.7086 75.0268C77.3184 75.1169 76.2026 74.0569 76.0949 74.0862C75.9336 74.1317 75.6555 74.9472 75.491 74.9048C75.3933 74.8782 75.8913 72.9587 74.523 74.2566C74.5521 73.9197 74.5816 73.583 74.6116 73.2465C74.4249 73.4568 74.2383 73.6672 74.052 73.8776C73.8705 74.8256 73.6912 75.7744 73.5141 76.724C73.1946 75.4834 71.8716 77.0277 72.065 75.3471C71.6173 75.3675 71.3671 75.4667 71.2089 76.3015C71.0971 76.2553 70.9858 76.2093 70.8751 76.1635C70.9725 75.7223 71.071 75.2814 71.1668 74.8395ZM104.566 80.5352C104.026 81.3926 104.278 79.3659 104.358 79.2638C104.8 78.7034 104.849 80.0894 104.566 80.5352ZM69.6272 71.0536C70.2356 70.7396 70.8398 70.4234 71.444 70.1067C71.1959 70.7013 70.9477 71.296 70.6996 71.8906C70.3422 71.6121 69.9861 71.3337 69.6272 71.0536ZM108.083 82.2121C108.215 81.7459 108.346 81.2798 108.478 80.8137C108.559 82.6294 109.498 80.2378 109.606 80.7932C109.629 80.9145 109.366 81.731 109.242 81.8923C109.162 81.9923 108.126 82.3865 108.083 82.2121ZM128.891 85.1979C128.761 84.8569 128.63 84.5157 128.496 84.1743C128.445 84.7152 128.393 85.256 128.342 85.7969C128.414 85.9068 128.486 86.0167 128.557 86.1264C128.669 85.817 128.78 85.5074 128.891 85.1979ZM127.065 84.1236C126.765 84.1338 126.46 84.1436 126.149 84.1528C127.247 84.7765 126.278 84.9131 126.889 85.693C126.948 85.1698 127.006 84.6467 127.065 84.1236ZM123.902 84.8789C123.904 85.2053 123.905 85.5318 123.907 85.8582C124.212 85.8916 124.5 85.9234 124.806 85.9572C124.485 87.0544 124.183 88.1537 123.869 89.2518C123.76 89.2426 123.65 89.2333 123.539 89.2239C123.66 87.7756 123.781 86.3273 123.902 84.8789ZM59.873 70.7025C59.6988 70.649 59.5675 69.5248 59.7357 69.2029C60.1122 68.8788 60.5112 68.5649 60.9186 68.255C60.6662 68.8493 60.4139 69.4437 60.1615 70.0381C60.3216 69.7569 60.4791 69.4746 60.6372 69.1926C60.6696 69.4689 60.7135 69.7504 60.7515 70.0293C61.0399 69.539 61.3299 69.0493 61.6212 68.5602C61.4361 69.1819 61.2542 69.805 61.0691 70.4267C59.9591 71.1935 60.4376 70.1568 60.3003 70.1111C60.2319 70.0878 60.0358 70.4388 59.9314 70.613C59.9119 70.6428 59.8925 70.6726 59.873 70.7025ZM68.3176 74.9615C67.4038 74.7521 67.5904 72.9854 66.4245 74.0359C67.9901 71.4116 69.3084 75.3591 71.1748 73.3976C71.0809 73.8845 70.9876 74.3716 70.8949 74.859C70.5742 74.2578 69.8513 75.0403 69.5581 75.0739C69.326 75.1009 69.542 74.6395 69.5248 74.6403C69.5241 74.64 69.5235 74.6397 69.5228 74.6394C69.0027 74.6488 68.6713 75.0411 68.3176 74.9615ZM108.222 84.6632C107.849 85.3705 107.482 85.2183 107.699 84.1192C107.976 83.8443 108.255 83.5697 108.534 83.2956C108.433 83.5677 108.286 84.5422 108.222 84.6632ZM123.207 87.9505C122.991 88.2936 122.601 87.9297 122.889 86.988C122.942 86.821 123.287 87.5428 123.231 85.7798C123.635 85.8512 123.333 87.7535 123.207 87.9505ZM86.6264 79.1424C86.811 79.2207 87.0045 79.3004 87.1807 79.3754C87.1198 79.8256 87.0595 80.2758 86.9997 80.7261C86.8802 80.2003 86.7506 79.6712 86.6264 79.1424ZM109.914 85.8012C110.553 83.6746 110.437 85.8493 111.169 84.1444C111.304 84.1584 111.441 84.1728 111.576 84.187C111.576 84.1871 111.576 84.1872 111.577 84.1872C111.456 84.7786 111.334 85.3699 111.213 85.9613C110.778 85.9067 110.344 85.8531 109.914 85.8012ZM73.9465 75.9862C74.1465 75.7645 74.3423 75.5412 74.5405 75.3187C74.5809 75.6883 74.6225 76.0582 74.6655 76.4287C74.4875 76.6095 74.3098 76.7903 74.1322 76.9712C74.069 76.6424 74.0093 76.315 73.9465 75.9862ZM112.18 86.4727C111.664 86.6456 111.891 84.7278 112.481 84.8489C112.731 84.9024 112.723 86.2932 112.18 86.4727ZM52.4195 67.7305C52.7326 67.6671 53.0401 67.5998 53.3419 67.5288C53.2973 67.9406 53.2507 68.3516 53.2116 68.7649C52.9474 68.4232 52.6863 68.0795 52.4195 67.7305ZM125.55 87.9887C125.576 87.5847 125.601 87.1808 125.626 86.7768C125.471 86.8414 125.314 86.9059 125.155 86.9703C125.149 87.3735 125.142 87.7767 125.135 88.1799C125.274 88.1162 125.413 88.0525 125.55 87.9887ZM54.216 68.0753C54.4451 68.068 54.6551 68.0535 54.8924 68.0465C54.9735 68.2776 55.0544 68.5081 55.135 68.7379C54.8868 68.8665 54.6324 68.9921 54.3759 69.1161C54.322 68.7696 54.2687 68.4226 54.216 68.0753ZM119.38 87.5578C119.145 88.0215 118.556 86.4356 119.271 86.1231C119.723 85.9246 119.416 87.4873 119.38 87.5578ZM120.349 88.1487C119.537 88.993 120.568 84.3763 121.104 87.4973C120.279 86.9883 120.399 88.0979 120.349 88.1487ZM126.379 91.2507C126.397 91.2503 126.488 90.5804 126.636 90.5718C127.164 90.543 127.881 90.3551 128.252 90.3555C129.151 90.3564 131.756 91.8848 132.303 89.9794C132.418 89.5791 132.402 88.3418 132.437 88.2822C132.54 88.1166 132.93 88.7611 132.948 87.8536C132.497 87.8086 132.045 87.7637 131.588 87.7182C131.628 88.3643 131.667 89.0103 131.705 89.6562C130.614 89.1884 130.991 89.2713 130.822 87.855C130.566 88.3668 130.32 88.8798 130.07 89.3925C129.717 88.8082 129.37 88.2246 129.016 87.6406C129.065 88.0516 129.113 88.4626 129.161 88.8735C128.456 89.5443 128.676 89.0769 128.453 88.0684C128.407 88.4687 128.361 88.8689 128.315 89.2692C127.833 88.2264 127.565 89.4114 127.44 89.412C127.18 89.4067 127.349 84.6286 125.812 89.2296C125.627 86.9138 125.126 91.5275 125.136 89.1546C124.126 91.627 125.618 90.8569 126.275 90.8449C126.275 90.845 126.275 90.845 126.276 90.8451C126.326 90.8434 126.196 91.2641 126.379 91.2507ZM122.895 88.4883C123.111 90.6182 121.34 90.6223 122.247 87.6806C122.345 87.5924 122.443 87.5041 122.54 87.4159C122.66 87.7735 122.779 88.1311 122.896 88.4885C122.896 88.4884 122.896 88.4884 122.895 88.4883ZM104.066 86.6071C102.669 85.4592 103.784 84.4486 104.09 85.7066C104.152 85.9562 104.149 86.2816 104.066 86.6071ZM66.4831 75.9351C66.5575 75.6938 66.632 75.4525 66.7065 75.2112C67.1529 75.6552 68.5561 75.1926 67.8874 76.7492C67.4227 76.4801 66.9546 76.2087 66.4831 75.9351ZM70.3015 78.7288C70.1455 78.7751 69.584 78.8039 69.8834 78.2416C70.2575 77.9103 70.633 77.5794 71.0099 77.2489C70.9984 77.5479 70.9884 77.8475 70.977 78.1464C70.8068 78.1795 70.3429 78.717 70.3015 78.7288Z" fill="#FFE2F9"/>
</svg>
