<svg width="170" height="87" viewBox="0 0 170 87" fill="none" xmlns="http://www.w3.org/2000/svg">
<path d="M1.8445 41.5541C1.63231 33.3972 7.9931 36.5152 11.4252 35.0497C14.4666 33.7666 17.2922 31.8997 20.0288 29.8496C25.2729 25.9236 30.9903 21.8929 36.4286 19.5731C43.2453 16.6314 50.6683 14.7844 57.7423 13.7833C58.1001 13.7316 58.4283 14.343 58.596 14.3204C60.093 14.1122 62.6223 13.1194 63.5092 13.0807C63.6658 13.0736 63.8069 13.0656 63.7988 13.0792C63.7448 13.1074 63.7587 13.0837 62.4881 13.3808C62.3232 13.4324 62.4972 13.4014 62.6779 13.3645C62.8685 13.3255 63.12 13.2693 63.3798 13.2112C63.9135 13.0913 64.5175 12.9543 65.1178 12.8314C66.3301 12.5823 67.5218 12.3919 68.4396 12.4052C69.3805 12.4193 70.3283 12.274 71.0749 13.7018C71.4178 13.6914 71.2261 12.27 71.2868 12.1732C71.2881 12.1743 71.2894 12.1754 71.2907 12.1765C71.495 11.8722 72.449 12.6464 72.5812 12.5464C72.6017 12.5307 72.1913 11.5748 72.6429 11.7749C72.6822 11.792 72.8379 12.4752 73.1491 12.4015C73.226 12.3831 73.9883 11.0654 74.2681 10.9224C75.2017 10.4496 77.789 10.6333 78.9717 10.3081C79.1521 10.2607 79.1524 9.83705 79.3431 9.77945C79.4415 9.74924 79.7042 10.14 79.7344 10.1296C79.8652 10.0789 79.9338 7.97375 80.7335 11.8836C81.2782 11.4801 80.7679 10.2519 80.5651 9.42052C81.1982 9.1277 81.9854 10.8625 81.6614 8.89164C82.9237 8.6586 84.189 8.42775 85.4586 8.19891C88.9898 7.4688 91.5388 7.20595 94.0002 6.95789C93.9508 6.63741 93.9013 6.31693 93.8519 5.99645C95.2037 7.09537 95.2392 4.8774 96.1473 6.6451C96.4656 6.18017 96.7949 5.71472 97.115 5.25149C106.83 5.21457 114.783 2.85448 122.991 1.73803C123.338 1.69128 123.514 2.36395 124.08 2.29193C124.709 2.2113 125.475 1.29664 126.3 1.19076C126.861 1.11801 127.662 1.39798 128.388 1.52096C128.749 1.29139 130.133 1.49905 130.51 1.29714C130.732 1.34899 130.945 1.38692 131.14 1.39711C131.332 1.40598 131.439 0.960669 131.46 0.961643C131.587 0.97016 131.64 1.65999 131.762 1.67134C131.909 1.68327 132.044 1.16034 132.216 1.18028C132.866 1.25026 133.529 1.02757 133.607 1.03415C133.993 1.07327 134.131 1.74193 134.162 1.7473C134.598 1.79997 134.394 1.20187 134.503 1.22984C135.063 1.37868 135.561 2.87235 136.215 1.35994C136.234 1.92571 136.252 2.49149 136.271 3.05726C136.867 3.33476 136.383 1.86167 136.481 1.58193C136.511 1.47883 137.787 1.57332 137.876 1.59383C138.211 1.66767 138.275 2.41679 138.305 2.42483C138.382 2.44379 139.163 1.5332 139.634 2.15759C140.206 2.89651 139.706 4.46527 139.855 4.74259C139.881 4.78946 140.408 4.59477 140.512 5.06726C140.629 5.57533 140.165 5.59741 140.187 5.81242C140.205 5.9598 141.044 6.96432 140.948 7.68757C140.889 8.41039 139.763 7.56929 139.579 7.92018C139.546 7.97839 139.677 8.85592 139.647 8.89055C139.531 9.01844 137.12 9.21486 137.006 9.07651C137.103 8.6659 137.192 8.2558 137.294 7.84479C137.121 7.81611 136.96 7.78655 136.791 7.75752C137.003 7.41912 137.212 7.08082 137.431 6.74178C136.837 3.45805 136.035 6.88503 136.098 8.54043C136.132 9.30552 136.921 11.2253 136.394 12.412C136.5 12.6016 136.606 12.7913 136.712 12.9809C136.879 12.6456 137.044 12.3104 137.208 11.9753C137.07 11.7809 136.931 11.5866 136.791 11.3923C136.821 11.1594 136.851 10.9265 136.881 10.6937C137.203 10.3011 137.531 9.90807 137.862 9.51474C138.056 9.6717 138.065 10.3523 138.199 10.4747C139.858 12.017 138.712 9.98644 139.745 10.2177C139.916 10.5715 140.081 10.9257 140.254 11.2793C140.094 9.77737 140.624 10.6899 141.116 10.0019C141.086 10.4938 141.057 10.9857 141.027 11.4776C141.792 11.1623 143.575 13.503 142.949 10.8457C143.149 11.0621 143.347 11.2786 143.543 11.4952C143.664 11.0445 143.777 10.5944 143.902 10.1434C144.121 10.1782 144.337 10.2132 144.551 10.2483C144.569 10.4862 144.588 10.7242 144.606 10.9621C144.439 10.9757 144.269 10.9894 144.099 11.0032C144.279 11.7191 144.46 12.4351 144.639 13.1512C144.754 13.0217 144.869 12.8924 144.983 12.763C144.419 12.1144 145.008 10.9454 145.115 9.97505C145.535 9.58868 145.901 10.8114 146.05 10.8568C146.124 10.8782 146.784 8.62546 146.639 11.0586C147.031 10.7357 147.443 10.4112 147.836 10.0881C148.009 10.2612 148.193 10.4335 148.373 10.606C148.095 11.7549 149.238 13.0303 148.503 13.5523C147.954 13.9437 147.746 12.9039 147.471 12.9315C147.22 12.9551 147.152 13.6706 146.889 13.7216C145.12 14.0511 143.658 14.0269 141.945 13.8354C141.595 13.7973 141.332 14.1644 141.101 14.1321C140.844 14.0943 141.099 13.185 140.79 13.4239C140.465 13.6763 140.436 14.4055 140.352 14.4261C140.298 14.4382 140.078 13.7996 139.917 13.811C139.246 13.8588 138.317 14.5566 138.22 14.5598C138.103 14.5609 136.185 14.1045 136.079 14.0043C136.027 13.9494 135.96 11.5386 135.726 14.1301C135.601 14.1866 135.475 14.2432 135.348 14.2998C135.335 13.818 135.323 13.3362 135.311 12.8544C134.666 14.7287 134.849 13.6925 134.129 13.8857C133.343 14.094 132.398 14.1631 131.385 14.2047C131.179 14.315 130.423 14.2015 130.225 14.3269C129.015 14.4666 127.756 14.5597 126.725 14.7965C126.304 14.8936 126.22 15.487 125.726 15.596C125.273 15.6947 123.817 14.1539 124.4 16.48C123.099 14.5719 123.386 18.1224 122.579 15.9903C122.558 16.3187 122.537 16.6471 122.517 16.9754C121.778 15.6747 121.752 16.906 121.157 17.1521C120.9 17.2587 121.018 15.7579 120.692 17.4539C120.575 17.3459 120.456 17.238 120.337 17.1302C120.316 16.7734 120.295 16.4167 120.273 16.0599C119.708 16.4263 119.648 16.2465 119.885 17.5616C119.564 17.3576 119.246 17.1532 118.929 16.9485C118.949 17.3874 118.967 17.8267 118.986 18.2657C119.23 19.083 125.627 16.9795 126.469 16.4511C127.638 17.264 129.517 15.8476 130.446 15.8645C130.624 15.7516 131.304 15.8537 131.49 15.7544C131.518 15.7569 131.545 15.7606 131.571 15.7656C131.935 15.8359 132.161 16.8135 132.679 16.8975C133.188 16.9822 133.788 16.0393 134.055 15.9888C134.951 15.816 139.281 15.712 136.426 17.1463C136.545 17.6221 136.664 18.0979 136.783 18.5736C137.844 16.8479 137.466 17.8912 138.462 17.9919C138.875 18.0358 139.762 16.8921 139.866 19.0835C139.13 19.5449 138.282 18.9017 137.631 18.9789C137.57 18.9866 136.855 20.0403 136.435 19.7967C136.06 19.5737 136.167 17.4705 135.541 19.8671C134.787 17.6204 134.607 19.7182 134.466 19.9496C134.227 20.3504 134.12 19.2232 133.843 19.1101C133.541 18.9849 133.385 19.7485 133.35 19.7559C133.135 19.78 132.412 19.8649 131.768 19.8611C131.637 19.9313 131.156 19.8591 131.031 19.9389C130.525 19.9728 130.084 19.942 130.014 19.746C130.067 19.5357 130.12 19.3254 130.174 19.115C129.602 18.87 129.875 20.0001 129.756 20.1568C129.652 20.1672 129.549 20.1775 129.446 20.1878C129.453 19.9443 129.46 19.7009 129.467 19.4575C128.856 19.5949 129.444 20.355 128.554 20.4571C127.989 20.521 127.289 19.6921 127.241 19.7671C127.227 19.7886 127.49 20.3762 127.27 20.49C126.906 20.6774 126.249 20.7507 126.064 19.9275C125.895 20.0704 126.021 20.8833 125.999 20.9052C125.897 21.0006 124.082 21.5252 123.747 21.6178C122.842 21.8718 121.785 21.8322 120.799 22.0979C120.697 22.1249 120.696 21.5929 120.594 21.623C120.43 21.6715 119.685 22.6009 119.565 22.6751C119.26 22.8582 118.381 22.6374 118.281 22.8917C118.267 22.9278 118.629 23.6013 118.336 23.8609C118.009 24.1484 118.082 23.1724 118.062 23.1652C117.283 22.9318 116.915 23.649 116.427 23.8392C116.269 23.9004 115.881 23.2206 115.679 23.4603C115.656 23.4876 115.789 24.1435 115.768 24.1793C115.467 24.5689 114.995 23.3791 114.833 23.3181C114.441 23.1685 114.753 24.0511 114.734 24.0599C114.493 24.1188 114.125 23.8317 113.763 23.9197C112.128 24.3149 110.781 24.5338 109.002 24.6893C108.779 24.7092 108.438 24.1014 108.405 24.1047C108.3 24.1224 108.427 24.8701 108.115 24.8911C107.463 24.9318 106.878 25.0408 106.234 25.1061C106.106 25.119 105.964 24.4292 105.865 24.4263C105.531 24.4236 104.635 26.3891 104.331 24.1227C103.92 26.2159 103.279 24.5393 102.739 24.6294C101.487 24.8361 99.5538 25.5169 98.2264 25.4518C97.947 25.4367 97.734 24.8765 97.5784 24.8683C97.2912 24.8509 95.768 25.4275 95.6719 25.3525C95.4858 25.2045 95.1348 22.6441 94.6701 25.008C94.1968 25.255 94.0616 24.2041 93.9464 24.1669C93.0439 23.8986 92.6759 26.3869 92.4032 24.2323C91.5045 25.0151 91.1406 26.3299 90.2227 24.4678C90.3856 25.1296 90.264 25.6656 89.9547 25.8653C89.8428 25.9482 89.6949 25.9616 89.5166 25.8865C89.5476 25.2381 89.5227 24.6904 89.5457 24.2582C89.6311 23.5237 89.9235 23.0902 90.8896 23.0685C90.9142 23.068 91.0246 23.7755 91.0491 23.775C91.2774 23.7734 91.6221 23.3297 91.9836 23.2951C92.3431 23.2612 92.248 23.7793 92.3815 23.7426C92.5027 23.7084 92.3643 23.0386 92.5434 22.9932C93.1336 22.8495 93.5973 22.5729 93.9275 22.5011C94.1392 22.4558 94.4589 23.0097 94.6165 22.9823C95.2356 22.8681 96.3947 22.204 97.1582 22.1549C97.3141 22.1466 97.3502 22.8229 97.6917 22.8279C97.7316 22.8285 97.7689 22.1119 98.0444 21.9238C98.3237 21.7353 98.5892 22.0496 98.7676 21.9504C98.9153 21.8678 98.7605 21.2589 99.0786 21.1742C99.3474 21.0997 102.386 21.1443 102.553 21.2262C102.806 21.3382 103.024 22.1945 103.149 22.0705C103.171 22.0447 103.103 21.1991 103.181 21.1281C104.464 19.9516 107.693 20.7187 109.255 20.5222C112.539 20.1109 115.478 19.2546 118.71 18.6486C118.75 18.495 118.79 18.3414 118.83 18.1878C118.498 18.2241 118.168 18.2599 117.839 18.2954C117.788 17.9001 117.736 17.5047 117.684 17.1094C117.236 17.102 117.408 18.0305 117.492 18.5934C117.296 18.3747 117.1 18.1558 116.904 17.9368C116.932 19.3334 115.719 18.5527 115.148 18.625C114.78 18.6703 114.404 19.2499 114.201 19.2333C113.776 19.1997 113.684 18.3473 113.649 18.3377C113.591 18.3253 113.112 19.1454 112.685 19.168C112.059 19.2022 111.846 17.9021 111.125 19.1158C109.968 18.5683 108.784 19.058 107.627 19.3122C107.707 18.0766 106.775 19.3509 106.302 19.3902C103.354 19.6349 99.6542 19.5762 96.3521 19.6033C95.9284 19.6078 95.5047 18.9499 95.2669 19.0126C95.14 19.0456 95.2208 19.8886 95.0261 19.8075C94.9914 19.7915 94.8417 19.0149 94.4903 18.9534C93.6034 18.7933 91.6975 20.4935 90.7746 19.1464C90.0367 19.3589 89.2434 19.5958 88.4266 19.861C86.5694 20.5182 84.7171 21.1815 82.8751 21.849C82.7302 21.5532 82.5854 21.2574 82.4407 20.9616C82.3873 22.6808 80.2791 22.2342 79.3925 22.5513C77.8336 23.1095 75.9306 24.1542 74.562 24.5848C74.2602 24.6795 73.8878 24.2958 73.6101 24.3814C73.4862 24.4203 73.4916 25.0478 73.3649 25.0857C71.9499 25.5197 69.8394 25.4528 68.4421 25.8509C67.3787 26.154 66.0522 26.5097 65.6039 26.6072C66.2217 26.4675 66.0428 26.5149 65.9347 26.5253C65.7823 26.5471 65.5594 26.5779 65.3017 26.6136C64.7852 26.6849 64.1975 26.7667 63.582 26.8596C62.3459 27.046 61.0609 27.2668 59.737 27.5418C48.4751 29.8565 37.8692 35.1524 28.7254 41.8477C26.9058 43.1745 25.0967 44.4932 23.2378 45.8496C23.1028 45.9481 22.6815 45.3918 22.5765 45.4673C21.9514 45.9077 20.9677 47.4203 20.2596 47.9577C19.705 48.3749 18.1462 48.2822 18.6501 49.2629C21.6348 48.8838 23.5443 47.2236 25.8096 46.0743C25.9687 45.9938 26.3869 46.5092 26.4114 46.5059C26.8705 46.4477 26.1165 45.872 26.5618 45.4851C26.7043 45.3581 29.4037 45.9905 27.9774 44.4251C28.4287 44.6475 29.3816 44.3533 30.241 43.9388C31.0839 43.5109 31.8292 43.0257 32.008 42.745C32.1245 42.5624 31.6562 42.126 31.6711 42.0775C31.7369 41.8658 32.2847 42.5347 32.4233 42.468C32.7902 42.2827 33.2594 41.1399 33.4373 41.033C33.8327 40.7838 35.3387 40.6692 35.7727 40.2195C36.1648 39.8093 35.6184 39.0879 35.988 38.775C36.281 38.5322 36.305 39.3906 37.1484 39.1697C37.562 39.058 38.5638 37.8881 38.8842 37.7212C39.1992 37.5534 39.7861 37.8526 40.2027 37.5924C40.7988 37.2168 42.0332 36.2794 42.6089 35.8253C42.6429 35.7987 42.4423 35.1203 42.544 35.0894C42.7553 35.0244 43.0575 35.8366 43.2441 35.8478C43.4306 35.845 45.9861 34.6229 46.4465 34.4633C46.7583 34.343 46.7826 33.7803 46.9559 33.7172C47.0922 33.6691 47.3677 34.3344 47.5056 34.2895C47.5438 34.2747 47.6874 33.5488 48.0589 33.4253C48.4077 33.3064 49.9207 33.3959 50.0704 33.3532C50.1693 33.3216 49.8944 32.875 50.1893 32.7866C50.4547 32.7089 50.8524 33.2761 51.0058 33.2352C51.3677 33.1372 51.5784 32.473 51.9594 32.3496C53.0548 31.9984 53.2246 32.8136 53.2986 32.8177C53.4949 32.8364 53.3585 32.0909 53.4134 32.0584C53.6509 31.9215 54.2282 31.6107 54.4405 31.5215C54.7169 31.4065 55.0272 32.0639 55.3232 31.9862C55.5419 31.9266 55.8073 31.1328 56.3158 30.9688C57.4439 30.5986 58.7852 30.1573 59.9342 29.951C60.2675 29.8906 60.4516 30.5209 60.5588 30.5169C61.1238 30.4967 61.2692 29.7269 61.4376 29.7051C62.5654 29.5569 64.6781 30.3836 65.5847 30.3515C65.7123 30.3462 65.9808 30.2515 66.2508 30.1364C66.3779 30.08 66.5236 30.0154 66.5953 29.9629C66.6651 29.9126 66.712 29.8566 66.3798 29.9008C66.4858 29.8205 66.7747 29.7159 67.0005 29.6867C67.0878 29.6739 67.1373 30.1909 67.2143 30.0877C67.4011 29.8394 67.1062 28.8377 67.2378 28.8353C67.3066 28.836 67.5828 29.3712 67.7784 29.3792C68.7752 29.4247 69.3155 28.8012 69.7652 28.7107C74.0606 27.843 78.5186 26.9106 82.5529 25.9441C83.0057 25.8347 83.4023 25.0883 84.229 25.4952C84.3317 25.8035 84.4345 26.1118 84.5372 26.4201C84.4802 26.1056 84.4232 25.7912 84.3663 25.4767C85.0945 25.1081 85.2724 24.638 86.1617 24.8268C86.2372 24.8424 86.8122 26.2227 86.4796 24.4097C87.5899 25.4987 86.8314 24.3076 87.3729 24.0402C87.9184 23.772 88.5794 24.0265 89.1624 23.9733C89.6292 24.5339 88.7268 26.3322 88.6399 26.3497C88.503 26.3788 88.1354 25.5293 87.9936 25.5156C87.5739 25.4733 87.3854 26.2711 87.0937 25.5038C86.8111 26.4676 87.3234 25.8902 87.4554 26.6586C87.0414 26.4334 86.6333 26.2069 86.2219 25.9815C86.7131 28.5837 84.0193 25.7245 84.656 27.6383C84.4102 27.2862 84.1632 26.9344 83.9138 26.5833C83.9164 29.1927 83.0884 27.5723 82.0524 27.0694C82.1955 27.3655 82.3387 27.6616 82.482 27.9577C82.5028 28.0915 81.8795 28.7907 81.7969 27.3897C81.4955 29.3446 80.75 26.4238 80.6247 28.7124C80.2944 29.09 80.2049 27.8036 79.4809 28.02C79.0541 28.1469 78.6867 28.9309 78.2127 29.1065C78.1029 29.145 77.8636 28.4505 77.7646 28.4772C77.6659 28.5041 77.8051 29.2108 77.6913 29.2603C77.4544 29.3646 76.9964 28.966 76.8568 29.0542C76.7319 29.1311 76.6958 29.7974 76.3875 29.9845C75.3147 30.6413 75.428 29.6728 75.1645 29.427C74.887 29.1651 75.0482 30.3572 74.6217 30.3304C74.5787 30.327 74.484 29.5825 74.3646 29.6454C74.2696 29.695 74.4276 30.4892 74.123 30.7287C74.0093 30.8225 71.9291 31.5729 71.6178 31.6739C71.1367 31.8288 69.8591 31.4707 69.3656 31.6102C69.1667 31.6646 69.1439 32.3429 68.9333 32.3955C68.4139 32.5241 67.5154 32.7272 67.0633 32.8026C67.2565 32.7513 67.1739 32.765 67.0841 32.7727C66.6212 32.821 64.7479 31.6441 64.4769 32.9995C63.2574 33.3641 62.7585 32.3375 62.6528 32.3395C62.3909 32.3441 62.4022 33.0853 62.0766 33.1801C57.9093 34.347 52.2353 35.4633 48.396 37.061C42.5528 39.4356 37.0791 42.6618 32.0179 46.3902C29.576 48.1909 27.1371 50.0018 24.6559 51.8566C24.8401 52.1246 25.0244 52.3925 25.2088 52.6602C26.1713 52.156 27.4704 51.8542 28.3656 51.329C29.5476 50.6315 30.3681 48.3336 32.4835 49.532C32.2694 49.9302 31.2431 49.633 31.9322 50.5411C32.549 50.1848 33.1802 49.8222 33.8056 49.4682C33.4786 49.0551 33.1515 48.6421 32.8243 48.2291C32.9214 48.1232 33.0252 48.0242 33.1337 47.9296C33.6435 47.4904 34.2264 47.1592 34.7337 46.7379C34.8443 46.6474 34.4915 46.3095 34.5931 46.2374C34.7074 46.1575 34.9026 46.613 34.9263 46.6016C35.218 46.4096 35.0315 45.9431 35.0711 45.9249C35.1729 45.8804 35.3631 46.3161 35.6958 46.2527C36.3095 46.1403 35.986 44.8707 36.9952 46.6861C37.1519 46.585 37.3083 46.4848 37.4647 46.3856C37.2028 45.8835 36.9419 45.3807 36.682 44.8775C38.8486 46.2056 37.2536 42.5071 39.4174 44.912C39.3505 44.3896 39.2848 43.8675 39.2304 43.34C39.6164 43.769 39.9999 44.1997 40.3808 44.6322C40.1612 44.2 39.942 43.7675 39.7232 43.3349C40.8821 43.0869 41.6711 42.005 42.68 41.5576C43.3791 41.2493 43.6179 41.3459 44.2145 41.0186C45.5265 40.3087 44.6053 41.8005 46.1435 42.232C45.839 41.7183 45.5329 41.2054 45.2253 40.6933C45.3233 40.4087 45.4224 40.1246 45.5227 39.8409C45.8533 40.2233 46.1808 40.6075 46.5055 40.9934C46.0644 38.4418 47.2729 40.1328 47.3436 40.1027C47.4035 40.0732 47.0452 38.5795 48.2263 39.481C47.1539 37.6847 48.7621 39.2511 48.8259 39.2404C48.8908 39.2226 49.52 38.4818 49.8628 38.3754C50.1311 38.29 50.8205 38.5104 51.2066 38.3504C51.5414 38.2112 51.2745 37.5617 51.2973 37.5459C51.7 37.3438 51.615 37.9507 51.9253 37.872C52.2315 37.7953 52.2889 37.1458 52.3711 37.1748C52.4134 37.1907 52.5087 37.848 52.6806 37.8574C53.1383 37.8862 53.7022 37.1049 54.1803 36.9774C54.35 36.931 54.7109 37.4014 54.9055 37.3614C55.1989 37.2996 55.1261 36.5539 55.2989 36.5268C55.3638 36.5182 56.0279 37.5108 56.4447 37.2152C56.5174 37.1589 56.1615 34.7595 57.3685 37.9696C57.2713 37.4987 57.1746 37.0277 57.0784 36.5566C58.3563 34.9975 59.6526 38.7111 59.5827 35.1767C60.7935 35.3065 60.3028 36.7947 60.4726 36.9687C60.5725 37.0804 60.866 36.6389 60.91 36.6515C60.9896 36.677 61.0659 37.1032 61.1425 37.0848C62.5309 36.7207 61.7571 36.0462 62.1061 35.45C62.9784 34.033 64.2787 36.5799 62.2769 36.112C62.322 36.3492 62.3671 36.5864 62.4122 36.8236C62.8302 36.5066 64.0014 36.414 63.8258 37.6878C63.6988 38.6776 60.8972 38.5859 62.6786 39.6155C63.0659 39.8529 63.096 38.924 63.9727 40.4927C64.3653 40.5168 64.0631 38.3347 64.7283 39.1191C64.5108 38.3769 64.3044 37.6329 64.0873 36.8908C64.6707 35.7762 65.7839 36.964 66.2583 36.4589C66.4384 36.2839 66.527 32.5699 66.9205 36.2116C67.0121 36.1235 67.2045 36.1155 67.442 36.1288C67.64 36.1498 67.9328 36.1757 67.8718 36.2346C68.077 36.2387 68.3131 36.1882 68.3582 36.0563C68.3981 35.9636 67.9703 34.0647 69.002 34.4926C69.1254 34.7123 69.2505 34.9316 69.3771 35.1504C68.7545 36.053 70.3675 36.3658 70.4639 38.255C70.1228 37.4866 69.3316 37.1742 69.1324 36.7941C68.7797 36.1431 69.0463 35.1139 68.467 35.5278C68.8428 38.6246 69.6531 36.9404 70.2393 39.8201C70.7711 38.2589 71.2028 39.4945 71.4208 39.4918C72.3509 39.4673 72.8117 39.0178 73.7228 39.1227C73.7596 38.4875 72.05 38.0548 71.9343 38.356C72.0401 36.1116 70.8603 36.3352 70.7047 37.6922C70.4946 37.0801 70.2872 36.4674 70.0764 35.8555C70.8004 36.0214 71.4671 36.0249 71.9582 35.3406C72.0636 35.5621 72.1693 35.7834 72.2753 36.0047C72.2268 36.3951 72.1813 36.7846 72.1388 37.1733C72.8151 37.605 72.0143 35.8723 73.1452 37.2724C72.9745 36.5652 72.8038 35.858 72.6332 35.1508C73.3669 35.1996 74.1134 35.2449 74.8494 35.2935C74.8125 33.7915 76.26 33.9591 76.519 35.8453C77.0841 35.8293 76.1701 35.0372 76.5381 34.4607C76.6952 34.2113 77.1108 34.0401 77.3421 34.5037C77.7749 36.2489 77.1955 36.6379 77.3386 37.8785C77.5502 38.2326 80.1358 36.2017 80.4169 38.3042C80.7148 38.4857 80.3249 37.469 80.6759 37.0873C81.6504 36.024 84.0159 37.6087 84.2787 34.7615C82.7796 33.612 82.8559 35.2303 82.0226 35.5182C81.4922 35.701 78.2345 36.845 78.481 34.8098C78.4218 35.076 78.369 35.3405 78.3065 35.6076C78.0335 35.0955 77.7612 34.5832 77.4898 34.0708C77.8186 33.8971 78.1417 33.7251 78.4697 33.552C78.7007 34.0741 78.932 34.5961 79.1635 35.1181C79.0971 34.7187 79.029 34.3198 78.9619 33.9206C79.0857 33.8043 79.2107 33.6877 79.3369 33.5707C79.4217 34.0495 79.5066 34.5282 79.5917 35.0068C79.8376 35.0263 80.092 35.0435 80.3338 35.0642C80.1055 34.4555 79.8772 33.8468 79.649 33.238C80.6637 32.7966 80.419 33.2822 81.3161 34.2948C81.7892 34.2963 80.7209 33.2944 81.5756 32.7389C82.5631 32.0961 82.3617 34.1954 83.6591 33.4138C83.5969 33.0963 83.5348 32.7788 83.4727 32.4612C83.8606 32.6926 84.2516 32.9232 84.646 33.1532C84.5024 32.7759 84.3589 32.3985 84.2153 32.0211C84.8913 32.0037 85.5817 31.0308 86.1886 32.5002C85.354 31.9346 86.0539 34.5944 86.3524 35.0387C86.8469 35.7869 90.2077 34.4003 91.9506 33.7078C92.3381 33.554 92.674 33.4334 92.8486 33.3807C94.1624 32.9924 95.3032 33.6761 96.2708 32.1327C95.2618 31.1646 92.5176 32.6479 91.7637 32.0681C91.7061 32.0213 91.3217 30.4883 91.3217 31.2364C91.3257 31.436 91.359 31.7993 91.4359 32.3986C90.2416 32.2064 89.1514 33.316 87.79 33.5844C87.6486 32.8713 87.5074 32.1581 87.3664 31.4449C88.5796 32.7245 88.5019 29.244 89.0969 32.0022C89.2598 31.9603 89.4235 31.9182 89.588 31.8759C89.4671 31.4055 89.3463 30.9351 89.2254 30.4646C89.4728 30.4011 89.7269 30.3359 89.9729 30.273C90.0933 30.7435 90.2137 31.214 90.3341 31.6846C90.5381 31.6324 90.7431 31.58 90.9493 31.5274C90.8511 31.0527 90.7529 30.5779 90.6548 30.1031C90.782 30.2229 90.9219 30.2575 91.0677 30.2387C92.0231 30.0967 93.2341 28.2165 92.895 30.8115C93.201 30.745 93.5225 30.6781 93.8319 30.616C93.761 30.268 93.6901 29.92 93.6192 29.572C93.7436 29.4984 93.8692 29.4249 93.9961 29.3516C94.0127 29.6758 94.03 30 94.0481 30.3241C94.5666 29.6352 95.4367 31.1977 95.6365 30.0333C95.3415 29.8386 95.0201 29.6498 94.7141 29.4596C95.3112 29.8166 96.0665 28.7171 96.1591 28.6997C96.4082 28.6529 96.6578 29.3393 96.937 29.3308C97.1897 29.3213 97.0686 28.7821 97.1181 28.7938C98.5248 29.14 98.4756 32.1725 98.5528 28.5839C98.6898 29.0516 98.8264 29.5194 98.9627 29.9873C98.9898 29.5759 99.0179 29.1645 99.0469 28.753C99.4447 28.7326 99.8256 28.7159 100.224 28.6977C100.009 28.1185 99.7938 27.5395 99.5779 26.9607C100.132 26.6092 100.561 27.7719 100.622 27.7913C100.79 27.839 100.759 27.0764 100.808 27.0682C103.172 26.8131 101.844 27.6684 103.375 30.3435C103.645 29.1788 103.079 28.1207 102.871 26.999C103.498 27.4559 103.629 27.1208 104.22 27.1087C104.374 27.1063 104.617 27.6949 104.715 27.6909C104.802 27.6871 104.973 27.007 105.171 26.9793C105.499 26.933 105.999 27.2627 106.443 27.1977C106.819 27.141 107.911 26.5414 108.714 26.4386C109.053 26.3971 109.041 26.949 109.129 26.9394C109.165 26.9349 109.352 26.2529 109.573 26.2235C111.357 25.9916 113.23 26.1825 115.012 25.9522C116.267 25.7912 117.477 25.1116 118.74 25.0072C119.008 24.9859 118.927 25.4802 119.045 25.4825C119.086 25.4817 119.029 24.6441 119.485 24.9263C119.65 25.028 119.551 25.6314 119.702 25.6418C119.775 25.6467 119.719 24.913 120.11 24.6945C120.824 24.2954 121.361 25.2141 121.425 25.1765C121.547 25.104 121.432 24.5056 121.597 24.4624C122.402 24.2512 123.087 24.058 123.811 23.9115C124.154 23.843 126.506 23.4046 126.647 23.4949C126.969 23.6965 126.87 24.9916 127.236 24.8981C127.297 24.5653 127.358 24.2325 127.42 23.8997C127.22 23.6804 127.022 23.461 126.823 23.2414C127.332 23.5844 127.779 22.9401 128.116 22.9157C128.178 22.9122 128.829 23.4036 129.114 23.3002C129.022 23.554 128.931 23.8077 128.839 24.0613C128.911 24.2568 128.983 24.4523 129.055 24.6478C129.602 24.2602 130.221 24.1812 130.828 24.1392C131.047 24.1231 131.043 24.6231 131.266 24.6085C131.434 24.5981 131.571 24.5556 131.685 24.4973C131.752 24.4546 132.009 24.4932 132.079 24.4557C132.883 24.122 132.696 23.0098 134.004 26.2877C133.672 26.0502 132.773 26.3151 132.213 26.423C132.169 26.4466 132.007 26.4224 131.965 26.4492C131.778 26.5006 131.634 26.5292 131.572 26.5046C131.404 26.4379 130.35 23.2936 131.038 26.5763C129.806 26.7357 130.623 24.7564 129.525 25.3179C129.604 25.7193 129.684 26.1206 129.763 26.522C129.396 26.8334 129.127 27.079 128.786 26.3985C128.981 28.3724 127.444 27.4134 126.719 27.6455C125.655 27.9804 124.493 28.6216 123.43 28.8454C123.06 28.9226 122.751 28.1794 122.705 28.1878C122.638 28.2022 122.534 28.9014 122.4 28.9236C121.895 29.0084 120.215 28.0629 120.06 29.9857C123.084 29.6047 126.102 29.2099 129.114 28.7934C128.608 27.9277 131.636 27.4122 131.8 27.4335C131.95 27.454 131.921 28.1165 131.969 28.1495C132.061 28.209 132.139 28.1886 132.205 28.1253C132.226 28.1121 132.305 28.1241 132.327 28.1125C132.534 27.9444 132.671 27.4127 132.747 27.4075C132.825 27.4024 133.012 27.834 133.286 27.8056C133.336 27.8008 133.318 27.3321 133.372 27.327C133.727 27.3028 134.079 27.2854 134.445 27.2579C134.467 27.2609 134.605 27.938 134.697 27.9329C134.788 27.9267 134.831 27.2378 134.854 27.2341C135.142 27.2192 135.655 27.6301 135.938 27.6154C136.034 27.6085 135.933 27.1128 136.04 27.1102C136.37 27.0996 136.33 28.0865 136.715 27.8065C136.843 27.7122 136.783 26.9638 137.044 27.0449C137.234 27.1023 137.308 28.4384 137.341 28.4848C137.387 28.5405 137.953 27.4419 138.218 28.3013C137.93 30.6391 138.716 28.3874 138.603 27.4174C138.877 27.6445 139.148 27.8717 139.416 28.0991C139.484 27.8467 139.552 27.5942 139.619 27.3418C140.712 28.3808 141.279 27.6705 142.306 27.9408C142.35 27.9547 143.236 28.442 143.221 28.7914C142.748 29.4247 142.266 29.4866 141.859 28.4075C141.468 30.548 141.355 28.8725 140.514 29.2123C140.231 29.3273 140.249 29.8991 140.216 29.9088C139.14 30.2699 137.336 30.6423 136.491 29.025C136.313 29.4906 137.078 29.6173 136.809 29.9697C136.66 30.1635 132.831 30.9609 133.932 28.9561C133.809 29.018 133.687 29.0798 133.563 29.1417C133.561 30.9642 132.893 30.5929 132.842 28.7813C132.806 29.1552 132.771 29.5291 132.734 29.903C132.668 30.1183 132.586 30.2689 132.481 30.379L132.528 30.374C132.481 30.4316 132.427 30.4799 132.367 30.5217C131.664 31.0099 127.097 31.003 126.893 31.2892C126.945 31.7156 126.996 32.1421 127.048 32.5685C128.972 32.7705 130.658 31.6158 132.793 32.2236L132.607 32.2432C132.745 32.2929 132.883 32.3502 133.022 32.416C132.931 32.0184 132.84 31.6208 132.749 31.2232C133.665 31.7266 134.561 32.2311 135.469 32.7343C134.747 33.3896 133.662 33.989 132.717 33.8728L133.025 33.8403C132.83 33.8308 132.64 33.79 132.46 33.7118C132.273 33.6302 132.32 33.0561 132.271 32.9943C132.143 32.8339 132.169 33.8148 131.815 33.9607C131.463 34.1062 130.435 33.5523 130.354 33.583C130.196 33.6456 129.908 34.8114 129.63 34.8355C129.259 34.8668 129.412 34.149 129.336 34.1447C129.02 34.1196 128.793 34.4959 128.548 34.4778C128.185 34.4508 127.291 33.3465 127.278 35.1466C127.541 35.1935 127.812 35.2391 128.071 35.2862C126.778 36.106 125.41 33.9886 124.29 35.9064C124.258 38.0871 125.349 37.6511 124.513 38.6887C124.682 38.6357 124.854 38.5821 125.019 38.5294C125.001 38.076 124.982 37.6225 124.964 37.1691C125.3 37.4509 125.637 37.7322 125.977 38.0131C125.839 37.6249 125.702 37.2366 125.565 36.8483C126.585 36.4078 127.571 35.8585 128.237 37.9538C128.188 37.432 128.14 36.9103 128.091 36.3885C129.144 36.8892 130.31 34.4873 130.433 37.4113C130.458 37.252 130.483 37.0927 130.508 36.9333C131.179 37.4413 130.762 36.2829 130.964 36.1172C131.024 36.0705 132.254 36.5256 131.869 37.4533C133.076 37.9506 132.351 35.3026 132.641 35.1407C132.85 35.4253 133.065 35.5276 133.27 35.5434L132.834 35.5894C133.512 35.6927 134.113 34.8305 133.811 36.4948C133.923 36.5674 134.034 36.64 134.145 36.7126C134.373 35.0161 134.853 36.8853 135.278 37.492C135.41 37.521 135.541 37.55 135.671 37.579C135.718 37.0102 135.765 36.4413 135.811 35.8725C137.202 38.4689 136.32 31.1669 137.294 37.2855C137.234 37.6598 137.174 38.034 137.114 38.4083C136.922 38.5974 136.728 38.7867 136.533 38.9761C137.378 39.081 138.205 39.1868 139.039 39.2917C140.206 40.9441 140.665 39.0304 141.927 40.3127C142.023 40.1413 142.118 39.9699 142.213 39.7985C142.206 41.2 141.764 41.0256 142.599 41.5949C142.735 42.5758 142.212 42.7412 141.921 42.0019C141.85 41.8215 142.289 41.0316 141.733 41.0442C141.351 41.0521 142.131 42.1875 140.951 41.8298C141.009 42.0678 141.069 42.3056 141.129 42.5434C141.001 42.5454 140.884 42.5466 140.761 42.5483C140.613 41.9986 140.465 41.4489 140.317 40.8993C140.096 41.7238 140.002 42.864 139.35 42.6684C139.497 42.3073 139.187 41.2044 138.87 41.2454C138.899 41.6488 138.927 42.0521 138.955 42.4554C138.203 42.7684 138.369 41.5679 137.806 42.5352C137.721 42.2189 137.635 41.9027 137.549 41.5864C137.294 42.932 136.063 43.9201 136.164 41.9226C135.944 43.8722 135.108 43.0566 134.729 41.5355C134.735 41.9375 134.741 42.3395 134.747 42.7415C134.605 42.8328 134.462 42.9242 134.318 43.0156C134.218 42.779 134.118 42.5424 134.017 42.3058C133.927 42.5553 133.837 42.8049 133.746 43.0544C133.654 42.6569 133.561 42.2593 133.469 41.8618C133.413 42.06 133.356 42.2583 133.299 42.4565L134.247 42.3565C134.184 42.6575 134.121 42.9584 134.058 43.2592C133.907 42.9562 133.755 42.6531 133.604 42.3499C133.71 43.1838 132.696 43.5165 132.326 43.0111C132.272 43.2653 132.218 43.5195 132.165 43.7736C132.067 43.3833 131.969 42.9931 131.871 42.6028C131.85 42.9288 131.829 43.2549 131.809 43.5809C131.615 43.2847 131.422 42.9884 131.23 42.6919C130.893 44.7185 130.638 43.0163 130.5 43.0476C130.243 43.1058 129.533 44.4421 129.379 44.399C129.225 44.3557 129.063 43.6672 128.934 43.6178C126.835 42.7838 127.892 44.5475 127.54 44.8962C127.353 45.0854 127.113 44.4546 126.936 44.5513C126.632 44.7146 125.141 45.7852 125.035 45.7127C124.885 45.6084 124.804 42.4963 124.47 43.3441C124.668 44.9954 123.526 43.4498 124.255 45.6943C123.844 45.5419 123.429 45.3896 123.021 45.2363C123.311 47.1865 122.687 45.9879 122.177 46.1624C121.465 46.4071 119.979 47.8979 119.792 45.8832C119.675 46.3659 119.563 46.848 119.441 47.3312C118.162 46.8478 117.086 47.6512 115.904 47.8196C112.418 48.3202 108.609 48.3316 105.258 48.3733C105.099 48.3745 105.032 47.7171 104.915 47.7179C104.3 47.7254 102.82 48.4007 102.002 48.3753C101.734 48.3682 101.515 47.7496 101.429 47.7326C101.139 47.6707 101.332 48.5002 101.204 48.4951C100.991 48.4871 99.8314 47.8727 99.4757 47.85C99.2986 47.8382 99.2034 48.5387 98.9742 48.3673C98.9544 48.3536 98.866 47.6632 98.8496 47.6538C98.4783 47.6327 98.7976 48.1867 98.6731 48.1767C97.7756 48.1069 96.9015 48.2652 96.1295 48.2996C95.9893 48.3057 95.7555 48.0992 95.5819 47.9763C95.4774 47.9354 95.384 47.9075 95.3147 47.9115C95.2234 47.9179 95.51 48.3892 95.1979 48.4237C95.0912 48.4355 94.8863 47.7798 94.7593 47.7663C94.2163 47.712 94.591 49.8916 93.7214 48.2845C92.9206 48.6104 91.6192 49.5325 90.8646 49.7425C90.6859 49.7913 90.4965 49.4221 90.3288 49.4734C90.2113 49.5092 90.155 50.1728 89.9674 50.2299C89.7784 50.287 89.3345 49.7856 88.9739 49.9033C88.592 50.0266 88.2176 50.4929 88.1262 50.5149C88.0212 50.5427 87.779 49.8259 87.6769 49.8629C87.3701 49.9692 86.7128 50.9119 86.3345 51.0961C85.9153 51.296 85.5629 51.0116 85.4175 51.0581C85.2827 51.1047 85.284 51.764 85.2227 51.7863C85.127 51.822 84.9105 51.1093 84.7881 51.1487C84.5897 51.2146 84.5018 51.7231 84.1981 51.8178C80.2971 53.0236 77.076 53.8206 72.2369 54.7641C70.6693 55.076 70.4005 55.0391 69.8588 55.0955C69.3714 55.1333 68.9864 55.1529 68.5872 55.1758C67.8144 55.2175 67.1083 55.2526 66.3985 55.2978C65.8714 55.3332 65.6916 55.8975 64.9235 55.814C64.6051 55.782 64.5671 55.0047 64.3701 55.196C64.282 55.2824 64.4373 55.8668 64.3154 55.9237C63.7704 56.1731 62.9823 55.7877 62.7428 55.8586C62.6461 55.8859 62.705 56.5787 62.509 56.6399C61.0694 57.0915 59.3034 57.4329 57.8217 58.102C57.0355 58.4528 55.9692 59.2508 55.0944 59.6854C52.6835 60.869 50.0701 62.107 48.036 63.499C47.2296 64.0473 46.4631 64.6466 45.7065 65.2755C43.1651 67.3446 40.7312 69.4414 38.0006 70.9699C40.5511 71.0159 42.6042 69.2436 44.5389 68.0312C45.253 67.582 45.9601 67.1146 46.681 66.62C50.6069 63.952 54.6842 60.999 59.3104 59.4517C61.1438 58.8287 63.5028 58.1377 65.684 58.0907C65.7794 58.0885 65.8761 57.5304 66.0991 57.544C66.1471 57.5473 66.8765 58.3888 67.0618 58.3661C66.5772 56.7143 67.5945 58.082 67.8075 58.006C68.1075 57.9011 68.5562 56.9625 69.4397 57.3207C70.2659 57.6405 70.1822 58.3182 70.2234 58.3539C70.5788 58.5704 70.526 57.5058 70.817 57.3514C70.9296 57.2931 71.0706 57.24 71.3486 57.1687C71.607 57.0985 71.9663 57.0274 72.7265 56.8424C75.1347 56.1716 77.8764 55.8121 78.9445 55.5592C79.2595 55.4828 79.4409 56.1322 79.5121 56.1152C79.6963 56.0693 79.7864 55.354 80.0779 55.2787C80.6159 55.1412 81.3908 55.589 81.6786 55.513C82.3771 55.3296 83.495 54.2474 84.3947 53.9894C84.6444 53.9174 84.8125 54.5989 84.9263 54.5656C85.4326 54.416 86.5251 53.2666 87.1526 53.0919C88.1716 52.8075 89.3274 52.9706 90.3036 52.4754C90.4486 52.7609 90.5937 53.0465 90.7388 53.332C90.759 52.9871 90.7797 52.6421 90.8009 52.297C92.6105 52.0814 94.2128 50.939 95.9678 50.5395C96.015 50.5286 96.1134 50.5379 96.239 50.558C96.4765 50.6683 96.9576 50.9193 97.0448 50.9023C97.1365 50.8818 97.0695 50.1025 97.2387 50.1832C97.4809 50.2941 97.5829 51.781 97.843 51.2962C97.9159 51.1648 97.6967 50.5641 97.8497 50.3325C97.8781 50.2557 99.1806 49.754 99.2711 49.7861C99.4095 49.8368 99.7516 51.1523 99.7888 51.1755C99.9846 51.2972 99.8044 50.2737 99.9022 50.1612C100.19 49.8252 100.769 50.4408 100.817 50.4177C101.472 50.118 102.686 49.1006 103.533 49.479C103.649 49.532 103.743 50.3003 103.765 50.3226C103.907 50.4647 103.861 49.5815 103.975 49.5452C104.585 49.3602 105.646 49.8173 106.31 49.8832C106.387 49.8897 106.49 49.449 106.625 49.4729C107.4 49.6133 107.247 50.319 107.292 50.3425C107.401 50.4013 107.491 49.6336 107.752 49.5539C108.425 49.3433 109.798 49.2811 110.557 49.2468C111.132 49.2227 111.231 50.0762 111.27 50.0885C111.357 50.1089 111.491 49.4016 111.857 49.2786C112.563 49.0383 112.57 49.7174 112.86 49.6528C112.885 49.6498 112.761 48.9995 113.084 48.8917C113.71 48.6836 115.241 49.152 115.923 49.0348C116.187 48.9904 116.173 48.3506 116.446 48.305C116.879 48.2304 117.935 48.7954 118.016 48.7836C118.038 48.7809 117.998 48.0476 118.127 48.0318C118.267 48.0148 118.449 48.3724 118.552 48.3572C119.143 48.2746 120.021 46.8774 120.055 49.5086C120.165 48.8443 120.276 48.1798 120.388 47.5152C121.662 47.4868 122.839 47.0779 124.071 46.7879C124.352 46.7226 124.643 47.1846 124.876 47.1303C125.106 47.0764 126.055 46.1268 126.221 46.0894C126.525 46.0233 128.287 45.7029 128.514 45.7308C128.959 45.7841 129.527 46.7981 129.67 46.5652C129.787 46.3777 129.576 45.7917 129.82 45.5845C130.24 45.2264 131.146 45.8916 131.281 45.8605C131.341 45.8473 131.162 45.3929 131.723 45.2807C132.026 45.2191 132.263 45.7141 132.374 45.6961C132.408 45.6885 132.24 44.8559 132.862 44.8835C133.288 44.9046 133.559 45.527 133.603 45.5232C133.669 45.5182 133.73 44.8044 133.998 44.7907C134.166 44.7832 134.377 44.8223 134.61 44.883L133.472 45.003C134.095 45.2181 134.832 45.612 135.256 45.6277C135.371 45.632 135.276 44.793 135.733 44.8395C136.058 44.8732 136.047 45.5466 136.169 45.5652C136.364 45.5932 136.574 44.7551 137.006 44.7519C137.541 44.7499 141.516 45.3263 141.74 45.5315C141.888 45.6697 142.047 45.6678 142.14 46.0267C142.107 46.3795 142.073 46.7322 142.04 47.085C141.349 45.9042 141.691 47.2854 141.536 47.3866C141.31 47.5317 140.44 47.4137 140.243 47.7394C140.175 47.8568 140.399 48.589 140.02 49.0004C139.623 49.4395 139.337 48.128 139.29 49.9505C138.526 47.9839 138.091 50.1578 138.84 50.6784C139.272 50.9683 143.203 51.413 144.019 51.466C144.667 51.5098 145.848 50.8835 146.643 50.9648C147.123 51.0129 148.266 51.0236 148.295 51.989C148.72 52.0799 148.21 51.1539 148.287 51.0142C148.448 50.7227 149.793 51.2894 150.025 51.2459C151.221 51.0314 152.655 49.8438 153.904 50.9729C153.868 51.2345 153.832 51.4962 153.796 51.7578C153.58 52.2489 152.317 51.6627 152.266 52.9094C154.045 52.7784 155.808 52.6473 157.509 52.527C157.418 51.4747 159.48 51.3479 159.58 51.8209C159.577 52.3331 159.577 52.8451 159.576 53.3572C158.329 51.4956 158.584 54.0486 157.707 52.7452C157.378 52.7491 157.535 53.5844 157.389 53.7556C155.894 55.4606 157.248 52.0284 156.055 52.8718C156.518 54.066 155.528 54.5866 155.081 54.7755C154.968 54.8178 153.571 54.6094 153.401 54.6415C152.48 54.8191 150.919 55.6069 149.937 55.0063C149.186 54.9809 148.86 55.8793 148.195 56.1301C147.706 56.3192 147.804 55.6974 147.564 55.7073C147.052 55.7274 147.031 57.6001 146.522 55.027C146.207 55.3749 145.878 55.7236 145.57 56.0709C145.541 55.6676 145.512 55.2644 145.483 54.8612C145.271 54.8764 145.057 54.8918 144.84 54.9073C144.805 55.3137 144.77 55.7202 144.734 56.1266C144.025 55.6242 144.235 54.6331 144.028 53.5003C143.877 53.4323 143.724 53.3644 143.571 53.2965C143.519 54.1812 143.466 55.0659 143.413 55.9507C142.769 55.9246 142.082 55.9015 141.439 55.8749C141.369 55.476 141.299 55.0771 141.228 54.6781C141.255 55.0801 141.282 55.4821 141.309 55.8841C140.193 56.0456 139.101 56.2046 137.999 56.3638C137.754 57.0286 139.548 57.3953 139.697 57.4238C140.458 57.5853 142.389 56.7998 142.506 58.2315C142.897 57.1295 144.323 57.2948 144.838 58.5469C144.187 58.5161 143.499 58.4876 142.843 58.4567C142.898 58.9355 142.954 59.4142 143.009 59.893C142.037 58.015 141.939 58.129 141.213 60.0196C141.167 59.3755 141.121 58.7314 141.075 58.0873C140.633 60.3693 139.337 56.6415 139.491 59.4095C139.154 59.2078 138.838 59.0046 138.505 58.8025C137.85 59.1864 139.043 61.2417 136.326 60.5902C136.134 60.5449 136.13 59.8374 135.86 59.9045C135.783 59.9241 135.418 60.9492 134.551 60.9345L136.878 60.6891C136.864 60.6899 136.851 60.6905 136.838 60.6908C136.694 60.6942 136.596 60.0893 136.439 60.0332C136.074 59.8989 135.577 61.1931 135.603 59.1951C134.201 58.8116 134.973 60.3389 134.649 61.0349C134.432 61.4968 134.326 60.332 134.124 60.6276C133.875 60.9938 134.254 62.1309 133.002 61.7563C133.124 61.6588 133.247 61.561 133.367 61.4638C133.257 61.1558 133.148 60.8477 133.037 60.5399C132.465 61.3937 132.378 60.2728 132.304 62.0982C131.709 61.3697 131.281 61.3632 130.63 61.5975C129.379 62.0512 130.291 63.8858 128.475 61.492C128.284 61.8866 128.099 62.2803 127.905 62.675C127.411 61.9623 127.604 60.9652 126.995 60.8482C127.695 62.6767 126.378 62.1471 126.386 63.8563C126.312 63.4581 126.239 63.0599 126.166 62.6617C126.034 62.6785 125.904 62.6953 125.773 62.7119C125.814 63.0336 125.854 63.3554 125.895 63.6771C125.69 63.4584 125.486 63.2396 125.283 63.0206C125.194 63.356 125.105 63.6913 125.016 64.0266C124.721 63.3805 124.416 62.7357 124.118 62.0898C123.977 62.0608 123.837 62.0317 123.698 62.0025C123.8 62.4764 123.903 62.9502 124.006 63.4239C123.813 63.2854 123.621 63.1468 123.431 63.008C123.728 63.7694 123.72 64.7067 123.181 64.7495C122.735 64.7855 123.027 63.0827 122.164 63.883C122.102 63.9401 122.141 65.124 121.261 65.4162C120.219 65.7647 120.635 64.8526 120.441 64.8466C120.405 64.8462 120.151 65.4755 119.854 65.5975C119.686 65.6668 119.462 65.2114 119.44 65.2154C119.336 65.2501 119.387 65.9269 119.243 65.9691C118.883 66.0718 118.332 65.8043 117.974 65.8818C117.811 65.9164 117.705 66.3339 117.633 66.3476C117.52 66.3659 117.301 65.7746 117.184 65.7912C116.754 65.8564 116.363 67.9543 115.825 65.1713C115.725 67.8026 114.506 64.7842 114.779 66.5075C113.606 65.9863 111.067 68.4553 110.801 65.5369C110.519 68.0969 110.351 66.2898 110.111 66.3579C109.846 66.433 110.047 66.8974 109.831 66.9027C109.314 66.917 108.829 66.7688 108.332 66.8239C108.356 66.4158 108.382 66.0076 108.408 65.5994C107.874 65.539 108.171 66.4425 107.683 66.6883C106.781 67.1396 107.084 66.3475 106.804 65.3232C106.975 66.3247 105.868 66.3171 105.751 66.1993C105.675 66.1278 105.777 64.7905 105.186 65.301C105.278 65.6948 105.37 66.0886 105.462 66.4825C105.086 65.9789 104.424 66.7828 104.282 66.6676C104.218 66.6133 103.414 63.4488 103.53 66.033C103.435 65.6401 103.34 65.2472 103.244 64.8544C103.021 65.3796 102.796 65.9066 102.607 66.4294C102.444 65.7209 102.281 65.0124 102.113 64.3046C102.023 64.3198 101.936 64.3348 101.85 64.3496C102.017 64.9747 102.183 65.5999 102.348 66.2253C101.759 66.0294 101.429 67.1266 100.933 65.0098C100.919 65.4228 100.915 65.8344 100.919 66.2448C100.723 65.5468 100.527 64.8491 100.329 64.1519C100.033 64.401 100.138 64.8744 100.18 65.6553C100.055 65.1052 99.9296 64.5549 99.8056 64.0043C99.8365 64.3471 99.8629 64.6811 99.9027 64.9539C99.6788 65.3858 99.3972 65.7302 99.1125 65.8617C98.876 65.9696 98.2455 65.3286 98.2052 65.4118C98.1622 65.4995 98.3414 68.6082 97.614 66.064C97.0396 67.4222 96.3577 66.3634 96.0139 66.4829C95.7917 66.561 95.8487 67.2022 95.6049 67.3336C95.2563 67.5225 94.816 67.3206 94.6086 67.4202C94.4926 67.4782 94.6271 68.0831 94.5479 68.124C94.1751 68.3196 94.2465 67.6466 93.8408 67.7961C93.8035 67.8134 93.686 68.6254 93.3186 68.6221C93.1168 68.6199 92.393 67.9327 92.3509 67.9461C92.158 68.0124 92.7554 69.6109 91.5801 67.8938C91.6827 68.2006 91.7853 68.5074 91.8879 68.8142C91.2714 69.826 90.7707 68.4701 90.5763 68.4189C90.5527 68.4167 90.4951 69.0082 90.3561 68.9661C90.122 68.8932 89.8389 68.1804 89.7851 68.1601C89.5909 68.0914 89.1531 68.5561 88.6033 67.9416C89.241 70.015 88.2156 71.0909 87.3027 68.7952C87.2085 69.3225 87.1177 69.849 87.0302 70.3747C86.8272 70.011 86.6184 69.6488 86.4133 69.2857C86.4587 69.6909 86.5044 70.096 86.5504 70.501C86.0046 69.7302 85.4428 68.9639 84.8941 68.1942C85.1082 69.0568 85.3225 69.9194 85.5368 70.782C85.4239 70.7081 85.3027 70.6365 85.1865 70.5635C84.9296 69.9017 84.673 69.2399 84.4167 68.578C84.34 68.7387 84.2672 68.8984 84.1894 69.0594C84.2961 69.56 84.4029 70.0605 84.5098 70.5611C84.058 71.2957 83.0837 66.5093 83.0562 70.96C82.7649 70.6222 82.4884 70.2804 82.1912 69.9442C82.5025 71.8922 81.801 70.8536 81.5432 71.1529C81.3688 71.3621 81.575 72.1132 81.2749 72.2134C80.9784 72.3123 80.7805 71.5941 80.7575 71.5954C80.4886 71.6215 80.4707 72.3072 80.2399 72.2344C80.2035 72.2242 79.9077 71.388 79.6381 71.403C79.3687 71.4181 79.4632 72.3674 79.0182 72.3031C78.7852 72.2724 78.5241 71.5706 78.3182 71.557C77.7416 71.5294 77.5173 72.6436 76.5683 73.151C75.3335 73.5582 74.6775 73.6453 74.1963 73.421C73.667 73.2017 73.3308 72.6531 72.9315 71.671C72.6928 72.2837 71.9402 74.4007 71.6701 74.3262C71.1603 74.2189 71.2269 73.3209 71.0218 73.1897C70.9956 73.1693 70.8969 73.4842 70.5659 73.4841C70.5054 73.4842 70.5996 73.9712 70.5923 73.9791C70.2167 74.0299 69.4873 73.7635 69.1169 73.7664C69.0755 73.7673 69.2027 75.1503 68.5373 73.391C68.4307 74.8151 66.9697 72.1268 66.9491 74.2747C66.8899 74.3355 66.6746 73.8815 66.6465 73.9065C66.402 74.1329 66.9311 75.5395 65.6936 73.6119C65.961 74.331 66.0125 75.0358 65.8013 75.0396C65.4772 75.0483 65.2667 73.6189 65.051 73.8092C65.173 74.1931 65.295 74.5771 65.417 74.961C64.531 74.1079 64.9588 75.7816 64.4341 75.979C64.2481 76.0483 63.6503 75.3192 63.6001 75.336C63.5804 75.3461 63.7202 76.3331 63.7054 76.3469C63.6064 76.4169 63.379 76.0252 63.2808 76.0619C62.9483 76.1841 63.0786 77.5027 62.2461 75.3636C62.3459 75.8474 62.4475 76.3309 62.5564 76.8117C61.2412 74.7123 62.3763 77.9073 61.3193 75.7744C61.4663 76.2477 61.6158 76.72 61.7678 77.1914C60.2967 77.6069 58.8439 78.1325 57.4021 78.7822C57.7715 79.4534 57.0624 79.604 56.9677 79.5267C56.5292 79.1742 55.7184 77.7035 55.6559 78.2135C56.0461 78.8332 56.4384 79.4516 56.8325 80.0687C56.6647 80.4427 56.4422 79.96 56.1083 79.6262C56.0517 79.5806 55.9902 79.5402 55.9226 79.5091C55.8813 79.6506 56.245 80.0879 56.143 80.2131C55.601 80.8844 54.2503 81.9182 53.5804 82.4866C53.4457 82.6009 53.1464 82.1621 53.102 82.1941C52.9897 82.2856 53.1477 83.0057 52.9143 83.1856C51.4331 84.3113 49.2596 85.5833 47.8125 86.11C47.7129 86.1453 47.2872 85.6771 47.2174 85.6963C47.1244 85.7232 47.3115 86.2407 47.2126 86.2576C47.1186 86.2763 46.7608 85.9517 46.6565 85.9701C46.1803 86.0456 46.4166 86.9392 45.3118 86.0404C45.2106 85.972 43.3257 84.2554 43.2154 84.1294C42.5007 83.4417 41.3765 82.3637 40.3249 81.3629C39.8176 80.9785 39.2701 80.2823 38.6229 79.7226C38.009 79.1243 37.2308 78.7485 37.0197 78.1568C36.5793 78.2334 36.6181 77.759 36.659 77.3266C36.4726 77.1378 36.2861 76.949 36.0997 76.7602C35.5187 76.4104 35.0895 76.222 34.7871 76.1209C34.4937 76.0076 34.2769 76.0487 34.3642 75.8505C34.1646 75.7065 33.9676 75.5592 33.773 75.4089C32.7247 74.7347 33.1152 73.9814 32.2545 72.4915C30.9213 72.0538 29.5056 71.7567 28.4865 71.0571C28.3316 70.9407 28.1832 70.816 28.0377 70.6878C27.6797 70.3176 27.9783 69.5527 27.8594 69.0109C27.4277 66.9022 26.1812 68.8153 25.6468 67.8097C26.5426 66.9043 27.61 65.9667 28.6898 65.0611C28.1437 64.4049 22.795 66.4335 20.8772 65.1873C21.1125 64.6198 21.3317 64.1397 21.5668 63.6519C20.9563 63.4008 20.3483 63.1507 19.713 62.9374C19.6138 62.7554 19.5168 62.5714 19.4221 62.3854C19.7219 61.3444 20.0298 60.3679 20.3351 59.4151C19.5186 60.5268 18.8506 61.2649 17.7562 61.5563C17.209 61.7057 16.5515 61.7377 15.615 61.8321C15.3828 61.854 15.1295 61.8852 14.8406 61.9537C14.5547 62.019 14.2584 62.0759 13.885 62.2616C13.5232 62.4348 13.1324 62.6173 12.6192 63.171C12.1923 63.612 11.3787 64.5487 11.0257 67C10.9847 64.829 11.4435 63.5694 11.5362 63.0841C11.6933 62.4698 11.8824 61.9395 11.9451 61.6808C14.5727 60.0512 15.5629 60.0018 16.4427 59.0698C17.2798 58.2602 17.7978 57.214 18.152 56.4661C17.3171 56.0241 16.7835 57.4975 16.1743 57.3613C16.0004 57.3192 15.7879 56.6564 15.4124 56.5866C14.9305 56.4898 14.064 56.701 13.1608 56.9718C12.2755 57.2116 11.2209 57.7167 11.0389 57.1374C10.9617 56.699 11.7372 55.1967 12.3502 54.1602C12.9822 53.0864 13.6409 52.1867 13.9274 51.9641C12.9181 52.1155 12.0159 52.4646 10.9913 52.9387C10.476 53.18 9.94001 53.4407 9.29082 53.7991C8.61702 54.2013 7.94728 54.4903 6.66088 55.6889C7.29008 51.5219 6.23749 49.3312 7.91746 47.4785C7.80004 46.8766 6.67127 47.0922 5.28478 47.7295C4.59767 48.0427 3.81911 48.4943 3.0696 49.0132C2.34346 49.4989 1.5743 50.1657 1.40054 50.163C2.4641 47.8315 2.72163 46.7368 3.08523 45.4678C2.54692 46.2659 1.99545 47.0721 1.02964 48.4925C0.870113 48.3683 0.710535 48.2441 0.550901 48.1199C2.45238 44.4187 2.29696 42.3115 4.01609 40.8278C3.25431 40.0736 2.35368 41.0647 1.8445 41.5541ZM150.672 57.4099C150.761 58.2926 150.252 58.1842 149.962 58.1883C150.017 58.3461 150.072 58.504 150.127 58.6618C149.492 58.5403 148.335 58.2834 148.419 60.0026C148.003 60.2473 148.085 58.741 147.933 58.5813C147.876 58.5172 147.355 59.4282 146.833 58.4034C146.725 58.4154 146.617 58.4275 146.508 58.4396C146.527 59.004 146.546 59.5683 146.566 60.1327C146.365 59.4604 146.156 58.7886 145.962 58.1158C147.536 57.8815 149.097 57.6467 150.67 57.4101C150.671 57.41 150.672 57.41 150.672 57.4099ZM134.978 59.2512C134.808 59.1724 134.611 59.0807 134.422 59.0243L136.606 58.7939C136.104 58.6892 135.683 58.8046 135.97 59.8831C136.22 59.7912 136.471 59.699 136.722 59.6065L134.477 59.8433C134.592 59.8099 134.706 59.7764 134.82 59.7431C134.873 59.5791 134.925 59.4151 134.978 59.2512ZM84.5753 66.7838C83.7252 65.4388 83.6522 66.8233 82.8837 66.7494C82.9697 67.0591 83.0557 67.3689 83.1416 67.6786C83.2179 66.8572 84.1146 67.144 84.5753 66.7838ZM166.307 50.3511C166.522 50.4378 166.729 50.5244 166.925 50.6121C166.463 52.4404 166.086 51.2718 165.088 51.5734C165.026 51.5919 165.098 51.9815 165.076 51.9868C164.82 52.0462 164.524 51.6015 164.293 51.6345C163.966 51.681 163.706 51.9729 163.281 52.1425C163.051 52.0616 162.29 52.3096 162.064 52.2173C162.019 52.2665 161.967 52.2989 161.902 52.297C161.709 52.2901 161.674 51.5327 161.604 51.5552C161.542 51.5763 161.032 53.6901 160.529 52.8175C159.91 51.7716 161.201 51.1393 162.015 50.8925C162.229 50.9797 162.949 50.7452 163.167 50.8217C164.72 50.5621 166.114 50.3217 166.307 50.3511ZM169.455 51.2493C169.411 51.2634 169.366 51.2776 169.32 51.2923C169.273 50.1189 169.033 50.3361 168.752 50.4112C168.589 49.3038 169.175 49.6881 169.322 49.3314C169.361 49.9713 169.406 50.6105 169.455 51.2493ZM154.548 50.3217C154.937 50.1789 154.97 51.5758 154.985 51.9914C154.861 52.0005 154.735 52.0097 154.607 52.0191C154.587 51.4533 154.567 50.8875 154.548 50.3217ZM157.425 49.6283C157.367 50.5825 156.578 51.0543 156.181 51.1611C156.164 51.1625 156.237 50.6357 155.955 50.7046C155.88 50.7252 155.17 52.675 155.201 50.5188C155.954 50.2203 156.696 49.9231 157.424 49.6283C157.425 49.6283 157.425 49.6283 157.425 49.6283ZM158.289 50.1297C158.159 50.4369 158.022 50.7447 157.89 51.0522C157.781 50.6137 157.671 50.1753 157.56 49.737C157.727 49.6127 157.893 49.4886 158.063 49.3644C158.139 49.6194 158.214 49.8745 158.289 50.1297ZM50.3092 70.1585C50.6021 70.5345 50.8942 70.911 51.1857 71.288C51.4236 71.477 50.6536 69.4944 50.3032 69.2479C50.3001 69.5538 50.304 69.8561 50.3092 70.1585ZM47.7363 70.7882C47.4855 70.6749 47.2352 70.5613 46.9855 70.4475C47.3424 71.1876 47.7043 71.9242 48.0607 72.665C48.9111 72.7104 49.8555 72.7961 48.3562 70.944C48.4784 70.8543 48.6 70.7653 48.7237 70.675C49.2007 71.5454 49.4053 71.7971 50.0959 72.0667C49.6706 71.3965 49.7415 71.2206 49.9199 71.0885C50.0159 71.017 50.1603 70.9753 50.2086 70.7854C50.0727 70.83 49.9364 70.8757 49.7996 70.9225C49.6433 70.9893 49.4883 71.0554 49.3344 71.1209C49.1922 70.9258 49.0501 70.7306 48.9079 70.5354C49.5909 70.1468 47.8983 69.4827 48.0689 70.5489C47.8463 70.3135 47.6235 70.0783 47.4007 69.8431C47.5117 70.1587 47.6236 70.4737 47.7363 70.7882ZM97.9556 54.9924C97.8443 54.7685 97.7337 54.5446 97.6239 54.3207C98.1337 57.45 97.8778 54.4268 98.7618 56.7999C98.2448 54.9647 98.8365 54.9242 98.8527 54.7919C98.6592 54.1776 98.4645 53.5636 98.2683 52.9502C98.1285 53.6357 98.0314 54.3151 97.9556 54.9924ZM95.1338 53.4524C95.8707 54.8915 94.2028 55.4205 93.5463 55.2324C93.3859 55.1857 92.9218 54.4114 92.8502 54.5431C92.8706 54.8685 92.8912 55.1938 92.912 55.5192C92.5591 54.4678 91.7678 55.9598 91.4775 56.6518C91.334 56.2729 91.1906 55.8941 91.0471 55.5152C90.928 55.712 90.8139 55.9075 90.693 56.1048C90.6109 55.7113 90.5289 55.3177 90.447 54.9241C90.4478 55.4233 90.4493 55.9223 90.4517 56.4211C90.116 57.0653 89.8478 54.8723 89.6693 55.6259C89.4683 56.4636 90.4476 57.5527 90.6515 58.3763C90.9148 58.0803 91.5183 57.415 91.8375 57.3062C92.02 57.2448 92.2007 58.7683 92.5559 56.8699C92.835 57.2177 93.1149 57.5654 93.3955 57.9129C93.554 57.2029 93.7125 56.493 93.8772 55.7817C94.0791 56.3109 94.2827 56.8397 94.4829 57.3693C94.5375 57.446 94.9649 56.0154 94.8205 55.616C95.3991 56.578 96.06 56.6058 96.7327 56.49C96.7195 56.1775 96.7065 55.8649 96.6937 55.5524C96.2265 56.354 96.4132 55.2899 96.079 54.7707C95.8846 54.4717 95.3833 53.9152 95.1338 53.4524ZM52.3526 67.376C52.3891 68.9564 52.2171 67.7331 51.4998 68.1787C51.9369 68.7628 52.3716 69.3486 52.8038 69.936C52.4346 68.5987 53.4774 69.0062 52.3533 67.3755C52.3531 67.3757 52.3529 67.3758 52.3526 67.376ZM46.0301 74.8054C46.2045 74.1159 45.2855 73.3952 45.6498 72.6612C45.6501 72.6609 45.6504 72.6607 45.6507 72.6605C45.2945 72.8295 44.9563 72.9864 44.6085 73.1524C45.0827 73.7031 45.5566 74.2541 46.0301 74.8054ZM69.702 62.9409C70.2849 63.1722 70.0741 62.6321 70.7964 63.6673C71.5445 62.1696 70.7577 62.4832 70.5752 61.2521C70.4245 61.6435 70.2989 62.031 70.1658 62.4198C69.5902 61.329 69.8865 60.6924 69.8707 60.5818C69.8703 60.5818 69.87 60.5819 69.8696 60.5819C69.8146 60.2125 69.8164 60.1327 69.6267 59.9327C69.6495 60.9356 69.6718 61.9387 69.702 62.9409ZM73.6149 60.7062C73.2631 61.1341 73.0883 61.5508 73.113 61.9165C73.1548 62.2764 73.3284 62.607 74.1109 62.7193C74.2659 62.816 74.4544 62.8903 74.6622 62.9401C74.6628 62.9399 74.6634 62.9398 74.664 62.9396C74.3085 61.1263 75.4341 62.3774 75.6655 62.1872C75.693 61.9724 75.7161 61.7586 75.7344 61.5461C75.1246 61.2479 74.5606 60.9413 73.6365 60.7055C73.6293 60.7058 73.6221 60.706 73.6149 60.7062ZM82.855 56.458C83.3934 58.426 82.999 58.7345 84.1206 60.3776C84.2355 60.3085 84.3432 60.2414 84.4542 60.1734C84.4156 59.7198 84.3776 59.2661 84.34 58.8123C86.8422 61.9595 85.6555 55.7668 83.6749 58.74C83.6749 58.7415 83.6749 58.7429 83.6749 58.7444C83.4015 57.9823 83.1282 57.2201 82.855 56.458ZM80.1774 57.3694C80.4409 58.4077 80.7043 59.4461 80.9679 60.4844C79.9386 58.0877 80.1529 60.5854 78.9873 59.0152C79.0123 59.3461 79.0376 59.6769 79.0634 60.0075C78.6335 59.3833 76.0072 59.887 76.9948 61.3247C77.4278 61.9527 77.7088 60.863 77.7576 60.8723C77.9379 60.9067 78.3743 61.7413 78.6201 61.6184C78.7694 61.5441 78.7793 60.4198 79.0878 60.3371C79.7624 60.1568 81.731 62.6271 81.8689 59.7396C82.0158 60.0341 82.1629 60.3286 82.3103 60.623C82.9084 60.2551 82.4097 59.3308 83.3335 60.3433C82.4027 55.3233 81.0016 61.2415 80.4962 57.1029C80.4958 57.103 80.4954 57.1031 80.4951 57.1032C80.3882 57.1922 80.2889 57.2791 80.1774 57.3694ZM62.787 62.8563C62.5034 61.9865 62.3726 63.4962 61.8687 61.3623C61.9137 62.1447 61.9655 62.9262 62.0244 63.7066C62.0866 63.9004 62.1488 64.0942 62.2109 64.2881C62.3288 64.0834 62.4471 63.8797 62.5655 63.677C62.6591 63.986 62.7527 64.295 62.8463 64.604C62.7567 63.4073 63.9524 63.6015 64.2109 64.7189C64.1396 64.238 64.0698 63.7568 64.0016 63.2753C64.833 64.4156 64.9309 62.9508 65.7663 64.0752C65.7187 63.6757 65.6741 63.2755 65.6295 62.8754C65.7295 63.1838 65.8289 63.4923 65.9276 63.8011C66.1405 63.795 66.3363 63.794 66.5545 63.7895C66.9628 62.3756 65.299 61.0051 65.1621 61.2369C65.1461 61.268 65.3349 62.0821 65.2358 62.2398C65.0614 62.5118 63.553 62.0322 63.2992 62.6804C63.1476 62.147 62.9958 61.6137 62.8439 61.0804C62.8132 61.6746 62.8015 62.2646 62.787 62.8563ZM86.8574 57.6351C87.0445 58.1692 87.2315 58.7033 87.4186 59.2373C87.9651 58.5071 88.5385 58.8641 87.8756 57.1095C87.8753 57.1096 87.8749 57.1097 87.8745 57.1098C87.5293 57.2863 87.2036 57.4579 86.8574 57.6351ZM137.175 50.1098C137.074 48.9923 136.702 48.5976 136.299 49.4313C136.343 49.7547 136.387 50.0781 136.432 50.4015C136.608 49.4319 137.002 51.0738 137.739 50.8011C137.701 50.2381 137.662 49.6752 137.623 49.1122C137.475 49.4447 137.325 49.7772 137.175 50.1098ZM86.1939 57.5606C85.8042 56.9764 85.7336 59.0863 86.1521 59.0766C86.4733 59.068 86.4007 57.875 86.1939 57.5606ZM43.6335 75.2999C43.8179 75.3035 44.0038 75.3063 44.1912 75.3082C43.9515 74.8855 43.7101 74.4644 43.4712 74.0413C43.4709 74.0415 43.4706 74.0417 43.4704 74.0419C43.5282 74.4578 43.5746 74.8835 43.6335 75.2999ZM68.1267 63.2924C68.5258 63.1505 68.9173 63.0146 69.3527 62.8755C69.3089 62.5655 69.2651 62.2555 69.2214 61.9455C68.9486 63.1445 68.5991 61.9553 68.4776 61.899C68.4781 61.8989 68.4785 61.8988 68.479 61.8988C68.1312 61.7054 67.7925 61.5795 67.4391 61.2638C67.6736 61.9387 67.9027 62.6149 68.1267 63.2924ZM66.3917 61.6125C66.9038 63.7661 67.0241 64.0012 67.335 62.3583C67.2608 62.0951 67.1861 61.8321 67.111 61.5692C66.8236 61.7896 66.7321 62.3296 66.5637 61.1868C66.5013 61.3295 66.4491 61.4704 66.3917 61.6125ZM76.4408 60.3492C76.1682 59.6941 75.4419 60.6209 75.5792 60.9511C75.6498 61.0792 77.0215 61.6228 76.4408 60.3492ZM143.468 49.1789C143.264 49.0316 143.058 48.8845 142.851 48.7373C143.095 48.4794 143.335 48.2216 143.572 47.964C143.538 48.369 143.503 48.774 143.468 49.1789ZM145.343 45.8906C145.501 46.1619 145.198 48.1776 146.057 48.63C145.455 48.7157 144.882 48.7992 144.277 48.8847C144.538 48.5437 144.795 48.203 145.048 47.8626C144.959 47.2962 144.869 46.7298 144.78 46.1634C144.97 46.0723 145.147 45.9822 145.343 45.8906ZM146.09 47.2977C145.658 45.8135 147.343 45.5777 147.502 45.7512C147.537 45.7926 147.792 46.9229 147.872 47.1641C147.608 47.1847 147.367 47.2036 147.111 47.2236C147.222 47.5773 147.333 47.9309 147.443 48.2846C147.159 48.4292 146.865 48.5744 146.573 48.7194C146.673 48.349 146.779 47.9782 146.881 47.6077C146.612 47.5048 146.351 47.4012 146.09 47.2977ZM139.352 48.1436C139.567 48.1666 139.781 48.1897 139.992 48.2128C139.911 47.6528 139.83 47.0928 139.749 46.5328C139.623 46.5416 139.497 46.5504 139.37 46.5593C139.364 47.0874 139.358 47.6155 139.352 48.1436ZM143.643 47.1103C143.53 49.8424 142.253 43.9783 143.404 46.1015C143.519 46.3175 143.654 46.8464 143.643 47.1103ZM148.162 46.0282C148.671 44.0047 148.846 48.3773 148.13 47.1452C148.094 47.0795 148.123 46.1777 148.162 46.0282ZM153.101 45.6016C153.155 45.6124 153.348 47.0181 153.761 45.6375C153.857 45.7923 153.951 45.9473 154.045 46.1022C153.907 46.772 152.242 47.2873 152.378 45.8703C152.629 45.8298 152.837 45.5772 153.101 45.6016ZM151.087 40.4971C150.841 40.5546 150.591 40.6124 150.336 40.6707C150.453 41.1068 150.571 41.5429 150.687 41.9791C150.572 42.1087 150.449 42.2388 150.337 42.3681C150.072 41.6204 149.805 40.873 149.534 40.1258C150.073 39.9637 150.622 39.8008 151.151 39.6393C151.129 39.9253 151.108 40.2112 151.087 40.4971ZM144.278 39.8958C144.794 40.4168 145.366 39.7816 146.156 39.8193C146.157 39.8207 146.157 39.8221 146.158 39.8234C146.198 39.827 146.313 40.4296 146.443 40.4445C146.555 40.456 148.631 39.6336 148.55 40.6751C147.788 41.6593 147.381 40.2775 147.343 42.5832C147.265 42.1033 147.192 41.623 147.117 41.1429C146.274 40.3635 146.147 42.0535 145.756 42.6984C145.731 42.3342 145.707 41.9701 145.682 41.6059C145.385 41.5908 145.072 41.5768 144.775 41.5616C144.833 41.798 144.892 42.0345 144.95 42.2709C144.847 42.2784 144.743 42.2859 144.639 42.2934C144.306 41.233 143.961 41.0051 144.278 39.8958ZM152.276 41.0132C152.308 38.235 154.718 39.9585 155.696 39.3063C155.273 41.0079 154.364 39.9224 153.762 39.9495C152.622 40.0018 153.483 40.9615 153.323 41.4217C153.237 41.6498 152.467 39.9268 152.276 41.0132ZM142.528 40.5064C143.131 40.6877 143.381 40.0308 143.969 41.0073C143.941 41.2119 143.913 41.4166 143.885 41.6212C143.694 41.4495 142.273 40.9655 142.528 40.5064ZM157.238 39.9233C156.09 39.007 156.799 41.4702 156.102 39.6361C156.463 39.4906 156.831 39.345 157.188 39.2007C157.205 39.4416 157.222 39.6824 157.238 39.9233ZM82.2683 47.833C81.8079 47.892 81.1688 47.5421 81.18 48.6213C81.5201 48.6962 81.8792 48.7659 82.2176 48.8415C82.2338 48.5055 82.2507 48.1693 82.2683 47.833ZM92.5222 34.592C92.4343 34.4764 92.325 34.6545 92.2408 34.8479C92.164 35.0186 92.1029 35.2012 92.0826 35.2064C92.002 35.2269 91.9341 34.8686 91.9095 34.7768C91.3995 34.975 92.1634 35.9451 91.8364 36.2819C91.7827 36.3373 90.7287 36.0311 90.3725 36.1703C89.8211 36.3849 89.231 36.4622 89.0266 36.5353C88.6682 36.661 88.2248 37.651 87.6403 37.849C87.4013 37.9286 87.1472 37.2944 86.9071 37.3749C85.3581 37.8974 82.5224 39.6157 81.0174 39.5773C80.6443 39.5671 80.0918 38.7969 79.9245 38.9172C79.865 39.2692 79.8069 39.6209 79.7501 39.9722C78.5473 37.2739 79.075 39.8209 78.6759 40.2116C78.4158 40.4607 78.05 39.6641 78.0101 39.6772C77.7521 39.7651 77.7199 40.2007 77.5284 40.3237C77.314 40.4604 76.8699 40.1774 76.803 40.2688C76.7621 40.3291 77.2367 41.3908 76.3095 41.6223C75.3687 41.8567 74.4121 41.994 73.4497 42.2024C74.6776 45.4643 74.3318 43.096 74.6829 42.8682C74.7793 42.8064 74.8583 43.3562 74.9442 43.3074C75.1787 43.1748 75.5351 42.5154 75.7747 42.5857C76.0406 42.6595 76.3005 43.9125 76.4694 43.3776C76.4774 43.3502 76.2923 42.854 76.3359 42.7504C76.786 41.7222 77.2595 42.5436 78.1288 42.3338C78.707 42.1942 82.0629 40.7434 82.2677 41.0463C83.3706 42.6615 79.7054 43.6638 79.2384 43.6418C79.0753 43.6332 79.0789 43.0286 78.9134 42.9578C78.8478 42.9294 78.6108 44.145 78.1242 44.3738C77.5326 44.6514 76.0786 44.265 75.4868 44.4554C73.7577 45.0065 72.1225 45.453 70.1423 45.8727C65.8333 46.4567 63.2085 46.518 59.8524 47.4057C59.7505 47.4328 59.79 48.11 59.4585 48.2008C53.3016 49.8625 46.9458 52.1806 41.7088 56.0921C41.1227 56.528 40.6547 57.0716 40.1282 57.5795C39.5837 58.0974 39.0158 58.5484 38.2763 58.7918C38.4188 59.2906 38.5582 59.7921 38.6985 60.2932C38.8528 59.696 40.1934 60.073 40.2714 60.0362C40.2992 60.0218 40.1159 59.4768 40.3651 59.3307C40.7148 59.1234 41.1413 59.4009 41.1682 59.3813C41.2538 59.3211 40.9015 58.9526 40.9841 58.8957C41.0061 58.8807 41.0279 58.8656 41.0494 58.8504C41.5888 58.4726 41.9269 58.0729 42.4283 57.7256C43.0239 57.3161 43.8226 57.9189 43.7025 56.7676C43.9698 57.0748 44.236 57.3828 44.5012 57.6915C43.8744 56.0122 45.9798 54.9607 46.8473 54.6019C47.1186 54.4856 47.4128 55.1319 47.4999 55.0841C47.5545 55.0544 47.0908 54.2473 47.8612 54.0442C48.2485 53.9446 48.6453 54.5 48.8094 54.3909C48.8975 54.3313 48.5776 53.7431 48.7143 53.6735C49.4986 53.2761 50.2459 53.1578 51.0738 52.9158C51.3094 52.846 51.5407 53.3549 51.5866 53.3261C51.7569 53.2223 51.6789 52.2204 52.1556 52.0187C52.9212 51.6893 54.4859 51.0778 55.2801 51.283C55.3969 51.3128 55.6998 51.9159 55.7664 51.8816C55.865 51.8279 55.6708 51.1548 55.6882 51.1446C56.0368 51.0079 56.0413 51.6961 56.2222 51.4652C56.3198 51.341 56.1871 50.5425 56.4575 50.3557C56.8186 50.1086 57.0372 51.0344 57.1705 50.8904C57.183 50.8708 56.9829 50.2434 57.1376 50.1702C57.7248 49.896 58.5853 49.4757 59.1767 49.3115C59.3441 49.2639 59.5902 49.6549 59.8304 49.5966C60.2897 49.4667 62.978 48.5321 63.2529 48.7508C63.2815 48.7721 63.2399 49.7735 63.6238 49.6624C63.6533 49.243 63.684 48.8238 63.7157 48.4047C64.0298 49.001 64.3514 49.5967 64.6611 50.1957C64.2148 48.0022 65.3088 47.4476 65.6854 49.7053C65.8204 49.7754 65.9654 49.8441 66.1017 49.9147C66.0862 48.3148 66.3617 48.859 66.7134 47.8627C66.8641 48.3291 67.0247 48.794 67.1794 49.26C67.1496 48.9379 67.12 48.6157 67.0905 48.2935C67.6252 49.9807 67.8175 48.1752 67.8719 48.1574C68.0675 48.0889 68.3191 48.5013 68.4162 48.4724C68.829 48.3582 69.4668 47.6741 70.5454 47.7269C70.5623 47.728 70.5874 47.8119 70.6254 47.9236C70.691 48.1472 70.7961 48.4833 70.9222 48.5161C71.2654 48.604 71.0202 47.5364 71.6775 48.6955C71.6658 48.3651 71.6604 48.0329 71.6398 47.7046C71.7505 47.8484 71.8631 47.9915 71.9776 48.1341C72.3624 47.9441 72.7522 47.7503 73.1131 47.5637C73.081 48.8843 73.6956 49.4509 73.811 48.3864C73.8546 48.0243 73.5342 47.3126 73.5477 47.188C73.568 47.0193 75.4066 46.922 75.6519 47.3711C75.6682 47.1148 75.6853 46.8582 75.7033 46.6014C75.8736 47.0583 76.0441 47.5152 76.2149 47.972C76.2156 47.7956 76.2175 47.6189 76.2157 47.4433C76.8888 48.1454 77.5288 45.9349 77.7829 46.0261C77.9189 46.0745 78.3645 48.0989 78.844 47.7484C78.7126 47.1949 78.5813 46.6414 78.4501 46.0879C78.5521 45.9755 78.6588 45.8619 78.7568 45.7508C78.9976 45.7374 79.598 46.5949 79.7866 47.2419C79.755 46.8315 79.7168 46.4229 79.6825 46.0131C80.2201 47.2318 81.1335 46.4994 81.3303 45.5827C81.5548 45.9334 81.78 46.284 82.006 46.6344C82.0446 46.1237 82.0832 45.6131 82.1182 45.1034C82.4571 44.8613 82.2681 45.7438 82.3659 45.7868C82.5714 45.8747 83.0902 44.3306 83.4705 45.9777C83.5898 45.95 83.7099 45.9221 83.8307 45.894C83.7667 45.4112 83.7052 44.9278 83.6395 44.4454C84.2687 46.0005 84.4775 45.3358 85.3498 45.7318C85.3115 45.3454 85.2734 44.9589 85.2356 44.5724C85.6003 45.0389 85.9655 45.5054 86.3256 45.9733C86.2083 45.348 86.0912 44.7226 85.9743 44.0971C86.048 43.9832 86.1221 43.8691 86.1966 43.755C86.7621 45.0755 86.7181 43.4985 87.0493 44.0174C87.5319 44.7749 87.5849 45.8152 87.1525 46.1332C87.4502 47.1249 88.7803 46.2826 89.0992 46.1212C89.0256 45.9316 88.952 45.7419 88.8784 45.5522C88.572 45.798 88.2795 46.0404 87.9725 46.2868C87.0221 43.8453 88.1285 44.2756 88.4747 43.8382C88.5071 43.7965 88.4774 42.7847 88.9316 42.761C89.1087 42.7523 90.126 43.9768 90.2684 44.0227C91.4391 44.3989 90.1867 42.5956 91.6178 44.0906C91.0645 42.8052 91.9267 43.7692 92.4404 43.3611C92.5273 43.2915 93.1035 41.9864 93.1509 41.9443C93.4635 41.6788 93.3764 42.9627 93.816 42.5221C93.799 42.1946 93.7822 41.8672 93.7656 41.5397C93.8213 41.5255 93.8771 41.5113 93.933 41.4971C93.9854 41.4837 94.0386 41.4704 94.0925 41.457C95.3792 44.0912 95.0143 42.0156 95.2009 41.6964C95.2715 41.5691 95.3115 42.325 95.513 42.1201C95.5897 42.0437 95.5598 41.414 95.8061 41.3191C96.5739 41.0261 97.3159 43.5967 97.5792 40.7363C97.7639 41.1116 97.9483 41.4871 98.1325 41.8628C98.1299 41.3748 98.1291 40.8865 98.1301 40.3981C98.9595 41.676 98.5099 40.3006 98.7345 40.281C99.3254 40.2276 100.579 40.3153 100.855 41.4398C100.985 38.7453 102.033 41.6118 102.218 41.4816C102.293 41.1465 102.368 40.8113 102.445 40.476C102.632 40.776 102.82 41.076 103.008 41.3761C102.589 38.8102 103.671 41.2421 103.748 41.2714C103.838 41.2981 104.875 40.3847 105.315 40.3428C105.736 40.3028 106.589 40.9041 106.648 40.8981C106.719 40.889 107.372 40.0946 107.943 40.0309C108.451 39.9742 111.557 40.6053 111.236 39.4779C110.999 39.1835 110.685 38.9417 110.426 38.8214C109.616 38.4529 105.159 38.4103 104.033 38.3784C101.752 38.3105 99.4637 38.7014 97.2692 38.8282C97.1416 38.8358 97.0055 38.1759 96.8957 38.18C96.7219 38.1909 96.4252 38.9306 96.2681 38.9457C95.6534 39.0011 94.9202 39.041 94.611 39.0923C94.1095 39.1774 93.6845 39.0599 93.2997 39.0089C93.124 38.9938 92.9542 38.9889 92.7875 39.012C92.6067 39.0379 91.9185 40.0758 91.2234 39.8911C91.0672 39.7356 90.9073 39.5811 90.7484 39.4264C91.0099 39.1304 91.6931 38.364 92.0616 38.2021C92.516 38.0044 92.8961 38.2859 93.1316 38.3484C93.1738 38.362 93.2108 38.3669 93.2421 38.3575C93.3917 38.3098 94.1041 37.5027 94.5036 37.405C94.625 37.3742 94.7958 38.0601 94.8998 38.0359C95.4685 37.8993 96.2114 37.7392 96.607 36.9653C96.4395 37.2232 97.8153 37.4235 97.8762 37.4132C97.9921 37.3938 98.0111 36.7207 98.2551 36.6812C98.7252 36.6061 98.8667 37.9831 99.2422 36.5256C99.4521 36.901 99.6501 37.2783 99.8533 37.6551C99.5866 35.8305 101.778 38.0426 101.983 35.7571C101.966 35.5012 99.4657 35.1353 99.2682 35.1328C98.0494 35.0923 96.3797 35.8283 95.1923 35.7344C94.844 35.7003 93.5338 34.8335 93.4473 34.8771C93.3221 34.9376 93.5819 35.5357 93.5304 35.5707C92.497 36.2997 92.764 34.9183 92.5222 34.592ZM145.459 38.5946C145.097 38.5448 144.711 38.4967 144.356 38.4462C144.353 38.0411 144.349 37.636 144.346 37.2309C144.52 37.376 144.698 37.5209 144.878 37.6655C144.99 37.4154 145.101 37.1653 145.21 36.9153C145.293 37.4751 145.376 38.0348 145.459 38.5946ZM146.229 36.8415C146.529 36.6156 146.604 37.4649 146.679 37.5012C146.899 37.6119 147.066 37.2542 147.278 37.2507C147.176 39.2887 146.604 38.3998 146.229 36.8415ZM139.694 36.5778C139.774 36.6693 140.395 38.8113 140.788 36.7499C141.243 37.3637 141.69 37.978 142.129 38.5927C141.393 37.6582 140.5 38.747 140.172 38.7311C140.044 38.7252 139.973 38.0594 139.87 38.0557C139.268 38.0444 138.821 39.5956 138.604 37.3887C139.196 37.9931 139.595 36.4654 139.694 36.5778ZM143.276 37.1135C143.399 37.5691 143.532 38.024 143.659 38.4793C143.31 38.5043 142.99 38.5272 142.646 38.5517C142.705 38.0775 142.763 37.6033 142.821 37.1291C142.974 37.1238 143.125 37.1186 143.276 37.1135ZM117.641 38.3242C117.85 38.3042 118.059 38.2841 118.269 38.2638C118.216 37.9301 117.977 37.961 117.862 37.7455C117.862 37.7454 117.862 37.7454 117.863 37.7453C117.733 37.5017 117.722 37.0651 117.521 36.8964C117.561 37.3723 117.601 37.8483 117.641 38.3242ZM37.6342 59.2799C37.3465 59.4553 34.8434 61.3653 35.8115 62.18C36.2983 62.5796 36.8041 61.5135 37.0701 61.3244C37.4085 61.0811 39.1277 61.4546 37.6342 59.2799ZM33.0866 62.4887C33.806 63.4807 35.4581 62.4222 35.4723 62.1449C35.3331 62.0315 35.045 61.7623 34.9485 61.7255C34.481 61.5521 33.6197 62.4891 33.0866 62.4887ZM105.63 36.2304C105.871 36.8253 106.111 37.4202 106.346 38.0158C106.203 37.2204 106.06 36.4249 105.916 35.6294C105.825 35.8293 105.725 36.0301 105.63 36.2304ZM90.7154 39.822C88.0975 40.457 85.4771 41.1067 82.8621 41.7675C83.0019 41.3827 83.1429 40.9976 83.2875 40.6116C85.5645 40.1258 88.0555 39.8218 90.0965 38.7596C90.3026 39.1138 90.5089 39.4679 90.7154 39.822ZM138.675 33.0059C137.989 33.0418 137.437 33.6745 136.626 32.7854C137.277 31.8242 137.735 33.2098 138.34 31.8178C138.34 31.8178 138.341 31.8177 138.341 31.8177C138.453 32.2138 138.564 32.6098 138.675 33.0059ZM123.451 34.4354C123.589 33.8486 123.727 33.2617 123.865 32.6747C123.611 32.7077 123.358 32.7404 123.107 32.7729C123.221 33.3271 123.336 33.8813 123.451 34.4354ZM66.9832 42.6866C66.4641 44.0044 64.2722 42.1082 63.9644 43.6792C63.949 43.7811 64.3904 44.3342 64.0807 45.6242C64.4352 45.3045 64.6826 45.0037 64.5426 44.0614C64.7191 44.3578 64.8957 44.6544 65.0761 44.9507C65.2398 44.6743 65.3936 44.4003 65.5563 44.1257C65.6886 45.0648 65.6991 45.0113 65.9076 44.3198C66.0908 44.5333 66.255 44.7501 66.4442 44.9634C66.4436 44.557 66.443 44.1508 66.4425 43.7445C66.6545 44.2798 66.8573 44.8168 67.0641 45.3533C67.4671 44.6763 67.0043 43.6459 66.9832 42.6866ZM69.6074 42.4733C69.5848 42.4463 69.4765 42.4617 69.3484 42.5025C68.4799 42.7538 66.4273 43.7608 67.9428 45.1666C68.3245 45.0486 68.7213 44.9306 69.1667 44.7938C68.584 42.7705 69.0524 43.2644 69.6452 43.7627C69.8808 44.0235 70.1192 44.298 70.1501 44.3128C70.6745 44.4971 71.0162 43.6354 71.3333 43.5904C71.5965 43.555 71.9045 44.0535 72.0794 43.9911C72.6905 43.7754 73.6506 43.4905 73.4497 42.2024C72.9563 42.3098 72.4765 42.4269 71.9833 42.5947C71.454 42.7726 70.7036 41.7141 70.0949 43.6015C69.7895 43.4925 69.6518 42.5172 69.6074 42.4733ZM124.513 32.7218C124.654 34.0159 125.896 33.5387 125.838 33.0274C125.801 32.7283 125.383 32.7908 125.309 32.6853C125.308 32.6854 125.308 32.6854 125.308 32.6855C125.276 32.6393 125.337 32.1289 125.123 32.0174C124.919 32.2524 124.716 32.4872 124.513 32.7218ZM39.9062 54.0474C39.6439 53.8141 38.853 54.2007 38.0836 54.7587C37.193 55.4026 36.3673 56.2156 36.4312 56.4008C36.464 56.4973 36.6896 56.7288 36.7898 56.8846C36.8766 55.8894 37.8357 55.728 38.6507 55.5411C38.9523 55.475 39.2304 55.4089 39.4326 55.2931C39.6375 55.1751 39.2829 54.7924 39.2881 54.7767C39.2886 54.7764 39.2891 54.7761 39.2895 54.7757C39.4035 54.6933 40.6048 55.3987 39.9062 54.0474ZM62.8615 44.5002C63.0618 44.6669 63.2573 44.8351 63.4619 45.0021C63.4249 44.5988 63.3885 44.1953 63.3527 43.7918C63.3523 43.7919 63.3519 43.792 63.3516 43.792C63.1834 44.0281 63.0187 44.2644 62.8615 44.5002ZM56.9685 44.6124C57.0893 44.8723 57.2095 45.1324 57.3291 45.3927C57.7478 45.3097 58.1403 45.2383 58.5613 45.1631C58.5631 45.3286 58.5651 45.494 58.5673 45.6595C59.2872 45.9045 59.2634 44.882 59.6348 44.9339C59.6344 44.934 59.6341 44.9341 59.6337 44.9342C59.673 44.9413 59.8624 45.5026 59.9955 45.4894C60.296 45.459 61.1988 45.4682 61.1625 44.8677C61.0974 43.5763 59.5028 44.5804 59.1654 44.6166C59.0166 44.6281 58.7092 44.1752 58.6168 44.1876C58.5162 44.2031 58.5682 44.9123 58.3255 44.9574C58.2522 44.9693 57.2766 44.3925 56.9685 44.6124ZM50.3182 47.922C50.6887 48.4584 50.692 47.7863 50.8237 47.8445C50.8544 47.8584 50.8958 48.4214 51.1593 48.4846C51.0751 48.1242 50.9918 47.7635 50.9094 47.4024C50.7126 47.5739 50.5155 47.7471 50.3182 47.922ZM126.576 31.8288C126.521 31.6979 125.845 31.8385 125.825 31.9289C125.569 33.1399 126.967 32.8263 126.576 31.8288ZM143.737 28.8811C143.293 27.2134 147.179 28.6032 147.529 28.4875C147.579 29.5525 146.625 28.5478 147.193 29.9731C146.688 29.2034 145.49 29.7189 145.174 29.5078C144.991 29.3796 144.88 28.4647 144.851 28.4375C144.747 28.3412 143.88 29.4701 143.737 28.8811ZM150.687 28.9816C150.304 28.8072 149.95 28.6306 149.57 28.4559C149.988 28.304 150.391 28.1532 150.808 28.0014C150.768 28.3281 150.728 28.6549 150.687 28.9816ZM151.097 28.4657C151.007 27.4366 152.281 28.1317 152.582 27.8708C152.351 29.6497 151.635 28.0413 151.097 28.4657ZM130.748 28.5653C130.105 27.9662 130.299 31.1184 130.784 29.6661C130.798 29.6183 130.776 28.5979 130.748 28.5653ZM66.1505 38.3317C66.0469 38.326 64.6807 37.5071 64.6811 38.0214C64.725 39.6484 65.4002 38.8825 65.7735 39.4418C66.35 40.3517 65.8394 41.251 66.7848 40.5063C66.7918 40.8317 66.7986 41.1571 66.8051 41.4826C67.4069 41.5009 66.8969 39.3159 66.9589 39.0158C66.9796 38.9244 67.3715 39.0564 67.4196 38.9048C67.9597 37.002 66.2593 38.3301 66.1505 38.3317ZM117.008 30.1239C115.786 29.3192 116.44 30.6403 115.288 30.6956C115.338 31.4047 116.939 30.7595 117.008 30.1239ZM76.5845 37.0716C75.5455 37.6451 74.3848 37.0014 73.6816 38.4877C74.2517 40.3218 77.0099 37.4686 76.5845 37.0716ZM25.5898 57.3431C30.1137 57.0708 33.1402 54.6037 36.189 52.1448C37.0325 51.4663 37.8721 50.8156 38.7408 50.2328C39.1824 49.9385 39.6451 50.5479 39.7612 50.3751C39.839 50.262 39.4912 49.7565 39.6328 49.6633C44.7145 46.3274 49.8445 43.1241 55.6232 41.7371C55.9851 41.6451 58.0657 42.42 57.923 40.4105C57.8275 38.8757 56.8393 40.3586 56.6391 40.4053C56.4794 40.4407 56.2769 39.7624 56.1695 39.7908C56.0556 39.8212 56.2837 40.2587 56.1548 40.3037C55.5988 40.501 54.9631 40.498 54.4645 40.7004C49.7225 42.6306 45.1429 44.5513 40.7239 47.0603C40.1938 47.3641 40.0105 46.8152 39.9829 46.8284C39.9832 46.8298 39.9836 46.8312 39.984 46.8327C38.2874 47.8076 36.7462 49.3263 35.1939 50.7719C34.1443 51.7564 33.0571 52.6824 31.8312 53.3578C29.7166 54.4673 27.5878 55.6392 25.481 56.8853C25.5168 57.0383 25.553 57.1909 25.5898 57.3431ZM68.7425 39.9442C68.1274 37.8878 68.5434 40.014 67.3792 39.3068C67.3449 39.6809 67.3187 40.0538 67.2913 40.4268C67.8109 40.268 68.3997 40.1039 68.7434 39.944C68.7431 39.9441 68.7428 39.9441 68.7425 39.9442ZM61.8602 40.3294C61.0758 37.5333 59.1113 40.0613 57.9196 39.819C58.0966 41.2694 59.4666 40.246 59.8767 40.3116C60.0793 40.3402 61.3607 41.5757 61.9301 40.6159C61.9068 40.5204 61.8835 40.4249 61.8602 40.3294ZM139.51 24.9262C139.349 25.022 139.187 25.1178 139.024 25.2137C139.471 25.5032 139.902 25.7937 140.356 26.0823C139.654 25.9252 138.987 25.7652 138.29 25.6071C138.37 25.0007 138.456 24.3938 138.541 23.7869C138.868 24.1665 139.191 24.5462 139.51 24.9262ZM137.349 25.3857C138.514 25.0782 137.397 26.7647 137.044 26.074C136.834 25.6597 137.229 25.4184 137.349 25.3857ZM134.213 24.5681C134.696 23.4802 135.79 23.3322 135.541 25.4561C134.883 24.5147 134.562 25.3567 133.653 24.8512C133.746 24.441 133.85 24.0301 133.949 23.6194C133.95 23.6194 133.951 23.6194 133.951 23.6193C134.038 23.9356 134.126 24.2518 134.213 24.5681ZM137.8 24.0794C138.657 25.2301 136.383 24.9746 137.035 24.1327C137.068 24.0939 137.768 24.0354 137.8 24.0794ZM28.2429 52.4241C28.5852 53.0275 29.0753 52.6318 29.2591 52.5491C30.0892 52.1676 30.8141 51.2445 31.6068 50.7726C31.4157 50.6331 31.2246 50.4936 31.0336 50.3542C30.1062 51.0291 29.1683 51.7239 28.2429 52.4241ZM33.9263 49.0735C33.9343 49.0677 33.9422 49.0619 33.9502 49.0561C34.4893 48.6654 35.0242 48.289 35.565 47.9194C35.6163 47.8842 35.5302 47.2301 35.267 47.2356C34.8133 47.8357 34.3802 48.4342 33.944 49.0476C33.9381 49.0562 33.9322 49.0649 33.9263 49.0735ZM71.336 34.9917C70.7794 34.7457 71.5653 32.4856 72.0647 34.5384C71.8201 34.69 71.5813 34.84 71.336 34.9917ZM75.3455 33.0183C75.1194 33.2882 74.8731 33.5637 74.6477 33.8336C74.5832 33.5995 74.5186 33.3654 74.4541 33.1312C74.7441 33.0954 75.055 33.054 75.3455 33.0183ZM25.9639 53.604C26.7362 54.0494 27.2666 53.4645 27.659 53.1788C26.9539 52.8239 26.5438 53.5961 25.9639 53.604ZM64.954 35.5121C65.0879 36.0594 63.0789 36.2526 63.5995 35.1541C64.0454 35.2713 64.5144 35.3879 64.954 35.5121ZM60.7165 35.4313C61.1284 35.2187 61.4978 35.3445 61.5842 36.2341C61.3464 36.2429 61.1195 36.2506 60.8802 36.2619C60.8256 35.9851 60.7711 35.7082 60.7165 35.4313ZM132 23.0219C131.994 23.023 131.988 23.0241 131.982 23.0252C131.893 23.0729 131.566 23.0238 131.481 23.0781C130.828 23.2519 130.189 23.4227 129.541 23.5935C129.532 23.3496 129.523 23.1056 129.514 22.8616C130.135 22.696 130.751 22.53 131.378 22.3614C131.473 22.3013 131.835 22.3556 131.933 22.3028C131.94 22.3016 131.947 22.3003 131.953 22.2991C131.969 22.54 131.984 22.781 132 23.0219ZM24.2806 52.1582C23.991 52.5955 23.7064 53.0321 23.4237 53.4709C23.9113 53.2798 24.3978 53.0934 24.887 52.9082C24.6843 52.6568 24.4816 52.4055 24.279 52.1542C24.2795 52.1555 24.2801 52.1569 24.2806 52.1582ZM141.011 19.2429C138.879 18.2589 141.42 16.8784 142.07 18.5002C142.07 18.4988 142.071 18.4974 142.071 18.4959C142.13 18.6392 142.079 19.3561 142.18 19.6366C141.944 19.3312 141.721 19.0248 141.488 18.7191C141.327 19.1318 141.163 19.5445 140.998 19.9574C140.923 19.8051 140.847 19.6528 140.772 19.5005C140.852 19.4147 140.932 19.3288 141.011 19.2429ZM149.266 18.0102C151.146 18.0032 149.363 19.9185 148.335 18.5854C148.314 18.2611 149.096 18.0106 149.266 18.0102ZM144.401 18.7504C144.125 18.9322 143.844 19.1144 143.558 19.2969C143.505 19.0966 143.453 18.8963 143.4 18.696C143.615 18.4779 143.826 18.2599 144.035 18.0422C144.158 18.2782 144.279 18.5143 144.401 18.7504ZM134.53 16.298C134.048 16.107 133.601 18.4065 135.07 17.7088C135.052 17.4665 135.035 17.2243 135.017 16.9821C134.958 17.025 134.794 17.2647 134.785 17.2472C134.753 17.1884 134.73 16.3772 134.53 16.298ZM152.267 11.3751C152.312 11.2791 152.158 8.72183 152.911 11.3238C153.066 11.1508 153.227 10.9772 153.387 10.8038C153.472 11.3635 153.557 11.9231 153.641 12.4828C152.941 12.0948 152.969 13.2377 152.919 13.2656C152.709 13.388 152.828 12.7905 152.686 12.7928C152.322 12.7998 151.525 13.2537 151.779 11.5544C151.872 10.9456 152.221 11.471 152.267 11.3751ZM150.885 10.0154C150.981 10.2228 150.777 10.9892 150.854 11.1959C150.925 11.3758 151.76 12.081 151.642 13.359C151.511 13.3152 151.379 13.2714 151.245 13.2277C151.176 12.8852 151.107 12.5426 151.037 12.2001C150.932 12.5287 150.833 12.8569 150.734 13.1851C150.465 12.3471 149.934 11.2748 150.414 10.54C150.226 10.627 150.03 10.7147 149.842 10.8017C149.774 11.2178 149.704 11.6339 149.634 12.0501C149.641 11.4232 149.647 10.7964 149.653 10.1695C150.059 10.1185 150.473 10.0669 150.885 10.0154ZM157.123 9.81711C157.117 10.141 157.112 10.4648 157.106 10.7887C157.835 10.1397 159.098 9.84308 158.493 11.9038C157.416 12.133 156.41 12.3689 155.415 12.6064C155.332 12.3687 155.243 12.1314 155.163 11.8935C155.982 12.7748 155.474 8.8187 156.215 9.9139C156.341 10.0997 156.101 11.5106 156.757 10.5747C156.711 10.2527 156.665 9.93077 156.619 9.60883C156.784 9.67828 156.952 9.7477 157.123 9.81711ZM161.217 9.91056C159.824 9.69234 161.006 8.27512 161.532 9.17818C161.531 9.17827 161.531 9.17836 161.53 9.17845C162.778 11.68 160.878 10.7019 160.866 10.7243C160.781 10.7637 160.796 12.7136 160.013 10.0098C160.231 10.013 160.661 9.97189 161.217 9.91056ZM159.569 9.68522C159.692 9.6163 159.644 10.1063 159.698 10.0967C159.699 10.0966 159.699 10.0966 159.7 10.0966C159.908 10.0593 160.2 9.99545 160.521 9.95303L159.635 10.0075C159.694 9.95969 159.717 9.95374 159.793 10.0964C159.865 10.2397 160.011 10.5267 160.134 11.0912C159.998 11.1869 159.893 11.3396 159.745 11.2809L160.568 11.2303C159.886 11.1971 159.336 11.0294 159.24 10.5527C159.35 10.2633 159.456 9.97434 159.569 9.68522ZM154.607 11.1642C154.117 10.1781 155.044 9.97672 155.328 10.4299C155.38 10.5288 155.114 12.1857 154.607 11.1642ZM122.465 11.3501C121.687 12.0702 122.894 12.528 122.628 13.5288C122.782 13.4265 122.936 13.324 123.09 13.2215C122.881 12.5978 122.673 11.974 122.465 11.3501ZM79.6918 16.4158C79.4588 16.3603 79.705 16.9 79.6894 16.913C79.5515 16.9326 79.3045 16.5053 79.2663 16.5675C78.552 17.7514 79.3168 18.0567 79.3549 18.1647C79.5233 18.7184 79.4455 19.4391 79.9629 19.9858C80.1248 19.7309 80.2767 19.4788 80.435 19.225C80.6212 19.5083 80.8078 19.7915 80.9946 20.0747C81.2395 19.2969 80.6405 19.2591 80.3455 18.3906C80.2295 18.0491 80.5143 17.5285 79.6918 16.4158ZM120.681 9.62963C120.672 10.6552 120.495 11.9705 120.962 12.9395C120.962 12.9394 120.963 12.9394 120.963 12.9393C121.049 13.1165 121.316 13.1855 121.428 13.4353C121.808 12.0208 121.415 10.6615 120.681 9.62963ZM83.026 13.6628C83.4267 13.804 83.8242 13.9462 84.228 14.0871C84.3743 14.6785 84.5206 15.27 84.6669 15.8614C84.4423 15.7497 84.2185 15.6379 83.9956 15.5259C84.0015 15.8115 84.0075 16.097 84.0138 16.3825C84.4125 16.997 84.8122 17.6114 85.2129 18.2257C85.4283 17.9193 85.6347 17.6154 85.847 17.3101C85.6419 17.0309 85.4371 16.7516 85.2326 16.4723C85.8072 15.9581 86.0337 17.4296 86.7262 17.8368C86.7731 17.2422 86.8214 16.6474 86.8709 16.0524C87.1472 16.3724 87.4241 16.6923 87.7016 17.0121C87.882 17.1609 88.0608 17.3107 88.238 17.4615C88.84 17.042 88.808 16.608 88.1994 16.0881C88.3758 15.2856 88.9859 16.3369 89.3034 15.9577C89.33 15.9269 89.1186 15.2611 89.1451 15.2466C91.0161 14.3612 91.2076 16.2064 91.5242 16.2196C91.7455 16.23 92.3006 14.8725 92.2423 14.4564C92.1607 13.897 90.0719 12.0009 92.6902 11.4726C91.0914 10.1774 89.7069 12.0601 91.198 14.0779C90.7378 13.9264 88.7882 14.9178 88.6147 14.8959C88.3904 14.8422 88.2731 13.9861 88.0034 14.0264C87.8838 14.046 87.8767 15.1276 87.234 15.1748C87.0739 15.1733 86.8439 15.0296 86.5106 14.6405C86.4854 14.9802 86.4607 15.3197 86.4364 15.6592C86.2729 15.4271 86.1096 15.1951 85.9464 14.963C85.9122 13.9951 85.8797 13.0268 85.849 12.0582C85.3056 13.2579 84.1508 11.5607 84.0703 13.2623C83.5972 13.1887 83.3466 13.0601 83.3197 12.2078C83.1926 12.2406 83.066 12.2734 82.9399 12.306C82.9686 12.7582 82.999 13.2101 83.026 13.6628ZM118.346 11.3935C117.82 10.508 117.923 12.5489 118.003 12.6552C118.447 13.2384 118.619 11.8543 118.346 11.3935ZM80.728 17.2619C81.3175 17.6497 81.9202 18.0344 82.5081 18.4234C82.3451 17.8 82.1822 17.1766 82.0192 16.5532C81.5932 16.7879 81.1535 17.0266 80.728 17.2619ZM122.401 9.89731C122.505 10.3706 122.61 10.8438 122.715 11.3171C122.979 9.50298 123.792 11.9477 123.968 11.3968C124.005 11.2765 123.786 10.4457 123.661 10.2779C123.583 10.1733 122.47 9.72406 122.401 9.89731ZM144.763 8.02875C144.603 8.36556 144.44 8.70251 144.275 9.03961C144.246 8.49703 144.218 7.95444 144.189 7.41186C144.274 7.3043 144.359 7.19679 144.444 7.08931C144.551 7.40243 144.657 7.71557 144.763 8.02875ZM142.688 9.0447C142.346 9.02568 142.019 9.00559 141.675 8.98659C142.918 8.39781 141.85 8.23079 142.574 7.46955C142.612 7.9946 142.65 8.51965 142.688 9.0447ZM139.221 8.19041C139.239 7.86403 139.257 7.53765 139.275 7.21128C139.611 7.18752 139.935 7.16447 140.279 7.13999C139.985 6.03226 139.689 4.92465 139.403 3.81628C139.282 3.82207 139.16 3.8279 139.037 3.83377C139.099 5.28598 139.16 6.73819 139.221 8.19041ZM70.0288 16.5109C69.8282 16.5456 69.3849 17.6874 69.5158 18.0271C69.9133 18.3794 70.3332 18.7257 70.7329 19.0776C70.5637 18.4545 70.3944 17.8313 70.2252 17.2081C70.3506 17.5071 70.4762 17.806 70.6019 18.1049C70.7014 17.8273 70.8081 17.5478 70.9079 17.2702C71.1386 17.7922 71.3697 18.314 71.6013 18.8357C71.5147 18.1914 71.4288 17.547 71.3436 16.9023C70.2477 16.0174 70.572 17.1126 70.4038 17.1461C70.3184 17.1639 70.1602 16.7926 70.0775 16.6067C70.0613 16.5748 70.045 16.5428 70.0288 16.5109ZM80.0005 13.2033C78.9961 13.3015 78.8795 15.0909 77.8167 13.9021C79.0452 16.708 81.1269 12.9248 82.7874 15.1039C82.7707 14.6064 82.7546 14.1088 82.739 13.611C82.2909 14.1742 81.6582 13.3055 81.3477 13.2379C81.1032 13.1836 81.2548 13.6701 81.2364 13.6674C81.2357 13.6676 81.2349 13.6678 81.2341 13.668C80.6821 13.5963 80.397 13.1646 80.0005 13.2033ZM122.782 7.45087C122.435 6.72293 122.003 6.85743 122.145 7.96857C122.433 8.25763 122.72 8.54665 123.005 8.83595C122.917 8.55827 122.842 7.57533 122.782 7.45087ZM138.607 5.09701C138.369 4.74828 137.934 5.09925 138.201 6.05017C138.249 6.21893 138.671 5.50751 138.517 7.26909C138.982 7.20925 138.738 5.29783 138.607 5.09701ZM99.4739 11.5452C99.6515 11.4886 99.8298 11.432 100.009 11.3755C99.9918 10.9218 99.9749 10.468 99.9582 10.0143C99.7947 10.5246 99.6332 11.0349 99.4739 11.5452ZM124.782 6.39972C125.298 8.56205 125.382 6.37778 126.037 8.12354C126.189 8.11679 126.341 8.10995 126.493 8.103C126.494 8.10294 126.494 8.10289 126.494 8.10284C126.416 7.50438 126.337 6.90591 126.258 6.30745C125.771 6.33819 125.275 6.36949 124.782 6.39972ZM86.1855 12.8459C86.3603 13.0911 86.5353 13.3362 86.7105 13.5813C86.7316 13.5099 86.7528 13.4385 86.7739 13.3671C86.9451 13.0521 87.1181 12.7382 87.2928 12.4253C87.0787 12.2358 86.8623 12.0476 86.6433 11.8607C86.5819 11.9508 86.5206 12.041 86.4594 12.1313C86.3675 12.3697 86.2762 12.6079 86.1855 12.8459ZM127.402 5.84575C126.839 5.64509 126.904 7.57772 127.581 7.48763C127.863 7.44796 127.989 6.05541 127.402 5.84575ZM62.5347 19.0876C62.796 19.2131 63.0197 19.345 63.2779 19.472C63.293 19.0609 63.3067 18.65 63.3185 18.2394C63.065 18.5201 62.8052 18.8025 62.5347 19.0876ZM141.209 5.13149C141.215 5.53634 141.222 5.94119 141.228 6.34604C141.051 6.2771 140.887 6.20719 140.715 6.13789C140.728 5.73446 140.74 5.33104 140.753 4.92763C140.904 4.99565 141.051 5.06395 141.209 5.13149ZM64.0076 19.1161C64.1696 19.1702 64.3152 19.2267 64.4564 19.2836C64.5111 19.0767 64.5509 18.8719 64.5784 18.6689C64.4699 18.4881 64.3371 18.3108 64.1793 18.137C64.1215 18.4635 64.0751 18.7882 64.0076 19.1161ZM134.345 5.37345C134.09 4.90381 133.375 6.47115 134.144 6.80565C134.651 7.01668 134.381 5.44505 134.345 5.37345ZM135.44 4.8122C134.591 3.94271 135.488 8.59219 136.25 5.48611C135.309 5.97022 135.491 4.86464 135.44 4.8122ZM142.297 1.89511C142.317 1.89608 142.383 2.56891 142.546 2.58222C143.125 2.62822 143.919 2.83829 144.325 2.85013C145.324 2.87769 148.297 1.43386 148.801 3.35784C148.906 3.76195 148.823 4.9988 148.858 5.05957C148.963 5.22858 149.428 4.59713 149.4 5.50523C148.9 5.53505 148.395 5.56529 147.889 5.59551C147.967 4.9507 148.045 4.30598 148.121 3.66134C146.884 4.09352 147.309 4.02282 147.047 5.43366C146.793 4.91321 146.541 4.39268 146.294 3.87167C145.875 4.44428 145.452 5.01717 145.034 5.58956C145.109 5.18011 145.184 4.7707 145.258 4.36134C144.515 3.66747 144.73 4.1423 144.429 5.14382C144.399 4.74205 144.369 4.34029 144.339 3.93853C143.751 4.96589 143.524 3.77168 143.375 3.76784C143.086 3.76499 143.029 8.54852 141.561 3.89873C141.243 6.20854 140.91 1.57972 140.804 3.95292C139.811 1.44859 141.43 2.26509 142.158 2.29779C142.158 2.29776 142.159 2.29773 142.159 2.2977C142.216 2.30092 142.096 1.8759 142.297 1.89511ZM138.282 4.54997C138.626 2.42667 136.674 2.36743 137.529 5.33756C137.632 5.4288 137.735 5.52007 137.838 5.61136C137.988 5.25745 138.136 4.90363 138.283 4.54989C138.283 4.54991 138.283 4.54994 138.282 4.54997ZM118.317 5.29273C116.674 6.36872 117.819 7.43766 118.266 6.19498C118.356 5.94839 118.38 5.62274 118.317 5.29273ZM78.2119 12.0111C78.2498 12.261 78.2878 12.5109 78.3258 12.7607C78.8699 12.3733 80.2974 13.0003 79.852 11.3657C79.3043 11.5805 78.7547 11.7964 78.2119 12.0111ZM82.7634 9.67652C82.6054 9.61172 82.0115 9.51631 82.2352 10.1133C82.5782 10.4885 82.9223 10.8635 83.2677 11.2382C83.3061 10.9383 83.3449 10.6384 83.3842 10.3383C83.2076 10.2853 82.8057 9.69318 82.7634 9.67652Z" fill="#FFE2F9"/>
</svg>
